G04 #@! TF.GenerationSoftware,KiCad,Pcbnew,6.0.9-8da3e8f707~116~ubuntu20.04.1*
G04 #@! TF.CreationDate,2023-03-26T14:48:38+00:00*
G04 #@! TF.ProjectId,LEC000042,4c454330-3030-4303-9432-2e6b69636164,rev?*
G04 #@! TF.SameCoordinates,Original*
G04 #@! TF.FileFunction,Copper,L2,Bot*
G04 #@! TF.FilePolarity,Positive*
%FSLAX46Y46*%
G04 Gerber Fmt 4.6, Leading zero omitted, Abs format (unit mm)*
G04 Created by KiCad (PCBNEW 6.0.9-8da3e8f707~116~ubuntu20.04.1) date 2023-03-26 14:48:38*
%MOMM*%
%LPD*%
G01*
G04 APERTURE LIST*
G04 #@! TA.AperFunction,ComponentPad*
%ADD10R,3.000000X3.000000*%
G04 #@! TD*
G04 #@! TA.AperFunction,ComponentPad*
%ADD11C,3.000000*%
G04 #@! TD*
G04 #@! TA.AperFunction,ComponentPad*
%ADD12C,1.800000*%
G04 #@! TD*
G04 #@! TA.AperFunction,ComponentPad*
%ADD13R,1.800000X1.800000*%
G04 #@! TD*
G04 #@! TA.AperFunction,ComponentPad*
%ADD14R,1.400000X1.400000*%
G04 #@! TD*
G04 #@! TA.AperFunction,ComponentPad*
%ADD15C,1.400000*%
G04 #@! TD*
G04 #@! TA.AperFunction,SMDPad,CuDef*
%ADD16C,1.500000*%
G04 #@! TD*
G04 #@! TA.AperFunction,ViaPad*
%ADD17C,0.800000*%
G04 #@! TD*
G04 #@! TA.AperFunction,Conductor*
%ADD18C,0.600000*%
G04 #@! TD*
G04 #@! TA.AperFunction,Conductor*
%ADD19C,0.400000*%
G04 #@! TD*
G04 #@! TA.AperFunction,Conductor*
%ADD20C,0.300000*%
G04 #@! TD*
G04 APERTURE END LIST*
D10*
G04 #@! TO.P,J1,1,Pin_1*
G04 #@! TO.N,GND*
X59400000Y27100000D03*
D11*
G04 #@! TO.P,J1,2,Pin_2*
G04 #@! TO.N,/FORCE*
X54320000Y27100000D03*
G04 #@! TD*
D10*
G04 #@! TO.P,J2,1,Pin_1*
G04 #@! TO.N,TRACK_B_DETECT_ZONE*
X9400000Y28100000D03*
D11*
G04 #@! TO.P,J2,2,Pin_2*
X9400000Y23020000D03*
G04 #@! TD*
D10*
G04 #@! TO.P,J3,1,Pin_1*
G04 #@! TO.N,TRACK_B*
X9400000Y10500000D03*
D11*
G04 #@! TO.P,J3,2,Pin_2*
G04 #@! TO.N,TRACK_A*
X9400000Y5420000D03*
G04 #@! TD*
D10*
G04 #@! TO.P,J5,1,Pin_1*
G04 #@! TO.N,/T1*
X76200000Y27100000D03*
D11*
G04 #@! TO.P,J5,2,Pin_2*
G04 #@! TO.N,/R1*
X71120000Y27100000D03*
G04 #@! TO.P,J5,3,Pin_3*
G04 #@! TO.N,/C1*
X66040000Y27100000D03*
G04 #@! TD*
D10*
G04 #@! TO.P,J6,1,Pin_1*
G04 #@! TO.N,/C2*
X66000000Y6900000D03*
D11*
G04 #@! TO.P,J6,2,Pin_2*
G04 #@! TO.N,/R2*
X71080000Y6900000D03*
G04 #@! TO.P,J6,3,Pin_3*
G04 #@! TO.N,/T2*
X76160000Y6900000D03*
G04 #@! TD*
D12*
G04 #@! TO.P,K1,1*
G04 #@! TO.N,+5V*
X59400000Y20820000D03*
G04 #@! TO.P,K1,4*
G04 #@! TO.N,/C1*
X67020000Y20820000D03*
G04 #@! TO.P,K1,6*
G04 #@! TO.N,/R1*
X72100000Y20820000D03*
G04 #@! TO.P,K1,8*
G04 #@! TO.N,/T1*
X77180000Y20820000D03*
G04 #@! TO.P,K1,9*
G04 #@! TO.N,/T2*
X77180000Y13200000D03*
G04 #@! TO.P,K1,11*
G04 #@! TO.N,/R2*
X72100000Y13200000D03*
G04 #@! TO.P,K1,13*
G04 #@! TO.N,/C2*
X67020000Y13200000D03*
D13*
G04 #@! TO.P,K1,16*
G04 #@! TO.N,Net-(D8-Pad2)*
X59400000Y13200000D03*
G04 #@! TD*
D14*
G04 #@! TO.P,RV1,1,1*
G04 #@! TO.N,/FORCE*
X38750000Y25540000D03*
D15*
G04 #@! TO.P,RV1,2,2*
X41290000Y23000000D03*
G04 #@! TO.P,RV1,3,3*
G04 #@! TO.N,Net-(R5-Pad2)*
X38750000Y20460000D03*
G04 #@! TD*
D16*
G04 #@! TO.P,TP4,1,1*
G04 #@! TO.N,+5V*
X44500000Y13000000D03*
G04 #@! TD*
G04 #@! TO.P,TP6,1,1*
G04 #@! TO.N,GND*
X50200000Y15500000D03*
G04 #@! TD*
G04 #@! TO.P,TP7,1,1*
G04 #@! TO.N,/FORCE*
X52000000Y25500000D03*
G04 #@! TD*
G04 #@! TO.P,TP8,1,1*
G04 #@! TO.N,TRACK_B_DETECT_ZONE*
X13000000Y23500000D03*
G04 #@! TD*
G04 #@! TO.P,TP9,1,1*
G04 #@! TO.N,TRACK_A*
X13000000Y5500000D03*
G04 #@! TD*
G04 #@! TO.P,TP10,1,1*
G04 #@! TO.N,TRACK_B*
X13000000Y10500000D03*
G04 #@! TD*
G04 #@! TO.P,TP1,1,1*
G04 #@! TO.N,/R1*
X71000000Y24000000D03*
G04 #@! TD*
G04 #@! TO.P,TP2,1,1*
G04 #@! TO.N,/C1*
X66000000Y24000000D03*
G04 #@! TD*
G04 #@! TO.P,TP3,1,1*
G04 #@! TO.N,/T1*
X76000000Y24000000D03*
G04 #@! TD*
G04 #@! TO.P,TP5,1,1*
G04 #@! TO.N,/R2*
X71000000Y10000000D03*
G04 #@! TD*
G04 #@! TO.P,TP11,1,1*
G04 #@! TO.N,/C2*
X66000000Y10000000D03*
G04 #@! TD*
G04 #@! TO.P,TP12,1,1*
G04 #@! TO.N,/T2*
X76000000Y10000000D03*
G04 #@! TD*
D17*
G04 #@! TO.N,GND*
X15500000Y16500000D03*
X50000000Y7500000D03*
X21000000Y4500000D03*
X49000000Y11500000D03*
X47000000Y15500000D03*
X38000000Y16500000D03*
X60000000Y15500000D03*
X46000000Y15500000D03*
X20500000Y6500000D03*
X26000000Y12500000D03*
X35500000Y4000000D03*
X46000000Y16500000D03*
X40500000Y4000000D03*
X36750000Y23750000D03*
X15500000Y26500000D03*
X30500000Y9000000D03*
X55500000Y4000000D03*
X45500000Y4000000D03*
X30500000Y24000000D03*
X35500000Y14000000D03*
X50000000Y11500000D03*
X46250000Y20250000D03*
X43000000Y22500000D03*
X41250000Y27500000D03*
X13000000Y21500000D03*
X30500000Y6500000D03*
X47000000Y13500000D03*
X52000000Y20250000D03*
X13000000Y19000000D03*
X54000000Y7500000D03*
X13000000Y29000000D03*
X38000000Y4000000D03*
X45000000Y15500000D03*
X53000000Y20250000D03*
X58000000Y24000000D03*
X40750000Y25000000D03*
X55500000Y24000000D03*
X30500000Y14000000D03*
X54000000Y5500000D03*
X36500000Y21250000D03*
X40500000Y14000000D03*
X31000000Y12500000D03*
X55500000Y9000000D03*
X48000000Y4000000D03*
X13000000Y26500000D03*
X43000000Y4000000D03*
X50500000Y29000000D03*
X48000000Y29000000D03*
X47000000Y14500000D03*
X18000000Y6500000D03*
X58000000Y19500000D03*
X13000000Y14000000D03*
X19000000Y4500000D03*
X50000000Y5500000D03*
X41750000Y30000000D03*
X15500000Y19000000D03*
X34500000Y21000000D03*
X41250000Y17000000D03*
X28000000Y24000000D03*
X38000000Y14000000D03*
X28000000Y26500000D03*
G04 #@! TO.N,+5V*
X51825000Y16575000D03*
X44400000Y12900000D03*
X48000000Y23500000D03*
G04 #@! TO.N,Net-(C7-Pad1)*
X32000000Y27750000D03*
X50750000Y19000000D03*
G04 #@! TD*
D18*
G04 #@! TO.N,+5V*
X52000000Y16750000D02*
X51825000Y16575000D01*
X49250000Y23250000D02*
X49250000Y19167998D01*
X49250000Y19167998D02*
X50417998Y18000000D01*
X51250000Y18000000D02*
X52000000Y17250000D01*
X49000000Y23500000D02*
X49250000Y23250000D01*
X48000000Y23500000D02*
X49000000Y23500000D01*
X50417998Y18000000D02*
X51250000Y18000000D01*
X44500000Y13000000D02*
X44400000Y12900000D01*
X52000000Y17250000D02*
X52000000Y16750000D01*
D19*
G04 #@! TO.N,/FORCE*
X45630019Y23619981D02*
X41909981Y23619981D01*
X41290000Y23000000D02*
X38750000Y25540000D01*
X49110038Y27100000D02*
X45630019Y23619981D01*
X52720000Y25500000D02*
X54320000Y27100000D01*
X54320000Y27100000D02*
X49110038Y27100000D01*
X52000000Y25500000D02*
X52720000Y25500000D01*
X41909981Y23619981D02*
X41290000Y23000000D01*
D20*
G04 #@! TO.N,TRACK_B*
X13000000Y10500000D02*
X9400000Y10500000D01*
G04 #@! TO.N,TRACK_A*
X13000000Y5500000D02*
X9480000Y5500000D01*
X9480000Y5500000D02*
X9400000Y5420000D01*
G04 #@! TO.N,TRACK_B_DETECT_ZONE*
X11521320Y23020000D02*
X9400000Y23020000D01*
X13000000Y23500000D02*
X11939340Y23500000D01*
X11600000Y23098680D02*
X11521320Y23020000D01*
X11939340Y23500000D02*
X11600000Y23160660D01*
X11600000Y23160660D02*
X11600000Y23098680D01*
D18*
G04 #@! TO.N,Net-(C7-Pad1)*
X50750000Y24500000D02*
X49750000Y25500000D01*
X48500000Y25500000D02*
X44250000Y21250000D01*
X44250000Y21250000D02*
X40750000Y21250000D01*
X49750000Y25500000D02*
X48500000Y25500000D01*
X37000001Y24999999D02*
X34750001Y24999999D01*
X50750000Y19000000D02*
X50750000Y24500000D01*
X40750000Y21250000D02*
X37000001Y24999999D01*
X34750001Y24999999D02*
X32000000Y27750000D01*
G04 #@! TD*
G04 #@! TA.AperFunction,Conductor*
G04 #@! TO.N,GND*
G36*
X61361323Y32581093D02*
G01*
X61397957Y32529447D01*
X61796790Y31200000D01*
X61900802Y30853294D01*
X61904608Y30833390D01*
X61905903Y30818440D01*
X61909916Y30810230D01*
X61919028Y30791589D01*
X61919902Y30789626D01*
X61920670Y30787068D01*
X61922757Y30783016D01*
X61931362Y30766305D01*
X61932289Y30764459D01*
X61954983Y30718034D01*
X61957358Y30715830D01*
X61958844Y30712946D01*
X61964733Y30707708D01*
X61964734Y30707707D01*
X61997506Y30678559D01*
X61999040Y30677165D01*
X62036917Y30642029D01*
X62039929Y30640828D01*
X62042352Y30638672D01*
X62049750Y30635898D01*
X62049751Y30635898D01*
X62090737Y30620533D01*
X62092669Y30619785D01*
X62134225Y30603206D01*
X62134227Y30603206D01*
X62140720Y30600615D01*
X62144982Y30600197D01*
X62146999Y30599441D01*
X62204807Y30599995D01*
X62205755Y30600000D01*
X62801000Y30600000D01*
X62859191Y30581093D01*
X62895155Y30531593D01*
X62900000Y30501000D01*
X62900000Y2899000D01*
X62881093Y2840809D01*
X62831593Y2804845D01*
X62801000Y2800000D01*
X14215272Y2800000D01*
X14157081Y2818907D01*
X14145268Y2828996D01*
X14099900Y2874364D01*
X14097209Y2877482D01*
X14095017Y2881966D01*
X14058825Y2915539D01*
X14056149Y2918115D01*
X14042400Y2931864D01*
X14038692Y2934408D01*
X14034800Y2937825D01*
X14019786Y2951753D01*
X14013083Y2957971D01*
X14004590Y2961359D01*
X14004587Y2961361D01*
X14002427Y2962223D01*
X13983112Y2972536D01*
X13981191Y2973854D01*
X13981188Y2973855D01*
X13973648Y2979028D01*
X13947793Y2985163D01*
X13933972Y2989533D01*
X13909280Y2999385D01*
X13903007Y3000000D01*
X13896857Y3000000D01*
X13874000Y3002675D01*
X13873805Y3002721D01*
X13864909Y3004832D01*
X13836044Y3000904D01*
X13822696Y3000000D01*
X5658563Y3000000D01*
X5630116Y3004175D01*
X5627926Y3004832D01*
X3970553Y3502043D01*
X3920249Y3536874D01*
X3900000Y3596868D01*
X3900000Y5467264D01*
X7595070Y5467264D01*
X7595246Y5463598D01*
X7595246Y5463596D01*
X7597583Y5414947D01*
X7607909Y5199959D01*
X7660118Y4937488D01*
X7661358Y4934033D01*
X7661359Y4934031D01*
X7733683Y4732594D01*
X7750549Y4685617D01*
X7877215Y4449879D01*
X7879414Y4446934D01*
X7879416Y4446931D01*
X7880843Y4445020D01*
X8037335Y4235453D01*
X8227390Y4047050D01*
X8443205Y3888808D01*
X8680039Y3764203D01*
X8683510Y3762991D01*
X8683512Y3762990D01*
X8771927Y3732114D01*
X8932690Y3675974D01*
X9195606Y3626057D01*
X9329309Y3620804D01*
X9459343Y3615695D01*
X9459346Y3615695D01*
X9463013Y3615551D01*
X9599669Y3630517D01*
X9725394Y3644286D01*
X9725397Y3644287D01*
X9729035Y3644685D01*
X9987829Y3712820D01*
X9991204Y3714270D01*
X9991207Y3714271D01*
X10111412Y3765915D01*
X10233710Y3818458D01*
X10236827Y3820387D01*
X10236833Y3820390D01*
X10458149Y3957345D01*
X10458154Y3957349D01*
X10461275Y3959280D01*
X10665526Y4132191D01*
X10756085Y4235453D01*
X10839550Y4330626D01*
X10839554Y4330631D01*
X10841976Y4333393D01*
X10929227Y4469041D01*
X10984757Y4555372D01*
X10984758Y4555373D01*
X10986747Y4558466D01*
X11008412Y4606559D01*
X11095153Y4799118D01*
X11095154Y4799120D01*
X11096661Y4802466D01*
X11145990Y4977373D01*
X11179983Y5028246D01*
X11241273Y5049500D01*
X11989933Y5049500D01*
X12048124Y5030593D01*
X12077985Y4995753D01*
X12112712Y4928182D01*
X12240677Y4766730D01*
X12244357Y4763598D01*
X12244359Y4763596D01*
X12331911Y4689084D01*
X12397564Y4633209D01*
X12401787Y4630849D01*
X12401791Y4630846D01*
X12441342Y4608742D01*
X12577398Y4532703D01*
X12581996Y4531209D01*
X12768724Y4470537D01*
X12768726Y4470536D01*
X12773329Y4469041D01*
X12977894Y4444649D01*
X12982716Y4445020D01*
X12982719Y4445020D01*
X13050541Y4450239D01*
X13183300Y4460454D01*
X13381725Y4515855D01*
X13386038Y4518034D01*
X13386044Y4518036D01*
X13561289Y4606559D01*
X13561291Y4606560D01*
X13565610Y4608742D01*
X13600943Y4636347D01*
X13724135Y4732594D01*
X13724139Y4732598D01*
X13727951Y4735576D01*
X13862564Y4891528D01*
X13881231Y4924387D01*
X13961934Y5066450D01*
X13961935Y5066453D01*
X13964323Y5070656D01*
X13986372Y5136935D01*
X14027824Y5261546D01*
X14027824Y5261548D01*
X14029351Y5266137D01*
X14034321Y5305475D01*
X14048718Y5419442D01*
X14055171Y5470526D01*
X14055583Y5500000D01*
X14035480Y5705030D01*
X14027979Y5729876D01*
X13977333Y5897620D01*
X13975935Y5902251D01*
X13879218Y6084151D01*
X13749011Y6243800D01*
X13590275Y6375118D01*
X13478123Y6435758D01*
X13413309Y6470803D01*
X13413308Y6470803D01*
X13409055Y6473103D01*
X13345855Y6492667D01*
X13216875Y6532593D01*
X13216871Y6532594D01*
X13212254Y6534023D01*
X13207446Y6534528D01*
X13207443Y6534529D01*
X13012185Y6555051D01*
X13012183Y6555051D01*
X13007369Y6555557D01*
X12947354Y6550095D01*
X12807022Y6537325D01*
X12807017Y6537324D01*
X12802203Y6536886D01*
X12604572Y6478720D01*
X12600288Y6476481D01*
X12600287Y6476480D01*
X12589428Y6470803D01*
X12422002Y6383274D01*
X12418231Y6380242D01*
X12265220Y6257219D01*
X12265217Y6257217D01*
X12261447Y6254185D01*
X12258333Y6250474D01*
X12258332Y6250473D01*
X12132139Y6100083D01*
X12132136Y6100079D01*
X12129024Y6096370D01*
X12126692Y6092127D01*
X12126690Y6092125D01*
X12077038Y6001807D01*
X12032435Y5959922D01*
X11990283Y5950500D01*
X11193364Y5950500D01*
X11135173Y5969407D01*
X11101095Y6013619D01*
X11030992Y6193889D01*
X11030992Y6193890D01*
X11029662Y6197309D01*
X10896868Y6429650D01*
X10868728Y6465346D01*
X10776601Y6582208D01*
X10731190Y6639811D01*
X10728517Y6642325D01*
X10728512Y6642331D01*
X10538941Y6820661D01*
X10536269Y6823175D01*
X10487846Y6856767D01*
X57294906Y6856767D01*
X57295246Y6853205D01*
X57295246Y6853198D01*
X57315606Y6639811D01*
X57321102Y6582208D01*
X57386657Y6314306D01*
X57490199Y6058674D01*
X57492010Y6055581D01*
X57492011Y6055579D01*
X57548020Y5959922D01*
X57629558Y5820665D01*
X57801816Y5605268D01*
X58003364Y5416992D01*
X58229979Y5259784D01*
X58233184Y5258189D01*
X58233190Y5258186D01*
X58473699Y5138534D01*
X58473704Y5138532D01*
X58476914Y5136935D01*
X58480325Y5135817D01*
X58480327Y5135816D01*
X58735593Y5052136D01*
X58735596Y5052135D01*
X58738998Y5051020D01*
X59010738Y5003838D01*
X59061160Y5001328D01*
X59096644Y4999561D01*
X59096657Y4999561D01*
X59097876Y4999500D01*
X59270070Y4999500D01*
X59475083Y5014375D01*
X59548540Y5030593D01*
X59740904Y5073063D01*
X59740910Y5073065D01*
X59744403Y5073836D01*
X59747752Y5075105D01*
X59747756Y5075106D01*
X59910951Y5136935D01*
X60002319Y5171551D01*
X60243428Y5305475D01*
X60462678Y5472802D01*
X60655477Y5670026D01*
X60684325Y5709658D01*
X60815682Y5890124D01*
X60817787Y5893016D01*
X60820210Y5897620D01*
X60944536Y6133927D01*
X60946206Y6137101D01*
X61038045Y6397168D01*
X61052660Y6471316D01*
X61090687Y6664252D01*
X61091380Y6667768D01*
X61105094Y6943233D01*
X61104754Y6946795D01*
X61104754Y6946802D01*
X61079239Y7214221D01*
X61079238Y7214225D01*
X61078898Y7217792D01*
X61013343Y7485694D01*
X60909801Y7741326D01*
X60770442Y7979335D01*
X60598184Y8194732D01*
X60396636Y8383008D01*
X60170021Y8540216D01*
X60166816Y8541811D01*
X60166810Y8541814D01*
X59926301Y8661466D01*
X59926296Y8661468D01*
X59923086Y8663065D01*
X59919675Y8664183D01*
X59919673Y8664184D01*
X59664407Y8747864D01*
X59664404Y8747865D01*
X59661002Y8748980D01*
X59389262Y8796162D01*
X59338840Y8798672D01*
X59303356Y8800439D01*
X59303343Y8800439D01*
X59302124Y8800500D01*
X59129930Y8800500D01*
X58924917Y8785625D01*
X58921406Y8784850D01*
X58921407Y8784850D01*
X58659096Y8726937D01*
X58659090Y8726935D01*
X58655597Y8726164D01*
X58652248Y8724895D01*
X58652244Y8724894D01*
X58590845Y8701632D01*
X58397681Y8628449D01*
X58156572Y8494525D01*
X57937322Y8327198D01*
X57744523Y8129974D01*
X57742414Y8127077D01*
X57742411Y8127073D01*
X57584318Y7909876D01*
X57582213Y7906984D01*
X57453794Y7662899D01*
X57361955Y7402832D01*
X57308620Y7132232D01*
X57308442Y7128659D01*
X57308442Y7128658D01*
X57307573Y7111208D01*
X57294906Y6856767D01*
X10487846Y6856767D01*
X10316385Y6975714D01*
X10076371Y7094076D01*
X9821497Y7175662D01*
X9817880Y7176251D01*
X9817876Y7176252D01*
X9560983Y7218089D01*
X9560978Y7218089D01*
X9557364Y7218678D01*
X9553699Y7218726D01*
X9453651Y7220036D01*
X9289774Y7222181D01*
X9286146Y7221687D01*
X9286142Y7221687D01*
X9157189Y7204137D01*
X9024605Y7186093D01*
X8767683Y7111208D01*
X8524652Y6999169D01*
X8521585Y6997158D01*
X8521581Y6997156D01*
X8312905Y6860341D01*
X8300851Y6852438D01*
X8298119Y6849999D01*
X8298117Y6849998D01*
X8265248Y6820661D01*
X8101197Y6674240D01*
X8098850Y6671418D01*
X8098849Y6671417D01*
X7939720Y6480085D01*
X7930075Y6468488D01*
X7791244Y6239702D01*
X7687755Y5992909D01*
X7621881Y5733530D01*
X7595070Y5467264D01*
X3900000Y5467264D01*
X3900000Y8955354D01*
X7599500Y8955354D01*
X7602618Y8929154D01*
X7648061Y8826847D01*
X7654529Y8820390D01*
X7654530Y8820389D01*
X7679318Y8795644D01*
X7727287Y8747759D01*
X7735645Y8744064D01*
X7822864Y8705504D01*
X7822866Y8705504D01*
X7829673Y8702494D01*
X7837067Y8701632D01*
X7852378Y8699847D01*
X7855354Y8699500D01*
X10944646Y8699500D01*
X10962561Y8701632D01*
X10963469Y8701740D01*
X10963470Y8701740D01*
X10970846Y8702618D01*
X11073153Y8748061D01*
X11152241Y8827287D01*
X11197506Y8929673D01*
X11200500Y8955354D01*
X11200500Y9950500D01*
X11219407Y10008691D01*
X11268907Y10044655D01*
X11299500Y10049500D01*
X11989933Y10049500D01*
X12048124Y10030593D01*
X12077985Y9995753D01*
X12112712Y9928182D01*
X12240677Y9766730D01*
X12244357Y9763598D01*
X12244359Y9763596D01*
X12357017Y9667717D01*
X12397564Y9633209D01*
X12401787Y9630849D01*
X12401791Y9630846D01*
X12441342Y9608742D01*
X12577398Y9532703D01*
X12581996Y9531209D01*
X12768724Y9470537D01*
X12768726Y9470536D01*
X12773329Y9469041D01*
X12977894Y9444649D01*
X12982716Y9445020D01*
X12982719Y9445020D01*
X13050541Y9450239D01*
X13183300Y9460454D01*
X13381725Y9515855D01*
X13386038Y9518034D01*
X13386044Y9518036D01*
X13561289Y9606559D01*
X13561291Y9606560D01*
X13565610Y9608742D01*
X13600943Y9636347D01*
X13724135Y9732594D01*
X13724139Y9732598D01*
X13727951Y9735576D01*
X13862564Y9891528D01*
X13881231Y9924387D01*
X13961934Y10066450D01*
X13961935Y10066453D01*
X13964323Y10070656D01*
X14029351Y10266137D01*
X14055171Y10470526D01*
X14055583Y10500000D01*
X14035480Y10705030D01*
X13975935Y10902251D01*
X13879218Y11084151D01*
X13749011Y11243800D01*
X13590275Y11375118D01*
X13409055Y11473103D01*
X13345855Y11492667D01*
X13216875Y11532593D01*
X13216871Y11532594D01*
X13212254Y11534023D01*
X13207446Y11534528D01*
X13207443Y11534529D01*
X13012185Y11555051D01*
X13012183Y11555051D01*
X13007369Y11555557D01*
X12947354Y11550095D01*
X12807022Y11537325D01*
X12807017Y11537324D01*
X12802203Y11536886D01*
X12604572Y11478720D01*
X12600288Y11476481D01*
X12600287Y11476480D01*
X12589428Y11470803D01*
X12422002Y11383274D01*
X12418231Y11380242D01*
X12265220Y11257219D01*
X12265217Y11257217D01*
X12261447Y11254185D01*
X12258333Y11250474D01*
X12258332Y11250473D01*
X12132139Y11100083D01*
X12132136Y11100079D01*
X12129024Y11096370D01*
X12126692Y11092127D01*
X12126690Y11092125D01*
X12077038Y11001807D01*
X12032435Y10959922D01*
X11990283Y10950500D01*
X11299500Y10950500D01*
X11241309Y10969407D01*
X11205345Y11018907D01*
X11200500Y11049500D01*
X11200500Y12044646D01*
X11197382Y12070846D01*
X11151939Y12173153D01*
X11072713Y12252241D01*
X11031374Y12270517D01*
X10977136Y12294496D01*
X10977134Y12294496D01*
X10970327Y12297506D01*
X10956322Y12299139D01*
X10947494Y12300168D01*
X10947493Y12300168D01*
X10944646Y12300500D01*
X7855354Y12300500D01*
X7838951Y12298548D01*
X7836531Y12298260D01*
X7836530Y12298260D01*
X7829154Y12297382D01*
X7726847Y12251939D01*
X7720390Y12245471D01*
X7720389Y12245470D01*
X7686976Y12211998D01*
X7647759Y12172713D01*
X7644064Y12164355D01*
X7629250Y12130846D01*
X7602494Y12070327D01*
X7599500Y12044646D01*
X7599500Y8955354D01*
X3900000Y8955354D01*
X3900000Y12399034D01*
X3918907Y12457225D01*
X3971803Y12494225D01*
X5045300Y12800938D01*
X5063954Y12804378D01*
X5072453Y12805114D01*
X5072454Y12805114D01*
X5081560Y12805903D01*
X5107714Y12818687D01*
X5108262Y12818928D01*
X5109248Y12819209D01*
X5132573Y12830836D01*
X5133180Y12831136D01*
X5174162Y12851168D01*
X5174163Y12851169D01*
X5181966Y12854983D01*
X5182785Y12855865D01*
X5183865Y12856404D01*
X5220454Y12896468D01*
X5220976Y12897035D01*
X5252028Y12930510D01*
X5252029Y12930511D01*
X5257971Y12936917D01*
X5258418Y12938038D01*
X5259231Y12938928D01*
X5262404Y12947065D01*
X5262406Y12947068D01*
X5278955Y12989506D01*
X5279239Y12990225D01*
X5289019Y13014738D01*
X43444520Y13014738D01*
X43450886Y12938928D01*
X43460984Y12818681D01*
X43461759Y12809447D01*
X43463092Y12804799D01*
X43463092Y12804798D01*
X43463213Y12804378D01*
X43518544Y12611414D01*
X43612712Y12428182D01*
X43740677Y12266730D01*
X43744357Y12263598D01*
X43744359Y12263596D01*
X43792219Y12222864D01*
X43897564Y12133209D01*
X43901787Y12130849D01*
X43901791Y12130846D01*
X44009149Y12070846D01*
X44077398Y12032703D01*
X44081996Y12031209D01*
X44268724Y11970537D01*
X44268726Y11970536D01*
X44273329Y11969041D01*
X44477894Y11944649D01*
X44482716Y11945020D01*
X44482719Y11945020D01*
X44550541Y11950239D01*
X44683300Y11960454D01*
X44881725Y12015855D01*
X44886038Y12018034D01*
X44886044Y12018036D01*
X45061289Y12106559D01*
X45061291Y12106560D01*
X45065610Y12108742D01*
X45080518Y12120389D01*
X45224135Y12232594D01*
X45224139Y12232598D01*
X45227951Y12235576D01*
X45236492Y12245470D01*
X45245023Y12255354D01*
X58199500Y12255354D01*
X58202618Y12229154D01*
X58248061Y12126847D01*
X58254529Y12120390D01*
X58254530Y12120389D01*
X58268384Y12106559D01*
X58327287Y12047759D01*
X58335645Y12044064D01*
X58422864Y12005504D01*
X58422866Y12005504D01*
X58429673Y12002494D01*
X58437067Y12001632D01*
X58452378Y11999847D01*
X58455354Y11999500D01*
X60344646Y11999500D01*
X60362561Y12001632D01*
X60363469Y12001740D01*
X60363470Y12001740D01*
X60370846Y12002618D01*
X60473153Y12048061D01*
X60502676Y12077635D01*
X60545786Y12120821D01*
X60552241Y12127287D01*
X60597506Y12229673D01*
X60600500Y12255354D01*
X60600500Y14144646D01*
X60597382Y14170846D01*
X60551939Y14273153D01*
X60472713Y14352241D01*
X60443591Y14365116D01*
X60377136Y14394496D01*
X60377134Y14394496D01*
X60370327Y14397506D01*
X60356322Y14399139D01*
X60347494Y14400168D01*
X60347493Y14400168D01*
X60344646Y14400500D01*
X58455354Y14400500D01*
X58438951Y14398548D01*
X58436531Y14398260D01*
X58436530Y14398260D01*
X58429154Y14397382D01*
X58326847Y14351939D01*
X58247759Y14272713D01*
X58202494Y14170327D01*
X58199500Y14144646D01*
X58199500Y12255354D01*
X45245023Y12255354D01*
X45287313Y12304349D01*
X45362564Y12391528D01*
X45381231Y12424387D01*
X45461934Y12566450D01*
X45461935Y12566453D01*
X45464323Y12570656D01*
X45477882Y12611414D01*
X45527824Y12761546D01*
X45527824Y12761548D01*
X45529351Y12766137D01*
X45533748Y12800938D01*
X45551837Y12944135D01*
X45555171Y12970526D01*
X45555315Y12980791D01*
X45555544Y12997224D01*
X45555583Y13000000D01*
X45553667Y13019546D01*
X45535952Y13200220D01*
X45535951Y13200224D01*
X45535480Y13205030D01*
X45475935Y13402251D01*
X45379218Y13584151D01*
X45249011Y13743800D01*
X45245282Y13746885D01*
X45094002Y13872035D01*
X45094000Y13872036D01*
X45090275Y13875118D01*
X44909055Y13973103D01*
X44845855Y13992667D01*
X44716875Y14032593D01*
X44716871Y14032594D01*
X44712254Y14034023D01*
X44707446Y14034528D01*
X44707443Y14034529D01*
X44512185Y14055051D01*
X44512183Y14055051D01*
X44507369Y14055557D01*
X44447354Y14050095D01*
X44307022Y14037325D01*
X44307017Y14037324D01*
X44302203Y14036886D01*
X44104572Y13978720D01*
X44100288Y13976481D01*
X44100287Y13976480D01*
X44089428Y13970803D01*
X43922002Y13883274D01*
X43918231Y13880242D01*
X43765220Y13757219D01*
X43765217Y13757217D01*
X43761447Y13754185D01*
X43758333Y13750474D01*
X43758332Y13750473D01*
X43749585Y13740048D01*
X43629024Y13596370D01*
X43626689Y13592122D01*
X43626688Y13592121D01*
X43619955Y13579874D01*
X43529776Y13415838D01*
X43467484Y13219468D01*
X43466944Y13214656D01*
X43466944Y13214655D01*
X43447696Y13043049D01*
X43444520Y13014738D01*
X5289019Y13014738D01*
X5296798Y13034234D01*
X5296799Y13034239D01*
X5299385Y13040720D01*
X5299539Y13042286D01*
X5299836Y13043049D01*
X5299844Y13045406D01*
X5300000Y13046993D01*
X5300000Y13088985D01*
X5300235Y13154808D01*
X5300037Y13155327D01*
X5300000Y13155738D01*
X5300000Y13401000D01*
X5318907Y13459191D01*
X5368407Y13495155D01*
X5399000Y13500000D01*
X5750000Y13500000D01*
X6000000Y13750000D01*
X6000000Y14627285D01*
X49615400Y14627285D01*
X49622629Y14619773D01*
X49773373Y14535525D01*
X49782201Y14531668D01*
X49968838Y14471026D01*
X49978238Y14468959D01*
X50173103Y14445723D01*
X50182729Y14445521D01*
X50378385Y14460576D01*
X50387876Y14462250D01*
X50576882Y14515022D01*
X50585862Y14518504D01*
X50761017Y14606982D01*
X50769158Y14612148D01*
X50776928Y14618219D01*
X50784386Y14629277D01*
X50784315Y14631305D01*
X50781618Y14635539D01*
X50211086Y15206071D01*
X50199203Y15212125D01*
X50194172Y15211329D01*
X49620877Y14638034D01*
X49615400Y14627285D01*
X6000000Y14627285D01*
X6000000Y16656767D01*
X7494906Y16656767D01*
X7495246Y16653205D01*
X7495246Y16653198D01*
X7520761Y16385779D01*
X7521102Y16382208D01*
X7586657Y16114306D01*
X7690199Y15858674D01*
X7829558Y15620665D01*
X8001816Y15405268D01*
X8203364Y15216992D01*
X8429979Y15059784D01*
X8433184Y15058189D01*
X8433190Y15058186D01*
X8673699Y14938534D01*
X8673704Y14938532D01*
X8676914Y14936935D01*
X8680325Y14935817D01*
X8680327Y14935816D01*
X8935593Y14852136D01*
X8935596Y14852135D01*
X8938998Y14851020D01*
X9210738Y14803838D01*
X9261160Y14801328D01*
X9296644Y14799561D01*
X9296657Y14799561D01*
X9297876Y14799500D01*
X9470070Y14799500D01*
X9675083Y14814375D01*
X9705490Y14821088D01*
X9940904Y14873063D01*
X9940910Y14873065D01*
X9944403Y14873836D01*
X9947752Y14875105D01*
X9947756Y14875106D01*
X10110951Y14936935D01*
X10202319Y14971551D01*
X10443428Y15105475D01*
X10662678Y15272802D01*
X10855477Y15470026D01*
X10857871Y15473314D01*
X10884509Y15509911D01*
X49145427Y15509911D01*
X49161847Y15314357D01*
X49163585Y15304889D01*
X49217674Y15116257D01*
X49221225Y15107289D01*
X49310921Y14932760D01*
X49316143Y14924658D01*
X49317753Y14922626D01*
X49328865Y14915244D01*
X49331076Y14915337D01*
X49335037Y14917880D01*
X49906071Y15488914D01*
X49911313Y15499203D01*
X50487875Y15499203D01*
X50488671Y15494172D01*
X51061528Y14921315D01*
X51072383Y14915784D01*
X51079791Y14922863D01*
X51161471Y15066647D01*
X51165392Y15075454D01*
X51227334Y15261654D01*
X51229469Y15271056D01*
X51254322Y15467788D01*
X51254709Y15473314D01*
X51255043Y15497240D01*
X51254812Y15502739D01*
X51235459Y15700123D01*
X51233590Y15709561D01*
X51176869Y15897428D01*
X51173200Y15906332D01*
X51100404Y16043239D01*
X51095389Y16071678D01*
X51087883Y16075412D01*
X51072069Y16085603D01*
X51069489Y16085458D01*
X51066076Y16083233D01*
X50493929Y15511086D01*
X50487875Y15499203D01*
X49911313Y15499203D01*
X49912125Y15500797D01*
X49911329Y15505828D01*
X49337556Y16079601D01*
X49326914Y16085023D01*
X49319300Y16077645D01*
X49232573Y15919889D01*
X49228773Y15911024D01*
X49169439Y15723979D01*
X49167435Y15714551D01*
X49145561Y15519539D01*
X49145427Y15509911D01*
X10884509Y15509911D01*
X11015682Y15690124D01*
X11017787Y15693016D01*
X11034078Y15723979D01*
X11132486Y15911024D01*
X11146206Y15937101D01*
X11238045Y16197168D01*
X11272422Y16371584D01*
X49614838Y16371584D01*
X49614956Y16369189D01*
X49617341Y16365502D01*
X50188914Y15793929D01*
X50200797Y15787875D01*
X50205828Y15788671D01*
X50779929Y16362772D01*
X50785983Y16374655D01*
X50785600Y16377078D01*
X50613114Y16470340D01*
X50604243Y16474069D01*
X50416774Y16532101D01*
X50407342Y16534037D01*
X50212182Y16554549D01*
X50202544Y16554616D01*
X50007117Y16536832D01*
X49997654Y16535026D01*
X49809407Y16479622D01*
X49800466Y16476009D01*
X49626573Y16385101D01*
X49621519Y16381793D01*
X49614838Y16371584D01*
X11272422Y16371584D01*
X11291380Y16467768D01*
X11305094Y16743233D01*
X11304754Y16746795D01*
X11304754Y16746802D01*
X11279239Y17014221D01*
X11279238Y17014225D01*
X11278898Y17017792D01*
X11213343Y17285694D01*
X11109801Y17541326D01*
X11048052Y17646787D01*
X10972253Y17776242D01*
X10970442Y17779335D01*
X10798184Y17994732D01*
X10596636Y18183008D01*
X10370021Y18340216D01*
X10366816Y18341811D01*
X10366810Y18341814D01*
X10126301Y18461466D01*
X10126296Y18461468D01*
X10123086Y18463065D01*
X10119675Y18464183D01*
X10119673Y18464184D01*
X9864407Y18547864D01*
X9864404Y18547865D01*
X9861002Y18548980D01*
X9589262Y18596162D01*
X9538840Y18598672D01*
X9503356Y18600439D01*
X9503343Y18600439D01*
X9502124Y18600500D01*
X9329930Y18600500D01*
X9124917Y18585625D01*
X9121406Y18584850D01*
X9121407Y18584850D01*
X8859096Y18526937D01*
X8859090Y18526935D01*
X8855597Y18526164D01*
X8852248Y18524895D01*
X8852244Y18524894D01*
X8840871Y18520585D01*
X8597681Y18428449D01*
X8356572Y18294525D01*
X8137322Y18127198D01*
X7944523Y17929974D01*
X7942414Y17927077D01*
X7942411Y17927073D01*
X7784318Y17709876D01*
X7782213Y17706984D01*
X7780549Y17703821D01*
X7780547Y17703818D01*
X7713757Y17576871D01*
X7653794Y17462899D01*
X7561955Y17202832D01*
X7508620Y16932232D01*
X7494906Y16656767D01*
X6000000Y16656767D01*
X6000000Y20474037D01*
X37744757Y20474037D01*
X37749846Y20413431D01*
X37756523Y20333922D01*
X37761175Y20278517D01*
X37762508Y20273869D01*
X37762508Y20273868D01*
X37803386Y20131312D01*
X37815258Y20089909D01*
X37817473Y20085599D01*
X37902731Y19919704D01*
X37902734Y19919700D01*
X37904944Y19915399D01*
X38026818Y19761631D01*
X38030505Y19758493D01*
X38030507Y19758491D01*
X38172550Y19637603D01*
X38172555Y19637600D01*
X38176238Y19634465D01*
X38180460Y19632105D01*
X38180465Y19632102D01*
X38221838Y19608980D01*
X38347513Y19538743D01*
X38448549Y19505914D01*
X38529513Y19479607D01*
X38529516Y19479606D01*
X38534118Y19478111D01*
X38728946Y19454879D01*
X38733768Y19455250D01*
X38733771Y19455250D01*
X38919748Y19469560D01*
X38919753Y19469561D01*
X38924576Y19469932D01*
X39113556Y19522697D01*
X39117869Y19524876D01*
X39117875Y19524878D01*
X39284368Y19608980D01*
X39284370Y19608982D01*
X39288689Y19611163D01*
X39294892Y19616009D01*
X39439487Y19728978D01*
X39439491Y19728982D01*
X39443303Y19731960D01*
X39467904Y19760460D01*
X39568345Y19876823D01*
X39568347Y19876825D01*
X39571509Y19880489D01*
X39574756Y19886204D01*
X39666036Y20046885D01*
X39666037Y20046888D01*
X39668425Y20051091D01*
X39679905Y20085599D01*
X39728831Y20232677D01*
X39728831Y20232679D01*
X39730358Y20237268D01*
X39754949Y20431929D01*
X39755341Y20460000D01*
X39754438Y20469217D01*
X39745060Y20564853D01*
X39736194Y20655272D01*
X39679484Y20843106D01*
X39587370Y21016347D01*
X39572002Y21035191D01*
X39466422Y21164645D01*
X39466421Y21164646D01*
X39463361Y21168398D01*
X39371145Y21244685D01*
X39315907Y21290382D01*
X39315906Y21290383D01*
X39312180Y21293465D01*
X39139585Y21386787D01*
X38952152Y21444807D01*
X38947342Y21445313D01*
X38947340Y21445313D01*
X38761835Y21464811D01*
X38761833Y21464811D01*
X38757019Y21465317D01*
X38692891Y21459481D01*
X38566438Y21447973D01*
X38566435Y21447972D01*
X38561618Y21447534D01*
X38556976Y21446168D01*
X38556972Y21446167D01*
X38378040Y21393504D01*
X38378037Y21393503D01*
X38373393Y21392136D01*
X38199512Y21301233D01*
X38195743Y21298203D01*
X38195742Y21298202D01*
X38186016Y21290382D01*
X38046600Y21178289D01*
X38020186Y21146810D01*
X37923589Y21031690D01*
X37923586Y21031686D01*
X37920480Y21027984D01*
X37825956Y20856046D01*
X37824492Y20851432D01*
X37824491Y20851429D01*
X37792316Y20750000D01*
X37766628Y20669022D01*
X37766088Y20664210D01*
X37766088Y20664209D01*
X37748516Y20507547D01*
X37744757Y20474037D01*
X6000000Y20474037D01*
X6000000Y20500000D01*
X5750000Y20750000D01*
X5000000Y20750000D01*
X5000000Y20741757D01*
X4996996Y20737623D01*
X4947496Y20701660D01*
X4886609Y20701564D01*
X3968704Y20996604D01*
X3919092Y21032411D01*
X3900000Y21090855D01*
X3900000Y23067264D01*
X7595070Y23067264D01*
X7595246Y23063598D01*
X7595246Y23063596D01*
X7605661Y22846757D01*
X7607909Y22799959D01*
X7645945Y22608742D01*
X7654454Y22565965D01*
X7660118Y22537488D01*
X7661358Y22534033D01*
X7661359Y22534031D01*
X7700613Y22424701D01*
X7750549Y22285617D01*
X7877215Y22049879D01*
X7879414Y22046934D01*
X7879416Y22046931D01*
X7932388Y21975994D01*
X8037335Y21835453D01*
X8039953Y21832858D01*
X8221487Y21652902D01*
X8227390Y21647050D01*
X8443205Y21488808D01*
X8680039Y21364203D01*
X8683510Y21362991D01*
X8683512Y21362990D01*
X8771927Y21332114D01*
X8932690Y21275974D01*
X9195606Y21226057D01*
X9329310Y21220804D01*
X9459343Y21215695D01*
X9459346Y21215695D01*
X9463013Y21215551D01*
X9599669Y21230517D01*
X9725394Y21244286D01*
X9725397Y21244287D01*
X9729035Y21244685D01*
X9987829Y21312820D01*
X9991204Y21314270D01*
X9991207Y21314271D01*
X10111412Y21365915D01*
X10233710Y21418458D01*
X10236827Y21420387D01*
X10236833Y21420390D01*
X10458149Y21557345D01*
X10458154Y21557349D01*
X10461275Y21559280D01*
X10665526Y21732191D01*
X10756085Y21835453D01*
X10839550Y21930626D01*
X10839554Y21930631D01*
X10841976Y21933393D01*
X10935468Y22078743D01*
X10984757Y22155372D01*
X10984758Y22155373D01*
X10986747Y22158466D01*
X11037873Y22271960D01*
X11095153Y22399118D01*
X11095154Y22399120D01*
X11096661Y22402466D01*
X11112911Y22460083D01*
X11123428Y22497373D01*
X11157421Y22548247D01*
X11218711Y22569500D01*
X11488693Y22569500D01*
X11500329Y22568814D01*
X11535630Y22564636D01*
X11542906Y22565965D01*
X11542909Y22565965D01*
X11573608Y22571572D01*
X11593750Y22575251D01*
X11596796Y22575758D01*
X11655282Y22584551D01*
X11661795Y22587679D01*
X11668893Y22588975D01*
X11721302Y22616199D01*
X11724082Y22617588D01*
X11770728Y22639987D01*
X11770731Y22639989D01*
X11777399Y22643191D01*
X11781841Y22647297D01*
X11784101Y22648820D01*
X11789108Y22651421D01*
X11794148Y22655725D01*
X11831780Y22693357D01*
X11834583Y22696051D01*
X11871444Y22730124D01*
X11871446Y22730127D01*
X11876876Y22735146D01*
X11880398Y22741210D01*
X11886958Y22748535D01*
X11895484Y22757061D01*
X11904197Y22764803D01*
X11926299Y22782227D01*
X11932110Y22786808D01*
X11965714Y22835429D01*
X11967490Y22837915D01*
X11995192Y22875421D01*
X12044972Y22910993D01*
X12106156Y22910512D01*
X12152410Y22878095D01*
X12179507Y22843908D01*
X12240677Y22766730D01*
X12244357Y22763598D01*
X12244359Y22763596D01*
X12283689Y22730124D01*
X12397564Y22633209D01*
X12401787Y22630849D01*
X12401791Y22630846D01*
X12484627Y22584551D01*
X12577398Y22532703D01*
X12581996Y22531209D01*
X12768724Y22470537D01*
X12768726Y22470536D01*
X12773329Y22469041D01*
X12977894Y22444649D01*
X12982716Y22445020D01*
X12982719Y22445020D01*
X13050541Y22450239D01*
X13183300Y22460454D01*
X13381725Y22515855D01*
X13386038Y22518034D01*
X13386044Y22518036D01*
X13561289Y22606559D01*
X13561291Y22606560D01*
X13565610Y22608742D01*
X13569427Y22611724D01*
X13724135Y22732594D01*
X13724139Y22732598D01*
X13727951Y22735576D01*
X13734391Y22743036D01*
X13810398Y22831093D01*
X13862564Y22891528D01*
X13867093Y22899500D01*
X13961934Y23066450D01*
X13961935Y23066453D01*
X13964323Y23070656D01*
X13974276Y23100574D01*
X14027824Y23261546D01*
X14027824Y23261548D01*
X14029351Y23266137D01*
X14033070Y23295571D01*
X14054823Y23467772D01*
X14055171Y23470526D01*
X14055583Y23500000D01*
X14050990Y23546848D01*
X14035952Y23700220D01*
X14035951Y23700224D01*
X14035480Y23705030D01*
X13975935Y23902251D01*
X13879218Y24084151D01*
X13749011Y24243800D01*
X13740945Y24250473D01*
X13594002Y24372035D01*
X13594000Y24372036D01*
X13590275Y24375118D01*
X13409055Y24473103D01*
X13288232Y24510504D01*
X13216875Y24532593D01*
X13216871Y24532594D01*
X13212254Y24534023D01*
X13207446Y24534528D01*
X13207443Y24534529D01*
X13012185Y24555051D01*
X13012183Y24555051D01*
X13007369Y24555557D01*
X12947354Y24550095D01*
X12807022Y24537325D01*
X12807017Y24537324D01*
X12802203Y24536886D01*
X12604572Y24478720D01*
X12600288Y24476481D01*
X12600287Y24476480D01*
X12549632Y24449998D01*
X12422002Y24383274D01*
X12418231Y24380242D01*
X12265220Y24257219D01*
X12265217Y24257217D01*
X12261447Y24254185D01*
X12258333Y24250474D01*
X12258332Y24250473D01*
X12132139Y24100083D01*
X12132136Y24100079D01*
X12129024Y24096370D01*
X12126692Y24092127D01*
X12126690Y24092125D01*
X12077038Y24001807D01*
X12032435Y23959922D01*
X11990283Y23950500D01*
X11971966Y23950500D01*
X11960330Y23951186D01*
X11958793Y23951368D01*
X11925029Y23955364D01*
X11917753Y23954035D01*
X11917749Y23954035D01*
X11866913Y23944750D01*
X11863845Y23944239D01*
X11816834Y23937171D01*
X11805378Y23935449D01*
X11798865Y23932321D01*
X11791767Y23931025D01*
X11757996Y23913483D01*
X11739342Y23903793D01*
X11736576Y23902410D01*
X11683261Y23876809D01*
X11678821Y23872705D01*
X11676558Y23871180D01*
X11671551Y23868579D01*
X11666512Y23864275D01*
X11628880Y23826643D01*
X11626077Y23823949D01*
X11589216Y23789876D01*
X11589214Y23789873D01*
X11583784Y23784854D01*
X11580262Y23778790D01*
X11573702Y23771465D01*
X11304516Y23502279D01*
X11295811Y23494544D01*
X11292273Y23491754D01*
X11230982Y23470500D01*
X11223268Y23470500D01*
X11165077Y23489407D01*
X11129113Y23538907D01*
X11128591Y23540811D01*
X11128540Y23540795D01*
X11127465Y23544312D01*
X11126655Y23547891D01*
X11112514Y23584256D01*
X11030992Y23793889D01*
X11029662Y23797309D01*
X10925038Y23980363D01*
X10898693Y24026457D01*
X10896868Y24029650D01*
X10868728Y24065346D01*
X10762350Y24200285D01*
X10731190Y24239811D01*
X10728517Y24242325D01*
X10728512Y24242331D01*
X10578685Y24383274D01*
X10536269Y24423175D01*
X10316385Y24575714D01*
X10076371Y24694076D01*
X9821497Y24775662D01*
X9817880Y24776251D01*
X9817876Y24776252D01*
X9560983Y24818089D01*
X9560978Y24818089D01*
X9557364Y24818678D01*
X9553699Y24818726D01*
X9453651Y24820036D01*
X9289774Y24822181D01*
X9286146Y24821687D01*
X9286142Y24821687D01*
X9157190Y24804137D01*
X9024605Y24786093D01*
X8767683Y24711208D01*
X8524652Y24599169D01*
X8521585Y24597158D01*
X8521581Y24597156D01*
X8303918Y24454449D01*
X8300851Y24452438D01*
X8298119Y24449999D01*
X8298117Y24449998D01*
X8209043Y24370496D01*
X8101197Y24274240D01*
X8098850Y24271418D01*
X8098849Y24271417D01*
X7956699Y24100500D01*
X7930075Y24068488D01*
X7791244Y23839702D01*
X7687755Y23592909D01*
X7621881Y23333530D01*
X7595070Y23067264D01*
X3900000Y23067264D01*
X3900000Y26555354D01*
X7599500Y26555354D01*
X7602618Y26529154D01*
X7648061Y26426847D01*
X7654529Y26420390D01*
X7654530Y26420389D01*
X7670149Y26404797D01*
X7727287Y26347759D01*
X7735645Y26344064D01*
X7822864Y26305504D01*
X7822866Y26305504D01*
X7829673Y26302494D01*
X7837067Y26301632D01*
X7852378Y26299847D01*
X7855354Y26299500D01*
X10944646Y26299500D01*
X10962561Y26301632D01*
X10963469Y26301740D01*
X10963470Y26301740D01*
X10970846Y26302618D01*
X11073153Y26348061D01*
X11090679Y26365617D01*
X11137745Y26412766D01*
X11152241Y26427287D01*
X11177964Y26485470D01*
X11194496Y26522864D01*
X11194496Y26522866D01*
X11197506Y26529673D01*
X11200500Y26555354D01*
X11200500Y27757389D01*
X31294394Y27757389D01*
X31295049Y27751456D01*
X31295049Y27751452D01*
X31312258Y27595578D01*
X31312999Y27588865D01*
X31371266Y27429644D01*
X31374591Y27424695D01*
X31374592Y27424694D01*
X31411041Y27370452D01*
X31465830Y27288917D01*
X31591233Y27174809D01*
X31596482Y27171959D01*
X31733605Y27097508D01*
X31740235Y27093908D01*
X31788842Y27081156D01*
X31804623Y27077016D01*
X31849504Y27051261D01*
X34292965Y24607800D01*
X34301503Y24598063D01*
X34321719Y24571717D01*
X34394520Y24515855D01*
X34447160Y24475463D01*
X34564955Y24426670D01*
X34579464Y24420661D01*
X34593239Y24414955D01*
X34750001Y24394317D01*
X34782929Y24398652D01*
X34795850Y24399499D01*
X36710258Y24399499D01*
X36768449Y24380592D01*
X36780262Y24370503D01*
X38539040Y22611724D01*
X40292967Y20857797D01*
X40301499Y20848068D01*
X40321718Y20821718D01*
X40353213Y20797551D01*
X40353214Y20797550D01*
X40447159Y20725464D01*
X40593238Y20664956D01*
X40750000Y20644318D01*
X40782928Y20648653D01*
X40795849Y20649500D01*
X44204151Y20649500D01*
X44217072Y20648653D01*
X44250000Y20644318D01*
X44282928Y20648653D01*
X44289361Y20649500D01*
X44319745Y20653500D01*
X44406762Y20664956D01*
X44552841Y20725464D01*
X44613612Y20772095D01*
X44678282Y20821718D01*
X44698498Y20848064D01*
X44707036Y20857801D01*
X47169865Y23320630D01*
X47224382Y23348407D01*
X47284814Y23338836D01*
X47328079Y23295571D01*
X47332839Y23284649D01*
X47369216Y23185244D01*
X47369218Y23185239D01*
X47371266Y23179644D01*
X47465830Y23038917D01*
X47591233Y22924809D01*
X47740235Y22843908D01*
X47772586Y22835421D01*
X47898464Y22802397D01*
X47898468Y22802396D01*
X47904233Y22800884D01*
X47910194Y22800790D01*
X47910197Y22800790D01*
X47988965Y22799553D01*
X48073760Y22798221D01*
X48079575Y22799553D01*
X48079577Y22799553D01*
X48233206Y22834738D01*
X48233209Y22834739D01*
X48239029Y22836072D01*
X48254610Y22843908D01*
X48344153Y22888944D01*
X48388636Y22899500D01*
X48550500Y22899500D01*
X48608691Y22880593D01*
X48644655Y22831093D01*
X48649500Y22800500D01*
X48649500Y19213847D01*
X48648653Y19200926D01*
X48644318Y19167998D01*
X48649500Y19128637D01*
X48664956Y19011236D01*
X48725464Y18865157D01*
X48821718Y18739716D01*
X48826871Y18735762D01*
X48848064Y18719500D01*
X48857801Y18710962D01*
X49960962Y17607801D01*
X49969500Y17598064D01*
X49989716Y17571718D01*
X50115157Y17475464D01*
X50261236Y17414956D01*
X50417998Y17394318D01*
X50450926Y17398653D01*
X50463847Y17399500D01*
X50960257Y17399500D01*
X51018448Y17380593D01*
X51030261Y17370504D01*
X51263632Y17137133D01*
X51291409Y17082616D01*
X51281838Y17022184D01*
X51274631Y17010214D01*
X51203113Y16908453D01*
X51141524Y16750487D01*
X51140745Y16744572D01*
X51140745Y16744571D01*
X51135737Y16706526D01*
X51119394Y16582389D01*
X51120049Y16576456D01*
X51120049Y16576452D01*
X51134323Y16447159D01*
X51137999Y16413865D01*
X51196266Y16254644D01*
X51209431Y16235053D01*
X51223681Y16213846D01*
X51234510Y16175828D01*
X51269987Y16144935D01*
X51290830Y16113917D01*
X51416233Y15999809D01*
X51565235Y15918908D01*
X51600189Y15909738D01*
X51723464Y15877397D01*
X51723468Y15877396D01*
X51729233Y15875884D01*
X51735194Y15875790D01*
X51735197Y15875790D01*
X51813996Y15874553D01*
X51898760Y15873221D01*
X51904575Y15874553D01*
X51904577Y15874553D01*
X52058206Y15909738D01*
X52058209Y15909739D01*
X52064029Y15911072D01*
X52079610Y15918908D01*
X52210165Y15984571D01*
X52215498Y15987253D01*
X52220035Y15991128D01*
X52220038Y15991130D01*
X52339888Y16093492D01*
X52339891Y16093495D01*
X52344423Y16097366D01*
X52356596Y16114306D01*
X52439877Y16230204D01*
X52439878Y16230206D01*
X52443361Y16235053D01*
X52502518Y16382208D01*
X52504377Y16386833D01*
X52504378Y16386835D01*
X52506601Y16392366D01*
X52508704Y16407142D01*
X52520873Y16442385D01*
X52524536Y16447159D01*
X52585044Y16593238D01*
X52593408Y16656767D01*
X52605682Y16750000D01*
X52601347Y16782928D01*
X52600500Y16795849D01*
X52600500Y17204151D01*
X52601347Y17217073D01*
X52604835Y17243567D01*
X52605682Y17250000D01*
X52585044Y17406762D01*
X52524536Y17552841D01*
X52520590Y17557983D01*
X52520588Y17557987D01*
X52452450Y17646785D01*
X52452449Y17646787D01*
X52432233Y17673134D01*
X52432229Y17673138D01*
X52428282Y17678282D01*
X52401936Y17698498D01*
X52392199Y17707036D01*
X51707038Y18392197D01*
X51698499Y18401935D01*
X51682233Y18423134D01*
X51682229Y18423138D01*
X51678282Y18428282D01*
X51552841Y18524536D01*
X51492351Y18549592D01*
X51438505Y18571896D01*
X51391979Y18611633D01*
X51377696Y18671128D01*
X51384535Y18700286D01*
X51429377Y18811833D01*
X51429378Y18811835D01*
X51431601Y18817366D01*
X51455490Y18985222D01*
X51455645Y19000000D01*
X51435276Y19168320D01*
X51375345Y19326923D01*
X51367912Y19337738D01*
X51350500Y19393813D01*
X51350500Y20851560D01*
X58194770Y20851560D01*
X58197340Y20812349D01*
X58208298Y20645165D01*
X58209200Y20631396D01*
X58210316Y20627003D01*
X58210316Y20627001D01*
X58239355Y20512661D01*
X58263511Y20417548D01*
X58355883Y20217179D01*
X58483222Y20036998D01*
X58641264Y19883039D01*
X58824717Y19760460D01*
X59027436Y19673365D01*
X59105165Y19655777D01*
X59238206Y19625672D01*
X59238211Y19625671D01*
X59242632Y19624671D01*
X59352865Y19620340D01*
X59458565Y19616187D01*
X59458566Y19616187D01*
X59463098Y19616009D01*
X59681452Y19647669D01*
X59685751Y19649128D01*
X59685754Y19649129D01*
X59886078Y19717130D01*
X59890379Y19718590D01*
X59908929Y19728978D01*
X60078925Y19824181D01*
X60082884Y19826398D01*
X60252518Y19967482D01*
X60393602Y20137116D01*
X60470187Y20273868D01*
X60499192Y20325660D01*
X60499193Y20325662D01*
X60501410Y20329621D01*
X60537081Y20434704D01*
X60570871Y20534246D01*
X60570872Y20534249D01*
X60572331Y20538548D01*
X60585156Y20627001D01*
X60603571Y20754003D01*
X60603571Y20754009D01*
X60603991Y20756902D01*
X60604548Y20778153D01*
X60605567Y20817086D01*
X60605567Y20817091D01*
X60605643Y20820000D01*
X60604357Y20834003D01*
X60589415Y20996604D01*
X60585454Y21039711D01*
X60547416Y21174586D01*
X60526799Y21247689D01*
X60526798Y21247690D01*
X60525565Y21252064D01*
X60523557Y21256136D01*
X60523555Y21256141D01*
X60429988Y21445875D01*
X60427980Y21449947D01*
X60295967Y21626733D01*
X60133949Y21776501D01*
X60044629Y21832858D01*
X59951187Y21891815D01*
X59947350Y21894236D01*
X59742421Y21975994D01*
X59526024Y22019038D01*
X59417347Y22020461D01*
X59309946Y22021867D01*
X59309941Y22021867D01*
X59305406Y22021926D01*
X59300933Y22021157D01*
X59300928Y22021157D01*
X59092435Y21985332D01*
X59092429Y21985330D01*
X59087957Y21984562D01*
X59060176Y21974313D01*
X58885220Y21909769D01*
X58885217Y21909768D01*
X58880957Y21908196D01*
X58877054Y21905874D01*
X58877052Y21905873D01*
X58857492Y21894236D01*
X58691341Y21795386D01*
X58687926Y21792391D01*
X58687923Y21792389D01*
X58622427Y21734950D01*
X58525457Y21649910D01*
X58522649Y21646348D01*
X58454011Y21559280D01*
X58388863Y21476640D01*
X58386749Y21472622D01*
X58294982Y21298202D01*
X58286131Y21281380D01*
X58268953Y21226057D01*
X58226972Y21090855D01*
X58220703Y21070667D01*
X58220169Y21066157D01*
X58220169Y21066156D01*
X58217039Y21039711D01*
X58194770Y20851560D01*
X51350500Y20851560D01*
X51350500Y24454143D01*
X51351347Y24467066D01*
X51355683Y24500000D01*
X51358501Y24499629D01*
X51373743Y24546539D01*
X51423243Y24582503D01*
X51484429Y24582503D01*
X51502132Y24574768D01*
X51577398Y24532703D01*
X51581996Y24531209D01*
X51768724Y24470537D01*
X51768726Y24470536D01*
X51773329Y24469041D01*
X51977894Y24444649D01*
X51982716Y24445020D01*
X51982719Y24445020D01*
X52050541Y24450239D01*
X52183300Y24460454D01*
X52381725Y24515855D01*
X52386038Y24518034D01*
X52386044Y24518036D01*
X52561289Y24606559D01*
X52561291Y24606560D01*
X52565610Y24608742D01*
X52596927Y24633209D01*
X52724135Y24732594D01*
X52724139Y24732598D01*
X52727951Y24735576D01*
X52862564Y24891528D01*
X52941245Y25030031D01*
X52980787Y25066172D01*
X52980067Y25067298D01*
X52986005Y25071095D01*
X52992428Y25074016D01*
X53008341Y25087728D01*
X53028495Y25105093D01*
X53034716Y25110033D01*
X53036606Y25111414D01*
X53046336Y25118522D01*
X53057800Y25129986D01*
X53063181Y25134981D01*
X53095693Y25162995D01*
X53095694Y25162996D01*
X53101037Y25167600D01*
X53105711Y25174811D01*
X53118782Y25190968D01*
X53399063Y25471249D01*
X53453580Y25499026D01*
X53515162Y25488859D01*
X53600039Y25444203D01*
X53603510Y25442991D01*
X53603512Y25442990D01*
X53666173Y25421108D01*
X53852690Y25355974D01*
X54115606Y25306057D01*
X54249309Y25300804D01*
X54379343Y25295695D01*
X54379346Y25295695D01*
X54383013Y25295551D01*
X54519669Y25310517D01*
X54645394Y25324286D01*
X54645397Y25324287D01*
X54649035Y25324685D01*
X54907829Y25392820D01*
X54911204Y25394270D01*
X54911207Y25394271D01*
X55090379Y25471249D01*
X55153710Y25498458D01*
X55156827Y25500387D01*
X55156833Y25500390D01*
X55250513Y25558361D01*
X57600000Y25558361D01*
X57600346Y25552515D01*
X57602234Y25536647D01*
X57606128Y25522481D01*
X57644770Y25435486D01*
X57654946Y25420679D01*
X57721108Y25354633D01*
X57735931Y25344483D01*
X57822980Y25306000D01*
X57837185Y25302127D01*
X57852580Y25300332D01*
X57858292Y25300000D01*
X59184320Y25300000D01*
X59197005Y25304122D01*
X59200000Y25308243D01*
X59200000Y25315680D01*
X59600000Y25315680D01*
X59604122Y25302995D01*
X59608243Y25300000D01*
X60941639Y25300000D01*
X60947485Y25300346D01*
X60963353Y25302234D01*
X60977519Y25306128D01*
X61064514Y25344770D01*
X61079321Y25354946D01*
X61145367Y25421108D01*
X61155517Y25435931D01*
X61194000Y25522980D01*
X61197873Y25537185D01*
X61199668Y25552580D01*
X61200000Y25558292D01*
X61200000Y26884320D01*
X61195878Y26897005D01*
X61191757Y26900000D01*
X59615680Y26900000D01*
X59602995Y26895878D01*
X59600000Y26891757D01*
X59600000Y25315680D01*
X59200000Y25315680D01*
X59200000Y26884320D01*
X59195878Y26897005D01*
X59191757Y26900000D01*
X57615680Y26900000D01*
X57602995Y26895878D01*
X57600000Y26891757D01*
X57600000Y25558361D01*
X55250513Y25558361D01*
X55378149Y25637345D01*
X55378154Y25637349D01*
X55381275Y25639280D01*
X55423595Y25675106D01*
X55537520Y25771551D01*
X55585526Y25812191D01*
X55682816Y25923129D01*
X55759550Y26010626D01*
X55759554Y26010631D01*
X55761976Y26013393D01*
X55883818Y26202818D01*
X55904757Y26235372D01*
X55904758Y26235373D01*
X55906747Y26238466D01*
X55928862Y26287558D01*
X56015153Y26479118D01*
X56015154Y26479120D01*
X56016661Y26482466D01*
X56019418Y26492241D01*
X56088305Y26736495D01*
X56088306Y26736498D01*
X56089302Y26740031D01*
X56123075Y27005505D01*
X56125549Y27100000D01*
X56111809Y27284900D01*
X56109522Y27315680D01*
X57600000Y27315680D01*
X57604122Y27302995D01*
X57608243Y27300000D01*
X59184320Y27300000D01*
X59197005Y27304122D01*
X59200000Y27308243D01*
X59200000Y27315680D01*
X59600000Y27315680D01*
X59604122Y27302995D01*
X59608243Y27300000D01*
X61184320Y27300000D01*
X61197005Y27304122D01*
X61200000Y27308243D01*
X61200000Y28641639D01*
X61199654Y28647485D01*
X61197766Y28663353D01*
X61193872Y28677519D01*
X61155230Y28764514D01*
X61145054Y28779321D01*
X61078892Y28845367D01*
X61064069Y28855517D01*
X60977020Y28894000D01*
X60962815Y28897873D01*
X60947420Y28899668D01*
X60941708Y28900000D01*
X59615680Y28900000D01*
X59602995Y28895878D01*
X59600000Y28891757D01*
X59600000Y27315680D01*
X59200000Y27315680D01*
X59200000Y28884320D01*
X59195878Y28897005D01*
X59191757Y28900000D01*
X57858361Y28900000D01*
X57852515Y28899654D01*
X57836647Y28897766D01*
X57822481Y28893872D01*
X57735486Y28855230D01*
X57720679Y28845054D01*
X57654633Y28778892D01*
X57644483Y28764069D01*
X57606000Y28677020D01*
X57602127Y28662815D01*
X57600332Y28647420D01*
X57600000Y28641708D01*
X57600000Y27315680D01*
X56109522Y27315680D01*
X56105989Y27363223D01*
X56105988Y27363229D01*
X56105717Y27366877D01*
X56046655Y27627891D01*
X56031026Y27668083D01*
X55950992Y27873889D01*
X55949662Y27877309D01*
X55816868Y28109650D01*
X55788728Y28145346D01*
X55653469Y28316920D01*
X55651190Y28319811D01*
X55648517Y28322325D01*
X55648512Y28322331D01*
X55458941Y28500661D01*
X55456269Y28503175D01*
X55236385Y28655714D01*
X54996371Y28774076D01*
X54942851Y28791208D01*
X54744993Y28854543D01*
X54744992Y28854543D01*
X54741497Y28855662D01*
X54737880Y28856251D01*
X54737876Y28856252D01*
X54480983Y28898089D01*
X54480978Y28898089D01*
X54477364Y28898678D01*
X54473699Y28898726D01*
X54373651Y28900036D01*
X54209774Y28902181D01*
X54206146Y28901687D01*
X54206142Y28901687D01*
X54078534Y28884320D01*
X53944605Y28866093D01*
X53687683Y28791208D01*
X53444652Y28679169D01*
X53441585Y28677158D01*
X53441581Y28677156D01*
X53287663Y28576242D01*
X53220851Y28532438D01*
X53218119Y28529999D01*
X53218117Y28529998D01*
X53085226Y28411388D01*
X53021197Y28354240D01*
X53018850Y28351418D01*
X53018849Y28351417D01*
X52902675Y28211733D01*
X52850075Y28148488D01*
X52711244Y27919702D01*
X52607755Y27672909D01*
X52606852Y27669352D01*
X52606427Y27668083D01*
X52570030Y27618900D01*
X52512544Y27600500D01*
X49177204Y27600500D01*
X49164503Y27601919D01*
X49164501Y27601897D01*
X49157469Y27602463D01*
X49150591Y27604019D01*
X49099431Y27600845D01*
X49096936Y27600690D01*
X49090805Y27600500D01*
X49074098Y27600500D01*
X49070611Y27600001D01*
X49070603Y27600000D01*
X49062917Y27598899D01*
X49055014Y27598089D01*
X49014537Y27595578D01*
X49014534Y27595577D01*
X49007500Y27595141D01*
X49000871Y27592748D01*
X49000867Y27592747D01*
X48997851Y27591658D01*
X48978275Y27586777D01*
X48977083Y27586606D01*
X48975102Y27586323D01*
X48975101Y27586323D01*
X48968120Y27585323D01*
X48961701Y27582404D01*
X48961696Y27582403D01*
X48924781Y27565619D01*
X48917423Y27562623D01*
X48872651Y27546460D01*
X48864366Y27540408D01*
X48846952Y27530232D01*
X48837610Y27525984D01*
X48832266Y27521379D01*
X48801543Y27494907D01*
X48795322Y27489967D01*
X48783702Y27481478D01*
X48772238Y27470014D01*
X48766857Y27465019D01*
X48729001Y27432400D01*
X48725164Y27426480D01*
X48724327Y27425189D01*
X48711256Y27409032D01*
X47882284Y26580060D01*
X47827767Y26552283D01*
X47767335Y26561854D01*
X47724070Y26605119D01*
X47714499Y26665551D01*
X47724666Y26696160D01*
X47744536Y26733926D01*
X47744538Y26733931D01*
X47746206Y26737101D01*
X47838045Y26997168D01*
X47891380Y27267768D01*
X47892680Y27293870D01*
X47901885Y27478779D01*
X47905094Y27543233D01*
X47904754Y27546795D01*
X47904754Y27546802D01*
X47879239Y27814221D01*
X47879238Y27814225D01*
X47878898Y27817792D01*
X47813343Y28085694D01*
X47709801Y28341326D01*
X47570442Y28579335D01*
X47398184Y28794732D01*
X47196636Y28983008D01*
X46970021Y29140216D01*
X46966816Y29141811D01*
X46966810Y29141814D01*
X46726301Y29261466D01*
X46726296Y29261468D01*
X46723086Y29263065D01*
X46719675Y29264183D01*
X46719673Y29264184D01*
X46464407Y29347864D01*
X46464404Y29347865D01*
X46461002Y29348980D01*
X46189262Y29396162D01*
X46138840Y29398672D01*
X46103356Y29400439D01*
X46103343Y29400439D01*
X46102124Y29400500D01*
X45929930Y29400500D01*
X45724917Y29385625D01*
X45721406Y29384850D01*
X45721407Y29384850D01*
X45459096Y29326937D01*
X45459090Y29326935D01*
X45455597Y29326164D01*
X45452248Y29324895D01*
X45452244Y29324894D01*
X45348185Y29285470D01*
X45197681Y29228449D01*
X44956572Y29094525D01*
X44737322Y28927198D01*
X44544523Y28729974D01*
X44542414Y28727077D01*
X44542411Y28727073D01*
X44402204Y28534449D01*
X44382213Y28506984D01*
X44380549Y28503821D01*
X44380547Y28503818D01*
X44329074Y28405983D01*
X44253794Y28262899D01*
X44161955Y28002832D01*
X44108620Y27732232D01*
X44094906Y27456767D01*
X44095246Y27453205D01*
X44095246Y27453198D01*
X44113274Y27264252D01*
X44121102Y27182208D01*
X44186657Y26914306D01*
X44290199Y26658674D01*
X44292010Y26655581D01*
X44292011Y26655579D01*
X44400726Y26469907D01*
X44429558Y26420665D01*
X44601816Y26205268D01*
X44604439Y26202818D01*
X44799518Y26020585D01*
X44803364Y26016992D01*
X45029979Y25859784D01*
X45033184Y25858189D01*
X45033190Y25858186D01*
X45273699Y25738534D01*
X45273704Y25738532D01*
X45276914Y25736935D01*
X45280325Y25735817D01*
X45280327Y25735816D01*
X45535593Y25652136D01*
X45535596Y25652135D01*
X45538998Y25651020D01*
X45810738Y25603838D01*
X45860795Y25601346D01*
X45896644Y25599561D01*
X45896657Y25599561D01*
X45897876Y25599500D01*
X46070070Y25599500D01*
X46275083Y25614375D01*
X46343567Y25629495D01*
X46540904Y25673063D01*
X46540910Y25673065D01*
X46544403Y25673836D01*
X46547752Y25675105D01*
X46547756Y25675106D01*
X46639624Y25709912D01*
X46802319Y25771551D01*
X46803352Y25772125D01*
X46863535Y25779409D01*
X46916997Y25749654D01*
X46942760Y25694157D01*
X46930981Y25634116D01*
X46914481Y25612257D01*
X45451701Y24149477D01*
X45397184Y24121700D01*
X45381697Y24120481D01*
X41977147Y24120481D01*
X41964446Y24121900D01*
X41964444Y24121878D01*
X41957412Y24122444D01*
X41950534Y24124000D01*
X41899374Y24120826D01*
X41896879Y24120671D01*
X41890748Y24120481D01*
X41874041Y24120481D01*
X41870554Y24119982D01*
X41870546Y24119981D01*
X41862860Y24118880D01*
X41854957Y24118070D01*
X41814480Y24115559D01*
X41814477Y24115558D01*
X41807443Y24115122D01*
X41800814Y24112729D01*
X41800810Y24112728D01*
X41797794Y24111639D01*
X41778218Y24106758D01*
X41777026Y24106587D01*
X41775045Y24106304D01*
X41775044Y24106304D01*
X41768063Y24105304D01*
X41761644Y24102385D01*
X41761639Y24102384D01*
X41724724Y24085600D01*
X41717366Y24082604D01*
X41709804Y24079874D01*
X41672594Y24066441D01*
X41664309Y24060389D01*
X41646895Y24050213D01*
X41637553Y24045965D01*
X41632209Y24041360D01*
X41601486Y24014888D01*
X41595265Y24009948D01*
X41583647Y24001460D01*
X41583064Y24002257D01*
X41530385Y23980363D01*
X41501752Y23983533D01*
X41501520Y23982402D01*
X41496774Y23983376D01*
X41492152Y23984807D01*
X41487342Y23985313D01*
X41487340Y23985313D01*
X41301835Y24004811D01*
X41301833Y24004811D01*
X41297019Y24005317D01*
X41232891Y23999481D01*
X41106438Y23987973D01*
X41106435Y23987972D01*
X41101618Y23987534D01*
X41087440Y23983361D01*
X41026279Y23985069D01*
X40989484Y24008329D01*
X40390014Y24607800D01*
X39779496Y25218318D01*
X39751719Y25272835D01*
X39750500Y25288322D01*
X39750500Y26284646D01*
X39747382Y26310846D01*
X39701939Y26413153D01*
X39694691Y26420389D01*
X39641884Y26473103D01*
X39622713Y26492241D01*
X39534833Y26531093D01*
X39527136Y26534496D01*
X39527134Y26534496D01*
X39520327Y26537506D01*
X39506322Y26539139D01*
X39497494Y26540168D01*
X39497493Y26540168D01*
X39494646Y26540500D01*
X38005354Y26540500D01*
X37988951Y26538548D01*
X37986531Y26538260D01*
X37986530Y26538260D01*
X37979154Y26537382D01*
X37876847Y26491939D01*
X37870390Y26485471D01*
X37870389Y26485470D01*
X37864048Y26479118D01*
X37797759Y26412713D01*
X37784884Y26383591D01*
X37767536Y26344350D01*
X37752494Y26310327D01*
X37749500Y26284646D01*
X37749500Y25338743D01*
X37730593Y25280552D01*
X37681093Y25244588D01*
X37619907Y25244588D01*
X37580496Y25268739D01*
X37457039Y25392196D01*
X37448500Y25401934D01*
X37432234Y25423133D01*
X37432230Y25423137D01*
X37428283Y25428281D01*
X37302842Y25524535D01*
X37156763Y25585043D01*
X37025570Y25602315D01*
X37006435Y25604834D01*
X37000001Y25605681D01*
X36984863Y25603688D01*
X36967074Y25601346D01*
X36954152Y25600499D01*
X35039744Y25600499D01*
X34981553Y25619406D01*
X34969740Y25629495D01*
X32702995Y27896240D01*
X32680390Y27931250D01*
X32654672Y27999311D01*
X32625345Y28076923D01*
X32602853Y28109650D01*
X32532692Y28211733D01*
X32529312Y28216651D01*
X32402721Y28329440D01*
X32252881Y28408776D01*
X32170661Y28429428D01*
X32094231Y28448627D01*
X32094228Y28448627D01*
X32088441Y28450081D01*
X32002841Y28450529D01*
X31924861Y28450938D01*
X31924859Y28450938D01*
X31918895Y28450969D01*
X31913099Y28449577D01*
X31913095Y28449577D01*
X31805703Y28423793D01*
X31754032Y28411388D01*
X31678701Y28372507D01*
X31608675Y28336364D01*
X31608673Y28336362D01*
X31603369Y28333625D01*
X31475604Y28222169D01*
X31472173Y28217287D01*
X31472172Y28217286D01*
X31394280Y28106457D01*
X31378113Y28083453D01*
X31316524Y27925487D01*
X31294394Y27757389D01*
X11200500Y27757389D01*
X11200500Y29644646D01*
X11197382Y29670846D01*
X11151939Y29773153D01*
X11072713Y29852241D01*
X11043591Y29865116D01*
X10977136Y29894496D01*
X10977134Y29894496D01*
X10970327Y29897506D01*
X10956322Y29899139D01*
X10947494Y29900168D01*
X10947493Y29900168D01*
X10944646Y29900500D01*
X7855354Y29900500D01*
X7838951Y29898548D01*
X7836531Y29898260D01*
X7836530Y29898260D01*
X7829154Y29897382D01*
X7726847Y29851939D01*
X7647759Y29772713D01*
X7602494Y29670327D01*
X7599500Y29644646D01*
X7599500Y26555354D01*
X3900000Y26555354D01*
X3900000Y29903132D01*
X3918907Y29961323D01*
X3970553Y29997957D01*
X4626271Y30194672D01*
X5630116Y30495825D01*
X5658562Y30500000D01*
X13296580Y30500000D01*
X13300695Y30499698D01*
X13305416Y30498077D01*
X13354770Y30499930D01*
X13358485Y30500000D01*
X13377905Y30500000D01*
X13382323Y30500823D01*
X13387494Y30501158D01*
X13402367Y30501717D01*
X13417096Y30502270D01*
X13427635Y30506798D01*
X13448589Y30513164D01*
X13450883Y30513591D01*
X13450885Y30513592D01*
X13459870Y30515265D01*
X13482491Y30529209D01*
X13495361Y30535895D01*
X13513361Y30543628D01*
X13513362Y30543629D01*
X13519780Y30546386D01*
X13524650Y30550386D01*
X13529002Y30554738D01*
X13547050Y30569004D01*
X13555007Y30573909D01*
X13572636Y30597092D01*
X13581435Y30607171D01*
X14145269Y31171004D01*
X14199786Y31198781D01*
X14215273Y31200000D01*
X51704834Y31200000D01*
X51726883Y31197513D01*
X51728738Y31197089D01*
X51728739Y31197089D01*
X51737651Y31195053D01*
X51766683Y31199253D01*
X51771747Y31199853D01*
X51773338Y31200000D01*
X51777905Y31200000D01*
X51797026Y31203561D01*
X51800969Y31204213D01*
X51821078Y31207122D01*
X51848259Y31211054D01*
X51853713Y31214118D01*
X51859870Y31215265D01*
X51867646Y31220058D01*
X51867648Y31220059D01*
X51900571Y31240354D01*
X51904025Y31242388D01*
X51937725Y31261323D01*
X51945691Y31265799D01*
X51949679Y31270625D01*
X51955007Y31273909D01*
X51983934Y31311951D01*
X51986422Y31315089D01*
X52012432Y31346563D01*
X52016883Y31351949D01*
X52019388Y31357733D01*
X52019856Y31359190D01*
X52022654Y31362869D01*
X52036937Y31412193D01*
X52037776Y31414941D01*
X52137789Y31726091D01*
X52396604Y32531296D01*
X52432411Y32580908D01*
X52490855Y32600000D01*
X61303132Y32600000D01*
X61361323Y32581093D01*
G37*
G04 #@! TD.AperFunction*
G04 #@! TA.AperFunction,Conductor*
G36*
X45089429Y23100574D02*
G01*
X45125393Y23051074D01*
X45125393Y22989888D01*
X45101242Y22950477D01*
X44030261Y21879496D01*
X43975744Y21851719D01*
X43960257Y21850500D01*
X41616270Y21850500D01*
X41558079Y21869407D01*
X41522115Y21918907D01*
X41522115Y21980093D01*
X41558079Y22029593D01*
X41589647Y22044853D01*
X41597089Y22046931D01*
X41653556Y22062697D01*
X41657869Y22064876D01*
X41657875Y22064878D01*
X41824368Y22148980D01*
X41824370Y22148982D01*
X41828689Y22151163D01*
X41832506Y22154145D01*
X41979487Y22268978D01*
X41979491Y22268982D01*
X41983303Y22271960D01*
X41992290Y22282371D01*
X42108345Y22416823D01*
X42108347Y22416825D01*
X42111509Y22420489D01*
X42125445Y22445020D01*
X42206036Y22586885D01*
X42206037Y22586888D01*
X42208425Y22591091D01*
X42217018Y22616920D01*
X42268831Y22772677D01*
X42268831Y22772679D01*
X42270358Y22777268D01*
X42270985Y22782227D01*
X42288996Y22924809D01*
X42294949Y22971929D01*
X42295341Y23000000D01*
X42295073Y23002736D01*
X42295072Y23002754D01*
X42294281Y23010819D01*
X42307419Y23070578D01*
X42353173Y23111201D01*
X42392808Y23119481D01*
X45031238Y23119481D01*
X45089429Y23100574D01*
G37*
G04 #@! TD.AperFunction*
G04 #@! TD*
G04 #@! TA.AperFunction,Conductor*
G04 #@! TO.N,/R2*
G36*
X73459191Y14981093D02*
G01*
X73495155Y14931593D01*
X73500000Y14901000D01*
X73500000Y13238726D01*
X73481093Y13180535D01*
X73476626Y13177290D01*
X73488614Y13165612D01*
X73500000Y13119516D01*
X73500000Y4599000D01*
X73481093Y4540809D01*
X73431593Y4504845D01*
X73401000Y4500000D01*
X69099000Y4500000D01*
X69040809Y4518907D01*
X69004845Y4568407D01*
X69000000Y4599000D01*
X69000000Y5491708D01*
X69960380Y5491708D01*
X69960569Y5490509D01*
X69964709Y5485641D01*
X70120509Y5371405D01*
X70126718Y5367525D01*
X70356985Y5246375D01*
X70363712Y5243450D01*
X70609355Y5157668D01*
X70616421Y5155774D01*
X70872054Y5107241D01*
X70879333Y5106412D01*
X71139325Y5096197D01*
X71146645Y5096453D01*
X71405303Y5124780D01*
X71412486Y5126112D01*
X71664115Y5192360D01*
X71671045Y5194747D01*
X71910098Y5297452D01*
X71916605Y5300839D01*
X72137864Y5437758D01*
X72143775Y5442052D01*
X72192097Y5482961D01*
X72199116Y5494303D01*
X72198888Y5497365D01*
X72197094Y5500063D01*
X71091086Y6606071D01*
X71079203Y6612125D01*
X71074172Y6611329D01*
X69966434Y5503591D01*
X69960380Y5491708D01*
X69000000Y5491708D01*
X69000000Y6943583D01*
X69275748Y6943583D01*
X69288232Y6683685D01*
X69289124Y6676422D01*
X69339886Y6421221D01*
X69341843Y6414165D01*
X69429765Y6169283D01*
X69432748Y6162582D01*
X69555900Y5933386D01*
X69559839Y5927204D01*
X69663540Y5788331D01*
X69674434Y5780632D01*
X69675883Y5780651D01*
X69680974Y5783817D01*
X70786071Y6888914D01*
X70791313Y6899203D01*
X71367875Y6899203D01*
X71368671Y6894172D01*
X72476649Y5786194D01*
X72488532Y5780140D01*
X72492017Y5780692D01*
X72493951Y5782196D01*
X72519155Y5810936D01*
X72523561Y5816783D01*
X72664316Y6035613D01*
X72667818Y6042062D01*
X72774681Y6279290D01*
X72777185Y6286169D01*
X72847813Y6536596D01*
X72849274Y6543780D01*
X72882259Y6803064D01*
X72882638Y6808013D01*
X72884982Y6897508D01*
X72884863Y6902483D01*
X72865492Y7163149D01*
X72864411Y7170378D01*
X72806985Y7424165D01*
X72804845Y7431166D01*
X72710539Y7673674D01*
X72707390Y7680276D01*
X72578271Y7906187D01*
X72574182Y7912249D01*
X72496126Y8011263D01*
X72485037Y8018672D01*
X72482893Y8018588D01*
X72478830Y8015987D01*
X71373929Y6911086D01*
X71367875Y6899203D01*
X70791313Y6899203D01*
X70792125Y6900797D01*
X70791329Y6905828D01*
X69684446Y8012711D01*
X69672563Y8018765D01*
X69669761Y8018322D01*
X69666915Y8016048D01*
X69612831Y7951019D01*
X69608578Y7945057D01*
X69473599Y7722618D01*
X69470269Y7716082D01*
X69369653Y7476140D01*
X69367326Y7469187D01*
X69303280Y7217004D01*
X69302008Y7209788D01*
X69275940Y6950903D01*
X69275748Y6943583D01*
X69000000Y6943583D01*
X69000000Y8307212D01*
X69959529Y8307212D01*
X69959906Y8303470D01*
X69961058Y8301785D01*
X71068914Y7193929D01*
X71080797Y7187875D01*
X71085828Y7188671D01*
X72195414Y8298257D01*
X72201468Y8310140D01*
X72201388Y8310647D01*
X72196423Y8316333D01*
X71999148Y8453188D01*
X71992836Y8456906D01*
X71759482Y8571983D01*
X71752682Y8574731D01*
X71504882Y8654052D01*
X71497755Y8655763D01*
X71240937Y8697589D01*
X71233656Y8698226D01*
X70973469Y8701632D01*
X70966173Y8701186D01*
X70708342Y8666096D01*
X70701190Y8664576D01*
X70451386Y8591765D01*
X70444520Y8589198D01*
X70208231Y8480267D01*
X70201825Y8476716D01*
X69984226Y8334052D01*
X69978422Y8329599D01*
X69966248Y8318734D01*
X69959529Y8307212D01*
X69000000Y8307212D01*
X69000000Y9127285D01*
X70415400Y9127285D01*
X70422629Y9119773D01*
X70573373Y9035525D01*
X70582201Y9031668D01*
X70768838Y8971026D01*
X70778238Y8968959D01*
X70973103Y8945723D01*
X70982729Y8945521D01*
X71178385Y8960576D01*
X71187876Y8962250D01*
X71376882Y9015022D01*
X71385862Y9018504D01*
X71561017Y9106982D01*
X71569158Y9112148D01*
X71576928Y9118219D01*
X71584386Y9129277D01*
X71584315Y9131305D01*
X71581618Y9135539D01*
X71011086Y9706071D01*
X70999203Y9712125D01*
X70994172Y9711329D01*
X70420877Y9138034D01*
X70415400Y9127285D01*
X69000000Y9127285D01*
X69000000Y10009911D01*
X69945427Y10009911D01*
X69961847Y9814357D01*
X69963585Y9804889D01*
X70017674Y9616257D01*
X70021225Y9607289D01*
X70110921Y9432760D01*
X70116143Y9424658D01*
X70117753Y9422626D01*
X70128865Y9415244D01*
X70131076Y9415337D01*
X70135037Y9417880D01*
X70706071Y9988914D01*
X70711313Y9999203D01*
X71287875Y9999203D01*
X71288671Y9994172D01*
X71861528Y9421315D01*
X71872383Y9415784D01*
X71879791Y9422863D01*
X71961471Y9566647D01*
X71965392Y9575454D01*
X72027334Y9761654D01*
X72029469Y9771056D01*
X72054322Y9967788D01*
X72054709Y9973314D01*
X72055043Y9997240D01*
X72054812Y10002739D01*
X72035459Y10200123D01*
X72033590Y10209561D01*
X71976869Y10397428D01*
X71973199Y10406332D01*
X71881072Y10579598D01*
X71880836Y10579953D01*
X71872069Y10585603D01*
X71869489Y10585458D01*
X71866076Y10583233D01*
X71293929Y10011086D01*
X71287875Y9999203D01*
X70711313Y9999203D01*
X70712125Y10000797D01*
X70711329Y10005828D01*
X70137556Y10579601D01*
X70126914Y10585023D01*
X70119300Y10577645D01*
X70032573Y10419889D01*
X70028773Y10411024D01*
X69969439Y10223979D01*
X69967435Y10214551D01*
X69945561Y10019539D01*
X69945427Y10009911D01*
X69000000Y10009911D01*
X69000000Y10871584D01*
X70414838Y10871584D01*
X70414956Y10869189D01*
X70417341Y10865502D01*
X70988914Y10293929D01*
X71000797Y10287875D01*
X71005828Y10288671D01*
X71579929Y10862772D01*
X71585983Y10874655D01*
X71585600Y10877078D01*
X71413114Y10970340D01*
X71404243Y10974069D01*
X71216774Y11032101D01*
X71207342Y11034037D01*
X71012182Y11054549D01*
X71002544Y11054616D01*
X70807117Y11036832D01*
X70797654Y11035026D01*
X70609407Y10979622D01*
X70600466Y10976009D01*
X70426573Y10885101D01*
X70421519Y10881793D01*
X70414838Y10871584D01*
X69000000Y10871584D01*
X69000000Y12220699D01*
X71409371Y12220699D01*
X71409378Y12220654D01*
X71414901Y12214438D01*
X71521179Y12143425D01*
X71529133Y12139107D01*
X71723412Y12055638D01*
X71732024Y12052840D01*
X71938272Y12006171D01*
X71947232Y12004991D01*
X72158544Y11996689D01*
X72167556Y11997161D01*
X72376848Y12027506D01*
X72385630Y12029615D01*
X72585878Y12097590D01*
X72594134Y12101266D01*
X72778642Y12204596D01*
X72785755Y12209485D01*
X72792809Y12220664D01*
X72792624Y12223498D01*
X72790625Y12226532D01*
X72111086Y12906071D01*
X72099203Y12912125D01*
X72094172Y12911329D01*
X71415425Y12232582D01*
X71409371Y12220699D01*
X69000000Y12220699D01*
X69000000Y13227019D01*
X70895569Y13227019D01*
X70909399Y13016000D01*
X70910812Y13007079D01*
X70962866Y12802118D01*
X70965886Y12793590D01*
X71054417Y12601551D01*
X71058935Y12593726D01*
X71112805Y12517501D01*
X71123490Y12509522D01*
X71124241Y12509512D01*
X71130370Y12513213D01*
X71806071Y13188914D01*
X71811313Y13199203D01*
X72387875Y13199203D01*
X72388671Y13194172D01*
X73069504Y12513339D01*
X73081387Y12507285D01*
X73084189Y12507728D01*
X73087035Y12510003D01*
X73090286Y12513911D01*
X73095404Y12521358D01*
X73198734Y12705866D01*
X73202410Y12714122D01*
X73270385Y12914370D01*
X73272494Y12923152D01*
X73303024Y13133721D01*
X73324738Y13177752D01*
X73320907Y13180535D01*
X73302415Y13229667D01*
X73285376Y13415102D01*
X73283729Y13423988D01*
X73226328Y13627514D01*
X73223087Y13635958D01*
X73129560Y13825612D01*
X73124837Y13833320D01*
X73087759Y13882973D01*
X73076869Y13890669D01*
X73075418Y13890650D01*
X73070327Y13887484D01*
X72393929Y13211086D01*
X72387875Y13199203D01*
X71811313Y13199203D01*
X71812125Y13200797D01*
X71811329Y13205828D01*
X71131891Y13885266D01*
X71120008Y13891320D01*
X71117891Y13890985D01*
X71114161Y13887924D01*
X71092094Y13859932D01*
X71087170Y13852349D01*
X70988705Y13665198D01*
X70985251Y13656858D01*
X70922541Y13454902D01*
X70920660Y13446052D01*
X70895805Y13236052D01*
X70895569Y13227019D01*
X69000000Y13227019D01*
X69000000Y14179635D01*
X71407028Y14179635D01*
X71411724Y14171119D01*
X72088914Y13493929D01*
X72100797Y13487875D01*
X72105828Y13488671D01*
X72785534Y14168377D01*
X72791412Y14179915D01*
X72785319Y14186593D01*
X72650961Y14271367D01*
X72642907Y14275470D01*
X72446491Y14353832D01*
X72437833Y14356397D01*
X72230426Y14397653D01*
X72221433Y14398598D01*
X72009985Y14401367D01*
X72000970Y14400657D01*
X71792556Y14364845D01*
X71783832Y14362507D01*
X71585436Y14289316D01*
X71577268Y14285420D01*
X71415285Y14189050D01*
X71407028Y14179635D01*
X69000000Y14179635D01*
X69000000Y14901000D01*
X69018907Y14959191D01*
X69068407Y14995155D01*
X69099000Y15000000D01*
X73401000Y15000000D01*
X73459191Y14981093D01*
G37*
G04 #@! TD.AperFunction*
G04 #@! TD*
G04 #@! TA.AperFunction,Conductor*
G04 #@! TO.N,/R1*
G36*
X73459191Y29481093D02*
G01*
X73495155Y29431593D01*
X73500000Y29401000D01*
X73500000Y20858726D01*
X73481093Y20800535D01*
X73476626Y20797290D01*
X73488614Y20785612D01*
X73500000Y20739516D01*
X73500000Y19099000D01*
X73481093Y19040809D01*
X73431593Y19004845D01*
X73401000Y19000000D01*
X69099000Y19000000D01*
X69040809Y19018907D01*
X69004845Y19068407D01*
X69000000Y19099000D01*
X69000000Y19840699D01*
X71409371Y19840699D01*
X71409378Y19840654D01*
X71414901Y19834438D01*
X71521179Y19763425D01*
X71529133Y19759107D01*
X71723412Y19675638D01*
X71732024Y19672840D01*
X71938272Y19626171D01*
X71947232Y19624991D01*
X72158544Y19616689D01*
X72167556Y19617161D01*
X72376848Y19647506D01*
X72385630Y19649615D01*
X72585878Y19717590D01*
X72594134Y19721266D01*
X72778642Y19824596D01*
X72785755Y19829485D01*
X72792809Y19840664D01*
X72792624Y19843498D01*
X72790625Y19846532D01*
X72111086Y20526071D01*
X72099203Y20532125D01*
X72094172Y20531329D01*
X71415425Y19852582D01*
X71409371Y19840699D01*
X69000000Y19840699D01*
X69000000Y20847019D01*
X70895569Y20847019D01*
X70909399Y20636000D01*
X70910812Y20627079D01*
X70962866Y20422118D01*
X70965886Y20413590D01*
X71054417Y20221551D01*
X71058935Y20213726D01*
X71112805Y20137501D01*
X71123490Y20129522D01*
X71124241Y20129512D01*
X71130370Y20133213D01*
X71806071Y20808914D01*
X71811313Y20819203D01*
X72387875Y20819203D01*
X72388671Y20814172D01*
X73069504Y20133339D01*
X73081387Y20127285D01*
X73084189Y20127728D01*
X73087035Y20130003D01*
X73090286Y20133911D01*
X73095404Y20141358D01*
X73198734Y20325866D01*
X73202410Y20334122D01*
X73270385Y20534370D01*
X73272494Y20543152D01*
X73303024Y20753721D01*
X73324738Y20797752D01*
X73320907Y20800535D01*
X73302415Y20849667D01*
X73285376Y21035102D01*
X73283729Y21043988D01*
X73226328Y21247514D01*
X73223087Y21255958D01*
X73129560Y21445612D01*
X73124837Y21453320D01*
X73087759Y21502973D01*
X73076869Y21510669D01*
X73075418Y21510650D01*
X73070327Y21507484D01*
X72393929Y20831086D01*
X72387875Y20819203D01*
X71811313Y20819203D01*
X71812125Y20820797D01*
X71811329Y20825828D01*
X71131891Y21505266D01*
X71120008Y21511320D01*
X71117891Y21510985D01*
X71114161Y21507924D01*
X71092094Y21479932D01*
X71087170Y21472349D01*
X70988705Y21285198D01*
X70985251Y21276858D01*
X70922541Y21074902D01*
X70920660Y21066052D01*
X70895805Y20856052D01*
X70895569Y20847019D01*
X69000000Y20847019D01*
X69000000Y21799635D01*
X71407028Y21799635D01*
X71411724Y21791119D01*
X72088914Y21113929D01*
X72100797Y21107875D01*
X72105828Y21108671D01*
X72785534Y21788377D01*
X72791412Y21799915D01*
X72785319Y21806593D01*
X72650961Y21891367D01*
X72642907Y21895470D01*
X72446491Y21973832D01*
X72437833Y21976397D01*
X72230426Y22017653D01*
X72221433Y22018598D01*
X72009985Y22021367D01*
X72000970Y22020657D01*
X71792556Y21984845D01*
X71783832Y21982507D01*
X71585436Y21909316D01*
X71577268Y21905420D01*
X71415285Y21809050D01*
X71407028Y21799635D01*
X69000000Y21799635D01*
X69000000Y23127285D01*
X70415400Y23127285D01*
X70422629Y23119773D01*
X70573373Y23035525D01*
X70582201Y23031668D01*
X70768838Y22971026D01*
X70778238Y22968959D01*
X70973103Y22945723D01*
X70982729Y22945521D01*
X71178385Y22960576D01*
X71187876Y22962250D01*
X71376882Y23015022D01*
X71385862Y23018504D01*
X71561017Y23106982D01*
X71569158Y23112148D01*
X71576928Y23118219D01*
X71584386Y23129277D01*
X71584315Y23131305D01*
X71581618Y23135539D01*
X71011086Y23706071D01*
X70999203Y23712125D01*
X70994172Y23711329D01*
X70420877Y23138034D01*
X70415400Y23127285D01*
X69000000Y23127285D01*
X69000000Y24009911D01*
X69945427Y24009911D01*
X69961847Y23814357D01*
X69963585Y23804889D01*
X70017674Y23616257D01*
X70021225Y23607289D01*
X70110921Y23432760D01*
X70116143Y23424658D01*
X70117753Y23422626D01*
X70128865Y23415244D01*
X70131076Y23415337D01*
X70135037Y23417880D01*
X70706071Y23988914D01*
X70711313Y23999203D01*
X71287875Y23999203D01*
X71288671Y23994172D01*
X71861528Y23421315D01*
X71872383Y23415784D01*
X71879791Y23422863D01*
X71961471Y23566647D01*
X71965392Y23575454D01*
X72027334Y23761654D01*
X72029469Y23771056D01*
X72054322Y23967788D01*
X72054709Y23973314D01*
X72055043Y23997240D01*
X72054812Y24002739D01*
X72035459Y24200123D01*
X72033590Y24209561D01*
X71976869Y24397428D01*
X71973199Y24406332D01*
X71881072Y24579598D01*
X71880836Y24579953D01*
X71872069Y24585603D01*
X71869489Y24585458D01*
X71866076Y24583233D01*
X71293929Y24011086D01*
X71287875Y23999203D01*
X70711313Y23999203D01*
X70712125Y24000797D01*
X70711329Y24005828D01*
X70137556Y24579601D01*
X70126914Y24585023D01*
X70119300Y24577645D01*
X70032573Y24419889D01*
X70028773Y24411024D01*
X69969439Y24223979D01*
X69967435Y24214551D01*
X69945561Y24019539D01*
X69945427Y24009911D01*
X69000000Y24009911D01*
X69000000Y24871584D01*
X70414838Y24871584D01*
X70414956Y24869189D01*
X70417341Y24865502D01*
X70988914Y24293929D01*
X71000797Y24287875D01*
X71005828Y24288671D01*
X71579929Y24862772D01*
X71585983Y24874655D01*
X71585600Y24877078D01*
X71413114Y24970340D01*
X71404243Y24974069D01*
X71216774Y25032101D01*
X71207342Y25034037D01*
X71012182Y25054549D01*
X71002544Y25054616D01*
X70807117Y25036832D01*
X70797654Y25035026D01*
X70609407Y24979622D01*
X70600466Y24976009D01*
X70426573Y24885101D01*
X70421519Y24881793D01*
X70414838Y24871584D01*
X69000000Y24871584D01*
X69000000Y25691708D01*
X70000380Y25691708D01*
X70000569Y25690509D01*
X70004709Y25685641D01*
X70160509Y25571405D01*
X70166718Y25567525D01*
X70396985Y25446375D01*
X70403712Y25443450D01*
X70649355Y25357668D01*
X70656421Y25355774D01*
X70912054Y25307241D01*
X70919333Y25306412D01*
X71179325Y25296197D01*
X71186645Y25296453D01*
X71445303Y25324780D01*
X71452486Y25326112D01*
X71704115Y25392360D01*
X71711045Y25394747D01*
X71950098Y25497452D01*
X71956605Y25500839D01*
X72177864Y25637758D01*
X72183775Y25642052D01*
X72232097Y25682961D01*
X72239116Y25694303D01*
X72238888Y25697365D01*
X72237094Y25700063D01*
X71131086Y26806071D01*
X71119203Y26812125D01*
X71114172Y26811329D01*
X70006434Y25703591D01*
X70000380Y25691708D01*
X69000000Y25691708D01*
X69000000Y27143583D01*
X69315748Y27143583D01*
X69328232Y26883685D01*
X69329124Y26876422D01*
X69379886Y26621221D01*
X69381843Y26614165D01*
X69469765Y26369283D01*
X69472748Y26362582D01*
X69595900Y26133386D01*
X69599839Y26127204D01*
X69703540Y25988331D01*
X69714434Y25980632D01*
X69715883Y25980651D01*
X69720974Y25983817D01*
X70826071Y27088914D01*
X70831313Y27099203D01*
X71407875Y27099203D01*
X71408671Y27094172D01*
X72516649Y25986194D01*
X72528532Y25980140D01*
X72532017Y25980692D01*
X72533951Y25982196D01*
X72559155Y26010936D01*
X72563561Y26016783D01*
X72704316Y26235613D01*
X72707818Y26242062D01*
X72814681Y26479290D01*
X72817185Y26486169D01*
X72887813Y26736596D01*
X72889274Y26743780D01*
X72922259Y27003064D01*
X72922638Y27008013D01*
X72924982Y27097508D01*
X72924863Y27102483D01*
X72905492Y27363149D01*
X72904411Y27370378D01*
X72846985Y27624165D01*
X72844845Y27631166D01*
X72750539Y27873674D01*
X72747390Y27880276D01*
X72618271Y28106187D01*
X72614182Y28112249D01*
X72536126Y28211263D01*
X72525037Y28218672D01*
X72522893Y28218588D01*
X72518830Y28215987D01*
X71413929Y27111086D01*
X71407875Y27099203D01*
X70831313Y27099203D01*
X70832125Y27100797D01*
X70831329Y27105828D01*
X69724446Y28212711D01*
X69712563Y28218765D01*
X69709761Y28218322D01*
X69706915Y28216048D01*
X69652831Y28151019D01*
X69648578Y28145057D01*
X69513599Y27922618D01*
X69510269Y27916082D01*
X69409653Y27676140D01*
X69407326Y27669187D01*
X69343280Y27417004D01*
X69342008Y27409788D01*
X69315940Y27150903D01*
X69315748Y27143583D01*
X69000000Y27143583D01*
X69000000Y28507212D01*
X69999529Y28507212D01*
X69999906Y28503470D01*
X70001058Y28501785D01*
X71108914Y27393929D01*
X71120797Y27387875D01*
X71125828Y27388671D01*
X72235414Y28498257D01*
X72241468Y28510140D01*
X72241388Y28510647D01*
X72236423Y28516333D01*
X72039148Y28653188D01*
X72032836Y28656906D01*
X71799482Y28771983D01*
X71792682Y28774731D01*
X71544882Y28854052D01*
X71537755Y28855763D01*
X71280937Y28897589D01*
X71273656Y28898226D01*
X71013469Y28901632D01*
X71006173Y28901186D01*
X70748342Y28866096D01*
X70741190Y28864576D01*
X70491386Y28791765D01*
X70484520Y28789198D01*
X70248231Y28680267D01*
X70241825Y28676716D01*
X70024226Y28534052D01*
X70018422Y28529599D01*
X70006248Y28518734D01*
X69999529Y28507212D01*
X69000000Y28507212D01*
X69000000Y29401000D01*
X69018907Y29459191D01*
X69068407Y29495155D01*
X69099000Y29500000D01*
X73401000Y29500000D01*
X73459191Y29481093D01*
G37*
G04 #@! TD.AperFunction*
G04 #@! TD*
G04 #@! TA.AperFunction,Conductor*
G04 #@! TO.N,/C2*
G36*
X68459191Y14981093D02*
G01*
X68495155Y14931593D01*
X68500000Y14901000D01*
X68500000Y4599000D01*
X68481093Y4540809D01*
X68431593Y4504845D01*
X68401000Y4500000D01*
X64099000Y4500000D01*
X64040809Y4518907D01*
X64004845Y4568407D01*
X64000000Y4599000D01*
X64000000Y5358361D01*
X64200000Y5358361D01*
X64200346Y5352515D01*
X64202234Y5336647D01*
X64206128Y5322481D01*
X64244770Y5235486D01*
X64254946Y5220679D01*
X64321108Y5154633D01*
X64335931Y5144483D01*
X64422980Y5106000D01*
X64437185Y5102127D01*
X64452580Y5100332D01*
X64458292Y5100000D01*
X65784320Y5100000D01*
X65797005Y5104122D01*
X65800000Y5108243D01*
X65800000Y5115680D01*
X66200000Y5115680D01*
X66204122Y5102995D01*
X66208243Y5100000D01*
X67541639Y5100000D01*
X67547485Y5100346D01*
X67563353Y5102234D01*
X67577519Y5106128D01*
X67664514Y5144770D01*
X67679321Y5154946D01*
X67745367Y5221108D01*
X67755517Y5235931D01*
X67794000Y5322980D01*
X67797873Y5337185D01*
X67799668Y5352580D01*
X67800000Y5358292D01*
X67800000Y6684320D01*
X67795878Y6697005D01*
X67791757Y6700000D01*
X66215680Y6700000D01*
X66202995Y6695878D01*
X66200000Y6691757D01*
X66200000Y5115680D01*
X65800000Y5115680D01*
X65800000Y6684320D01*
X65795878Y6697005D01*
X65791757Y6700000D01*
X64215680Y6700000D01*
X64202995Y6695878D01*
X64200000Y6691757D01*
X64200000Y5358361D01*
X64000000Y5358361D01*
X64000000Y7115680D01*
X64200000Y7115680D01*
X64204122Y7102995D01*
X64208243Y7100000D01*
X65784320Y7100000D01*
X65797005Y7104122D01*
X65800000Y7108243D01*
X65800000Y7115680D01*
X66200000Y7115680D01*
X66204122Y7102995D01*
X66208243Y7100000D01*
X67784320Y7100000D01*
X67797005Y7104122D01*
X67800000Y7108243D01*
X67800000Y8441639D01*
X67799654Y8447485D01*
X67797766Y8463353D01*
X67793872Y8477519D01*
X67755230Y8564514D01*
X67745054Y8579321D01*
X67678892Y8645367D01*
X67664069Y8655517D01*
X67577020Y8694000D01*
X67562815Y8697873D01*
X67547420Y8699668D01*
X67541708Y8700000D01*
X66215680Y8700000D01*
X66202995Y8695878D01*
X66200000Y8691757D01*
X66200000Y7115680D01*
X65800000Y7115680D01*
X65800000Y8684320D01*
X65795878Y8697005D01*
X65791757Y8700000D01*
X64458361Y8700000D01*
X64452515Y8699654D01*
X64436647Y8697766D01*
X64422481Y8693872D01*
X64335486Y8655230D01*
X64320679Y8645054D01*
X64254633Y8578892D01*
X64244483Y8564069D01*
X64206000Y8477020D01*
X64202127Y8462815D01*
X64200332Y8447420D01*
X64200000Y8441708D01*
X64200000Y7115680D01*
X64000000Y7115680D01*
X64000000Y9127285D01*
X65415400Y9127285D01*
X65422629Y9119773D01*
X65573373Y9035525D01*
X65582201Y9031668D01*
X65768838Y8971026D01*
X65778238Y8968959D01*
X65973103Y8945723D01*
X65982729Y8945521D01*
X66178385Y8960576D01*
X66187876Y8962250D01*
X66376882Y9015022D01*
X66385862Y9018504D01*
X66561017Y9106982D01*
X66569158Y9112148D01*
X66576928Y9118219D01*
X66584386Y9129277D01*
X66584315Y9131305D01*
X66581618Y9135539D01*
X66011086Y9706071D01*
X65999203Y9712125D01*
X65994172Y9711329D01*
X65420877Y9138034D01*
X65415400Y9127285D01*
X64000000Y9127285D01*
X64000000Y10009911D01*
X64945427Y10009911D01*
X64961847Y9814357D01*
X64963585Y9804889D01*
X65017674Y9616257D01*
X65021225Y9607289D01*
X65110921Y9432760D01*
X65116143Y9424658D01*
X65117753Y9422626D01*
X65128865Y9415244D01*
X65131076Y9415337D01*
X65135037Y9417880D01*
X65706071Y9988914D01*
X65711313Y9999203D01*
X66287875Y9999203D01*
X66288671Y9994172D01*
X66861528Y9421315D01*
X66872383Y9415784D01*
X66879791Y9422863D01*
X66961471Y9566647D01*
X66965392Y9575454D01*
X67027334Y9761654D01*
X67029469Y9771056D01*
X67054322Y9967788D01*
X67054709Y9973314D01*
X67055043Y9997240D01*
X67054812Y10002739D01*
X67035459Y10200123D01*
X67033590Y10209561D01*
X66976869Y10397428D01*
X66973199Y10406332D01*
X66881072Y10579598D01*
X66880836Y10579953D01*
X66872069Y10585603D01*
X66869489Y10585458D01*
X66866076Y10583233D01*
X66293929Y10011086D01*
X66287875Y9999203D01*
X65711313Y9999203D01*
X65712125Y10000797D01*
X65711329Y10005828D01*
X65137556Y10579601D01*
X65126914Y10585023D01*
X65119300Y10577645D01*
X65032573Y10419889D01*
X65028773Y10411024D01*
X64969439Y10223979D01*
X64967435Y10214551D01*
X64945561Y10019539D01*
X64945427Y10009911D01*
X64000000Y10009911D01*
X64000000Y10871584D01*
X65414838Y10871584D01*
X65414956Y10869189D01*
X65417341Y10865502D01*
X65988914Y10293929D01*
X66000797Y10287875D01*
X66005828Y10288671D01*
X66579929Y10862772D01*
X66585983Y10874655D01*
X66585600Y10877078D01*
X66413114Y10970340D01*
X66404243Y10974069D01*
X66216774Y11032101D01*
X66207342Y11034037D01*
X66012182Y11054549D01*
X66002544Y11054616D01*
X65807117Y11036832D01*
X65797654Y11035026D01*
X65609407Y10979622D01*
X65600466Y10976009D01*
X65426573Y10885101D01*
X65421519Y10881793D01*
X65414838Y10871584D01*
X64000000Y10871584D01*
X64000000Y12220699D01*
X66329371Y12220699D01*
X66329378Y12220654D01*
X66334901Y12214438D01*
X66441179Y12143425D01*
X66449133Y12139107D01*
X66643412Y12055638D01*
X66652024Y12052840D01*
X66858272Y12006171D01*
X66867232Y12004991D01*
X67078544Y11996689D01*
X67087556Y11997161D01*
X67296848Y12027506D01*
X67305630Y12029615D01*
X67505878Y12097590D01*
X67514134Y12101266D01*
X67698642Y12204596D01*
X67705755Y12209485D01*
X67712809Y12220664D01*
X67712624Y12223498D01*
X67710625Y12226532D01*
X67031086Y12906071D01*
X67019203Y12912125D01*
X67014172Y12911329D01*
X66335425Y12232582D01*
X66329371Y12220699D01*
X64000000Y12220699D01*
X64000000Y13227019D01*
X65815569Y13227019D01*
X65829399Y13016000D01*
X65830812Y13007079D01*
X65882866Y12802118D01*
X65885886Y12793590D01*
X65974417Y12601551D01*
X65978935Y12593726D01*
X66032805Y12517501D01*
X66043490Y12509522D01*
X66044241Y12509512D01*
X66050370Y12513213D01*
X66726071Y13188914D01*
X66731313Y13199203D01*
X67307875Y13199203D01*
X67308671Y13194172D01*
X67989504Y12513339D01*
X68001387Y12507285D01*
X68004189Y12507728D01*
X68007035Y12510003D01*
X68010286Y12513911D01*
X68015404Y12521358D01*
X68118734Y12705866D01*
X68122410Y12714122D01*
X68190385Y12914370D01*
X68192494Y12923152D01*
X68223072Y13134051D01*
X68223565Y13139839D01*
X68225065Y13197087D01*
X68224875Y13202899D01*
X68205376Y13415102D01*
X68203729Y13423988D01*
X68146328Y13627514D01*
X68143087Y13635958D01*
X68049560Y13825612D01*
X68044837Y13833320D01*
X68007759Y13882973D01*
X67996869Y13890669D01*
X67995418Y13890650D01*
X67990327Y13887484D01*
X67313929Y13211086D01*
X67307875Y13199203D01*
X66731313Y13199203D01*
X66732125Y13200797D01*
X66731329Y13205828D01*
X66051891Y13885266D01*
X66040008Y13891320D01*
X66037891Y13890985D01*
X66034161Y13887924D01*
X66012094Y13859932D01*
X66007170Y13852349D01*
X65908705Y13665198D01*
X65905251Y13656858D01*
X65842541Y13454902D01*
X65840660Y13446052D01*
X65815805Y13236052D01*
X65815569Y13227019D01*
X64000000Y13227019D01*
X64000000Y14179635D01*
X66327028Y14179635D01*
X66331724Y14171119D01*
X67008914Y13493929D01*
X67020797Y13487875D01*
X67025828Y13488671D01*
X67705534Y14168377D01*
X67711412Y14179915D01*
X67705319Y14186593D01*
X67570961Y14271367D01*
X67562907Y14275470D01*
X67366491Y14353832D01*
X67357833Y14356397D01*
X67150426Y14397653D01*
X67141433Y14398598D01*
X66929985Y14401367D01*
X66920970Y14400657D01*
X66712556Y14364845D01*
X66703832Y14362507D01*
X66505436Y14289316D01*
X66497268Y14285420D01*
X66335285Y14189050D01*
X66327028Y14179635D01*
X64000000Y14179635D01*
X64000000Y14901000D01*
X64018907Y14959191D01*
X64068407Y14995155D01*
X64099000Y15000000D01*
X68401000Y15000000D01*
X68459191Y14981093D01*
G37*
G04 #@! TD.AperFunction*
G04 #@! TD*
G04 #@! TA.AperFunction,Conductor*
G04 #@! TO.N,/T2*
G36*
X78459191Y14981093D02*
G01*
X78495155Y14931593D01*
X78500000Y14901000D01*
X78500000Y13656555D01*
X78481093Y13598364D01*
X78431593Y13562400D01*
X78370407Y13562400D01*
X78320907Y13598364D01*
X78308688Y13623558D01*
X78307955Y13623277D01*
X78303087Y13635958D01*
X78209560Y13825612D01*
X78204837Y13833320D01*
X78167759Y13882973D01*
X78156869Y13890669D01*
X78155418Y13890650D01*
X78150327Y13887484D01*
X77473929Y13211086D01*
X77467875Y13199203D01*
X77468671Y13194172D01*
X78149504Y12513339D01*
X78161387Y12507285D01*
X78164189Y12507728D01*
X78167035Y12510003D01*
X78170286Y12513911D01*
X78175404Y12521358D01*
X78278734Y12705866D01*
X78282410Y12714122D01*
X78307254Y12787311D01*
X78343863Y12836336D01*
X78402296Y12854480D01*
X78460234Y12834812D01*
X78495547Y12784846D01*
X78500000Y12755488D01*
X78500000Y4599000D01*
X78481093Y4540809D01*
X78431593Y4504845D01*
X78401000Y4500000D01*
X74099000Y4500000D01*
X74040809Y4518907D01*
X74004845Y4568407D01*
X74000000Y4599000D01*
X74000000Y5491708D01*
X75040380Y5491708D01*
X75040569Y5490509D01*
X75044709Y5485641D01*
X75200509Y5371405D01*
X75206718Y5367525D01*
X75436985Y5246375D01*
X75443712Y5243450D01*
X75689355Y5157668D01*
X75696421Y5155774D01*
X75952054Y5107241D01*
X75959333Y5106412D01*
X76219325Y5096197D01*
X76226645Y5096453D01*
X76485303Y5124780D01*
X76492486Y5126112D01*
X76744115Y5192360D01*
X76751045Y5194747D01*
X76990098Y5297452D01*
X76996605Y5300839D01*
X77217864Y5437758D01*
X77223775Y5442052D01*
X77272097Y5482961D01*
X77279116Y5494303D01*
X77278888Y5497365D01*
X77277094Y5500063D01*
X76171086Y6606071D01*
X76159203Y6612125D01*
X76154172Y6611329D01*
X75046434Y5503591D01*
X75040380Y5491708D01*
X74000000Y5491708D01*
X74000000Y6943583D01*
X74355748Y6943583D01*
X74368232Y6683685D01*
X74369124Y6676422D01*
X74419886Y6421221D01*
X74421843Y6414165D01*
X74509765Y6169283D01*
X74512748Y6162582D01*
X74635900Y5933386D01*
X74639839Y5927204D01*
X74743540Y5788331D01*
X74754434Y5780632D01*
X74755883Y5780651D01*
X74760974Y5783817D01*
X75866071Y6888914D01*
X75871313Y6899203D01*
X76447875Y6899203D01*
X76448671Y6894172D01*
X77556649Y5786194D01*
X77568532Y5780140D01*
X77572017Y5780692D01*
X77573951Y5782196D01*
X77599155Y5810936D01*
X77603561Y5816783D01*
X77744316Y6035613D01*
X77747818Y6042062D01*
X77854681Y6279290D01*
X77857185Y6286169D01*
X77927813Y6536596D01*
X77929274Y6543780D01*
X77962259Y6803064D01*
X77962638Y6808013D01*
X77964982Y6897508D01*
X77964863Y6902483D01*
X77945492Y7163149D01*
X77944411Y7170378D01*
X77886985Y7424165D01*
X77884845Y7431166D01*
X77790539Y7673674D01*
X77787390Y7680276D01*
X77658271Y7906187D01*
X77654182Y7912249D01*
X77576126Y8011263D01*
X77565037Y8018672D01*
X77562893Y8018588D01*
X77558830Y8015987D01*
X76453929Y6911086D01*
X76447875Y6899203D01*
X75871313Y6899203D01*
X75872125Y6900797D01*
X75871329Y6905828D01*
X74764446Y8012711D01*
X74752563Y8018765D01*
X74749761Y8018322D01*
X74746915Y8016048D01*
X74692831Y7951019D01*
X74688578Y7945057D01*
X74553599Y7722618D01*
X74550269Y7716082D01*
X74449653Y7476140D01*
X74447326Y7469187D01*
X74383280Y7217004D01*
X74382008Y7209788D01*
X74355940Y6950903D01*
X74355748Y6943583D01*
X74000000Y6943583D01*
X74000000Y8307212D01*
X75039529Y8307212D01*
X75039906Y8303470D01*
X75041058Y8301785D01*
X76148914Y7193929D01*
X76160797Y7187875D01*
X76165828Y7188671D01*
X77275414Y8298257D01*
X77281468Y8310140D01*
X77281388Y8310647D01*
X77276423Y8316333D01*
X77079148Y8453188D01*
X77072836Y8456906D01*
X76839482Y8571983D01*
X76832682Y8574731D01*
X76584882Y8654052D01*
X76577755Y8655763D01*
X76320937Y8697589D01*
X76313656Y8698226D01*
X76053469Y8701632D01*
X76046173Y8701186D01*
X75788342Y8666096D01*
X75781190Y8664576D01*
X75531386Y8591765D01*
X75524520Y8589198D01*
X75288231Y8480267D01*
X75281825Y8476716D01*
X75064226Y8334052D01*
X75058422Y8329599D01*
X75046248Y8318734D01*
X75039529Y8307212D01*
X74000000Y8307212D01*
X74000000Y9127285D01*
X75415400Y9127285D01*
X75422629Y9119773D01*
X75573373Y9035525D01*
X75582201Y9031668D01*
X75768838Y8971026D01*
X75778238Y8968959D01*
X75973103Y8945723D01*
X75982729Y8945521D01*
X76178385Y8960576D01*
X76187876Y8962250D01*
X76376882Y9015022D01*
X76385862Y9018504D01*
X76561017Y9106982D01*
X76569158Y9112148D01*
X76576928Y9118219D01*
X76584386Y9129277D01*
X76584315Y9131305D01*
X76581618Y9135539D01*
X76011086Y9706071D01*
X75999203Y9712125D01*
X75994172Y9711329D01*
X75420877Y9138034D01*
X75415400Y9127285D01*
X74000000Y9127285D01*
X74000000Y10009911D01*
X74945427Y10009911D01*
X74961847Y9814357D01*
X74963585Y9804889D01*
X75017674Y9616257D01*
X75021225Y9607289D01*
X75110921Y9432760D01*
X75116143Y9424658D01*
X75117753Y9422626D01*
X75128865Y9415244D01*
X75131076Y9415337D01*
X75135037Y9417880D01*
X75706071Y9988914D01*
X75711313Y9999203D01*
X76287875Y9999203D01*
X76288671Y9994172D01*
X76861528Y9421315D01*
X76872383Y9415784D01*
X76879791Y9422863D01*
X76961471Y9566647D01*
X76965392Y9575454D01*
X77027334Y9761654D01*
X77029469Y9771056D01*
X77054322Y9967788D01*
X77054709Y9973314D01*
X77055043Y9997240D01*
X77054812Y10002739D01*
X77035459Y10200123D01*
X77033590Y10209561D01*
X76976869Y10397428D01*
X76973199Y10406332D01*
X76881072Y10579598D01*
X76880836Y10579953D01*
X76872069Y10585603D01*
X76869489Y10585458D01*
X76866076Y10583233D01*
X76293929Y10011086D01*
X76287875Y9999203D01*
X75711313Y9999203D01*
X75712125Y10000797D01*
X75711329Y10005828D01*
X75137556Y10579601D01*
X75126914Y10585023D01*
X75119300Y10577645D01*
X75032573Y10419889D01*
X75028773Y10411024D01*
X74969439Y10223979D01*
X74967435Y10214551D01*
X74945561Y10019539D01*
X74945427Y10009911D01*
X74000000Y10009911D01*
X74000000Y10871584D01*
X75414838Y10871584D01*
X75414956Y10869189D01*
X75417341Y10865502D01*
X75988914Y10293929D01*
X76000797Y10287875D01*
X76005828Y10288671D01*
X76579929Y10862772D01*
X76585983Y10874655D01*
X76585600Y10877078D01*
X76413114Y10970340D01*
X76404243Y10974069D01*
X76216774Y11032101D01*
X76207342Y11034037D01*
X76012182Y11054549D01*
X76002544Y11054616D01*
X75807117Y11036832D01*
X75797654Y11035026D01*
X75609407Y10979622D01*
X75600466Y10976009D01*
X75426573Y10885101D01*
X75421519Y10881793D01*
X75414838Y10871584D01*
X74000000Y10871584D01*
X74000000Y12220699D01*
X76489371Y12220699D01*
X76489378Y12220654D01*
X76494901Y12214438D01*
X76601179Y12143425D01*
X76609133Y12139107D01*
X76803412Y12055638D01*
X76812024Y12052840D01*
X77018272Y12006171D01*
X77027232Y12004991D01*
X77238544Y11996689D01*
X77247556Y11997161D01*
X77456848Y12027506D01*
X77465630Y12029615D01*
X77665878Y12097590D01*
X77674134Y12101266D01*
X77858642Y12204596D01*
X77865755Y12209485D01*
X77872809Y12220664D01*
X77872624Y12223498D01*
X77870625Y12226532D01*
X77191086Y12906071D01*
X77179203Y12912125D01*
X77174172Y12911329D01*
X76495425Y12232582D01*
X76489371Y12220699D01*
X74000000Y12220699D01*
X74000000Y13227019D01*
X75975569Y13227019D01*
X75989399Y13016000D01*
X75990812Y13007079D01*
X76042866Y12802118D01*
X76045886Y12793590D01*
X76134417Y12601551D01*
X76138935Y12593726D01*
X76192805Y12517501D01*
X76203490Y12509522D01*
X76204241Y12509512D01*
X76210370Y12513213D01*
X76886071Y13188914D01*
X76892125Y13200797D01*
X76891329Y13205828D01*
X76211891Y13885266D01*
X76200008Y13891320D01*
X76197891Y13890985D01*
X76194161Y13887924D01*
X76172094Y13859932D01*
X76167170Y13852349D01*
X76068705Y13665198D01*
X76065251Y13656858D01*
X76002541Y13454902D01*
X76000660Y13446052D01*
X75975805Y13236052D01*
X75975569Y13227019D01*
X74000000Y13227019D01*
X74000000Y14179635D01*
X76487028Y14179635D01*
X76491724Y14171119D01*
X77168914Y13493929D01*
X77180797Y13487875D01*
X77185828Y13488671D01*
X77865534Y14168377D01*
X77871412Y14179915D01*
X77865319Y14186593D01*
X77730961Y14271367D01*
X77722907Y14275470D01*
X77526491Y14353832D01*
X77517833Y14356397D01*
X77310426Y14397653D01*
X77301433Y14398598D01*
X77089985Y14401367D01*
X77080970Y14400657D01*
X76872556Y14364845D01*
X76863832Y14362507D01*
X76665436Y14289316D01*
X76657268Y14285420D01*
X76495285Y14189050D01*
X76487028Y14179635D01*
X74000000Y14179635D01*
X74000000Y14901000D01*
X74018907Y14959191D01*
X74068407Y14995155D01*
X74099000Y15000000D01*
X78401000Y15000000D01*
X78459191Y14981093D01*
G37*
G04 #@! TD.AperFunction*
G04 #@! TD*
G04 #@! TA.AperFunction,Conductor*
G04 #@! TO.N,/T1*
G36*
X78459191Y29481093D02*
G01*
X78495155Y29431593D01*
X78500000Y29401000D01*
X78500000Y21276555D01*
X78481093Y21218364D01*
X78431593Y21182400D01*
X78370407Y21182400D01*
X78320907Y21218364D01*
X78308688Y21243558D01*
X78307955Y21243277D01*
X78303087Y21255958D01*
X78209560Y21445612D01*
X78204837Y21453320D01*
X78167759Y21502973D01*
X78156869Y21510669D01*
X78155418Y21510650D01*
X78150327Y21507484D01*
X77473929Y20831086D01*
X77467875Y20819203D01*
X77468671Y20814172D01*
X78149504Y20133339D01*
X78161387Y20127285D01*
X78164189Y20127728D01*
X78167035Y20130003D01*
X78170286Y20133911D01*
X78175404Y20141358D01*
X78278734Y20325866D01*
X78282410Y20334122D01*
X78307254Y20407311D01*
X78343863Y20456336D01*
X78402296Y20474480D01*
X78460234Y20454812D01*
X78495547Y20404846D01*
X78500000Y20375488D01*
X78500000Y19099000D01*
X78481093Y19040809D01*
X78431593Y19004845D01*
X78401000Y19000000D01*
X74099000Y19000000D01*
X74040809Y19018907D01*
X74004845Y19068407D01*
X74000000Y19099000D01*
X74000000Y19840699D01*
X76489371Y19840699D01*
X76489378Y19840654D01*
X76494901Y19834438D01*
X76601179Y19763425D01*
X76609133Y19759107D01*
X76803412Y19675638D01*
X76812024Y19672840D01*
X77018272Y19626171D01*
X77027232Y19624991D01*
X77238544Y19616689D01*
X77247556Y19617161D01*
X77456848Y19647506D01*
X77465630Y19649615D01*
X77665878Y19717590D01*
X77674134Y19721266D01*
X77858642Y19824596D01*
X77865755Y19829485D01*
X77872809Y19840664D01*
X77872624Y19843498D01*
X77870625Y19846532D01*
X77191086Y20526071D01*
X77179203Y20532125D01*
X77174172Y20531329D01*
X76495425Y19852582D01*
X76489371Y19840699D01*
X74000000Y19840699D01*
X74000000Y20847019D01*
X75975569Y20847019D01*
X75989399Y20636000D01*
X75990812Y20627079D01*
X76042866Y20422118D01*
X76045886Y20413590D01*
X76134417Y20221551D01*
X76138935Y20213726D01*
X76192805Y20137501D01*
X76203490Y20129522D01*
X76204241Y20129512D01*
X76210370Y20133213D01*
X76886071Y20808914D01*
X76892125Y20820797D01*
X76891329Y20825828D01*
X76211891Y21505266D01*
X76200008Y21511320D01*
X76197891Y21510985D01*
X76194161Y21507924D01*
X76172094Y21479932D01*
X76167170Y21472349D01*
X76068705Y21285198D01*
X76065251Y21276858D01*
X76002541Y21074902D01*
X76000660Y21066052D01*
X75975805Y20856052D01*
X75975569Y20847019D01*
X74000000Y20847019D01*
X74000000Y21799635D01*
X76487028Y21799635D01*
X76491724Y21791119D01*
X77168914Y21113929D01*
X77180797Y21107875D01*
X77185828Y21108671D01*
X77865534Y21788377D01*
X77871412Y21799915D01*
X77865319Y21806593D01*
X77730961Y21891367D01*
X77722907Y21895470D01*
X77526491Y21973832D01*
X77517833Y21976397D01*
X77310426Y22017653D01*
X77301433Y22018598D01*
X77089985Y22021367D01*
X77080970Y22020657D01*
X76872556Y21984845D01*
X76863832Y21982507D01*
X76665436Y21909316D01*
X76657268Y21905420D01*
X76495285Y21809050D01*
X76487028Y21799635D01*
X74000000Y21799635D01*
X74000000Y23127285D01*
X75415400Y23127285D01*
X75422629Y23119773D01*
X75573373Y23035525D01*
X75582201Y23031668D01*
X75768838Y22971026D01*
X75778238Y22968959D01*
X75973103Y22945723D01*
X75982729Y22945521D01*
X76178385Y22960576D01*
X76187876Y22962250D01*
X76376882Y23015022D01*
X76385862Y23018504D01*
X76561017Y23106982D01*
X76569158Y23112148D01*
X76576928Y23118219D01*
X76584386Y23129277D01*
X76584315Y23131305D01*
X76581618Y23135539D01*
X76011086Y23706071D01*
X75999203Y23712125D01*
X75994172Y23711329D01*
X75420877Y23138034D01*
X75415400Y23127285D01*
X74000000Y23127285D01*
X74000000Y24009911D01*
X74945427Y24009911D01*
X74961847Y23814357D01*
X74963585Y23804889D01*
X75017674Y23616257D01*
X75021225Y23607289D01*
X75110921Y23432760D01*
X75116143Y23424658D01*
X75117753Y23422626D01*
X75128865Y23415244D01*
X75131076Y23415337D01*
X75135037Y23417880D01*
X75706071Y23988914D01*
X75711313Y23999203D01*
X76287875Y23999203D01*
X76288671Y23994172D01*
X76861528Y23421315D01*
X76872383Y23415784D01*
X76879791Y23422863D01*
X76961471Y23566647D01*
X76965392Y23575454D01*
X77027334Y23761654D01*
X77029469Y23771056D01*
X77054322Y23967788D01*
X77054709Y23973314D01*
X77055043Y23997240D01*
X77054812Y24002739D01*
X77035459Y24200123D01*
X77033590Y24209561D01*
X76976869Y24397428D01*
X76973199Y24406332D01*
X76881072Y24579598D01*
X76880836Y24579953D01*
X76872069Y24585603D01*
X76869489Y24585458D01*
X76866076Y24583233D01*
X76293929Y24011086D01*
X76287875Y23999203D01*
X75711313Y23999203D01*
X75712125Y24000797D01*
X75711329Y24005828D01*
X75137556Y24579601D01*
X75126914Y24585023D01*
X75119300Y24577645D01*
X75032573Y24419889D01*
X75028773Y24411024D01*
X74969439Y24223979D01*
X74967435Y24214551D01*
X74945561Y24019539D01*
X74945427Y24009911D01*
X74000000Y24009911D01*
X74000000Y24871584D01*
X75414838Y24871584D01*
X75414956Y24869189D01*
X75417341Y24865502D01*
X75988914Y24293929D01*
X76000797Y24287875D01*
X76005828Y24288671D01*
X76579929Y24862772D01*
X76585983Y24874655D01*
X76585600Y24877078D01*
X76413114Y24970340D01*
X76404243Y24974069D01*
X76216774Y25032101D01*
X76207342Y25034037D01*
X76012182Y25054549D01*
X76002544Y25054616D01*
X75807117Y25036832D01*
X75797654Y25035026D01*
X75609407Y24979622D01*
X75600466Y24976009D01*
X75426573Y24885101D01*
X75421519Y24881793D01*
X75414838Y24871584D01*
X74000000Y24871584D01*
X74000000Y25558361D01*
X74400000Y25558361D01*
X74400346Y25552515D01*
X74402234Y25536647D01*
X74406128Y25522481D01*
X74444770Y25435486D01*
X74454946Y25420679D01*
X74521108Y25354633D01*
X74535931Y25344483D01*
X74622980Y25306000D01*
X74637185Y25302127D01*
X74652580Y25300332D01*
X74658292Y25300000D01*
X75984320Y25300000D01*
X75997005Y25304122D01*
X76000000Y25308243D01*
X76000000Y25315680D01*
X76400000Y25315680D01*
X76404122Y25302995D01*
X76408243Y25300000D01*
X77741639Y25300000D01*
X77747485Y25300346D01*
X77763353Y25302234D01*
X77777519Y25306128D01*
X77864514Y25344770D01*
X77879321Y25354946D01*
X77945367Y25421108D01*
X77955517Y25435931D01*
X77994000Y25522980D01*
X77997873Y25537185D01*
X77999668Y25552580D01*
X78000000Y25558292D01*
X78000000Y26884320D01*
X77995878Y26897005D01*
X77991757Y26900000D01*
X76415680Y26900000D01*
X76402995Y26895878D01*
X76400000Y26891757D01*
X76400000Y25315680D01*
X76000000Y25315680D01*
X76000000Y26884320D01*
X75995878Y26897005D01*
X75991757Y26900000D01*
X74415680Y26900000D01*
X74402995Y26895878D01*
X74400000Y26891757D01*
X74400000Y25558361D01*
X74000000Y25558361D01*
X74000000Y27315680D01*
X74400000Y27315680D01*
X74404122Y27302995D01*
X74408243Y27300000D01*
X75984320Y27300000D01*
X75997005Y27304122D01*
X76000000Y27308243D01*
X76000000Y27315680D01*
X76400000Y27315680D01*
X76404122Y27302995D01*
X76408243Y27300000D01*
X77984320Y27300000D01*
X77997005Y27304122D01*
X78000000Y27308243D01*
X78000000Y28641639D01*
X77999654Y28647485D01*
X77997766Y28663353D01*
X77993872Y28677519D01*
X77955230Y28764514D01*
X77945054Y28779321D01*
X77878892Y28845367D01*
X77864069Y28855517D01*
X77777020Y28894000D01*
X77762815Y28897873D01*
X77747420Y28899668D01*
X77741708Y28900000D01*
X76415680Y28900000D01*
X76402995Y28895878D01*
X76400000Y28891757D01*
X76400000Y27315680D01*
X76000000Y27315680D01*
X76000000Y28884320D01*
X75995878Y28897005D01*
X75991757Y28900000D01*
X74658361Y28900000D01*
X74652515Y28899654D01*
X74636647Y28897766D01*
X74622481Y28893872D01*
X74535486Y28855230D01*
X74520679Y28845054D01*
X74454633Y28778892D01*
X74444483Y28764069D01*
X74406000Y28677020D01*
X74402127Y28662815D01*
X74400332Y28647420D01*
X74400000Y28641708D01*
X74400000Y27315680D01*
X74000000Y27315680D01*
X74000000Y29401000D01*
X74018907Y29459191D01*
X74068407Y29495155D01*
X74099000Y29500000D01*
X78401000Y29500000D01*
X78459191Y29481093D01*
G37*
G04 #@! TD.AperFunction*
G04 #@! TD*
G04 #@! TA.AperFunction,Conductor*
G04 #@! TO.N,/C1*
G36*
X68459191Y29481093D02*
G01*
X68495155Y29431593D01*
X68500000Y29401000D01*
X68500000Y19099000D01*
X68481093Y19040809D01*
X68431593Y19004845D01*
X68401000Y19000000D01*
X64099000Y19000000D01*
X64040809Y19018907D01*
X64004845Y19068407D01*
X64000000Y19099000D01*
X64000000Y19840699D01*
X66329371Y19840699D01*
X66329378Y19840654D01*
X66334901Y19834438D01*
X66441179Y19763425D01*
X66449133Y19759107D01*
X66643412Y19675638D01*
X66652024Y19672840D01*
X66858272Y19626171D01*
X66867232Y19624991D01*
X67078544Y19616689D01*
X67087556Y19617161D01*
X67296848Y19647506D01*
X67305630Y19649615D01*
X67505878Y19717590D01*
X67514134Y19721266D01*
X67698642Y19824596D01*
X67705755Y19829485D01*
X67712809Y19840664D01*
X67712624Y19843498D01*
X67710625Y19846532D01*
X67031086Y20526071D01*
X67019203Y20532125D01*
X67014172Y20531329D01*
X66335425Y19852582D01*
X66329371Y19840699D01*
X64000000Y19840699D01*
X64000000Y20847019D01*
X65815569Y20847019D01*
X65829399Y20636000D01*
X65830812Y20627079D01*
X65882866Y20422118D01*
X65885886Y20413590D01*
X65974417Y20221551D01*
X65978935Y20213726D01*
X66032805Y20137501D01*
X66043490Y20129522D01*
X66044241Y20129512D01*
X66050370Y20133213D01*
X66726071Y20808914D01*
X66731313Y20819203D01*
X67307875Y20819203D01*
X67308671Y20814172D01*
X67989504Y20133339D01*
X68001387Y20127285D01*
X68004189Y20127728D01*
X68007035Y20130003D01*
X68010286Y20133911D01*
X68015404Y20141358D01*
X68118734Y20325866D01*
X68122410Y20334122D01*
X68190385Y20534370D01*
X68192494Y20543152D01*
X68223072Y20754051D01*
X68223565Y20759839D01*
X68225065Y20817087D01*
X68224875Y20822899D01*
X68205376Y21035102D01*
X68203729Y21043988D01*
X68146328Y21247514D01*
X68143087Y21255958D01*
X68049560Y21445612D01*
X68044837Y21453320D01*
X68007759Y21502973D01*
X67996869Y21510669D01*
X67995418Y21510650D01*
X67990327Y21507484D01*
X67313929Y20831086D01*
X67307875Y20819203D01*
X66731313Y20819203D01*
X66732125Y20820797D01*
X66731329Y20825828D01*
X66051891Y21505266D01*
X66040008Y21511320D01*
X66037891Y21510985D01*
X66034161Y21507924D01*
X66012094Y21479932D01*
X66007170Y21472349D01*
X65908705Y21285198D01*
X65905251Y21276858D01*
X65842541Y21074902D01*
X65840660Y21066052D01*
X65815805Y20856052D01*
X65815569Y20847019D01*
X64000000Y20847019D01*
X64000000Y21799635D01*
X66327028Y21799635D01*
X66331724Y21791119D01*
X67008914Y21113929D01*
X67020797Y21107875D01*
X67025828Y21108671D01*
X67705534Y21788377D01*
X67711412Y21799915D01*
X67705319Y21806593D01*
X67570961Y21891367D01*
X67562907Y21895470D01*
X67366491Y21973832D01*
X67357833Y21976397D01*
X67150426Y22017653D01*
X67141433Y22018598D01*
X66929985Y22021367D01*
X66920970Y22020657D01*
X66712556Y21984845D01*
X66703832Y21982507D01*
X66505436Y21909316D01*
X66497268Y21905420D01*
X66335285Y21809050D01*
X66327028Y21799635D01*
X64000000Y21799635D01*
X64000000Y23127285D01*
X65415400Y23127285D01*
X65422629Y23119773D01*
X65573373Y23035525D01*
X65582201Y23031668D01*
X65768838Y22971026D01*
X65778238Y22968959D01*
X65973103Y22945723D01*
X65982729Y22945521D01*
X66178385Y22960576D01*
X66187876Y22962250D01*
X66376882Y23015022D01*
X66385862Y23018504D01*
X66561017Y23106982D01*
X66569158Y23112148D01*
X66576928Y23118219D01*
X66584386Y23129277D01*
X66584315Y23131305D01*
X66581618Y23135539D01*
X66011086Y23706071D01*
X65999203Y23712125D01*
X65994172Y23711329D01*
X65420877Y23138034D01*
X65415400Y23127285D01*
X64000000Y23127285D01*
X64000000Y24009911D01*
X64945427Y24009911D01*
X64961847Y23814357D01*
X64963585Y23804889D01*
X65017674Y23616257D01*
X65021225Y23607289D01*
X65110921Y23432760D01*
X65116143Y23424658D01*
X65117753Y23422626D01*
X65128865Y23415244D01*
X65131076Y23415337D01*
X65135037Y23417880D01*
X65706071Y23988914D01*
X65711313Y23999203D01*
X66287875Y23999203D01*
X66288671Y23994172D01*
X66861528Y23421315D01*
X66872383Y23415784D01*
X66879791Y23422863D01*
X66961471Y23566647D01*
X66965392Y23575454D01*
X67027334Y23761654D01*
X67029469Y23771056D01*
X67054322Y23967788D01*
X67054709Y23973314D01*
X67055043Y23997240D01*
X67054812Y24002739D01*
X67035459Y24200123D01*
X67033590Y24209561D01*
X66976869Y24397428D01*
X66973199Y24406332D01*
X66881072Y24579598D01*
X66880836Y24579953D01*
X66872069Y24585603D01*
X66869489Y24585458D01*
X66866076Y24583233D01*
X66293929Y24011086D01*
X66287875Y23999203D01*
X65711313Y23999203D01*
X65712125Y24000797D01*
X65711329Y24005828D01*
X65137556Y24579601D01*
X65126914Y24585023D01*
X65119300Y24577645D01*
X65032573Y24419889D01*
X65028773Y24411024D01*
X64969439Y24223979D01*
X64967435Y24214551D01*
X64945561Y24019539D01*
X64945427Y24009911D01*
X64000000Y24009911D01*
X64000000Y24871584D01*
X65414838Y24871584D01*
X65414956Y24869189D01*
X65417341Y24865502D01*
X65988914Y24293929D01*
X66000797Y24287875D01*
X66005828Y24288671D01*
X66579929Y24862772D01*
X66585983Y24874655D01*
X66585600Y24877078D01*
X66413114Y24970340D01*
X66404243Y24974069D01*
X66216774Y25032101D01*
X66207342Y25034037D01*
X66012182Y25054549D01*
X66002544Y25054616D01*
X65807117Y25036832D01*
X65797654Y25035026D01*
X65609407Y24979622D01*
X65600466Y24976009D01*
X65426573Y24885101D01*
X65421519Y24881793D01*
X65414838Y24871584D01*
X64000000Y24871584D01*
X64000000Y25691708D01*
X64920380Y25691708D01*
X64920569Y25690509D01*
X64924709Y25685641D01*
X65080509Y25571405D01*
X65086718Y25567525D01*
X65316985Y25446375D01*
X65323712Y25443450D01*
X65569355Y25357668D01*
X65576421Y25355774D01*
X65832054Y25307241D01*
X65839333Y25306412D01*
X66099325Y25296197D01*
X66106645Y25296453D01*
X66365303Y25324780D01*
X66372486Y25326112D01*
X66624115Y25392360D01*
X66631045Y25394747D01*
X66870098Y25497452D01*
X66876605Y25500839D01*
X67097864Y25637758D01*
X67103775Y25642052D01*
X67152097Y25682961D01*
X67159116Y25694303D01*
X67158888Y25697365D01*
X67157094Y25700063D01*
X66051086Y26806071D01*
X66039203Y26812125D01*
X66034172Y26811329D01*
X64926434Y25703591D01*
X64920380Y25691708D01*
X64000000Y25691708D01*
X64000000Y27143583D01*
X64235748Y27143583D01*
X64248232Y26883685D01*
X64249124Y26876422D01*
X64299886Y26621221D01*
X64301843Y26614165D01*
X64389765Y26369283D01*
X64392748Y26362582D01*
X64515900Y26133386D01*
X64519839Y26127204D01*
X64623540Y25988331D01*
X64634434Y25980632D01*
X64635883Y25980651D01*
X64640974Y25983817D01*
X65746071Y27088914D01*
X65751313Y27099203D01*
X66327875Y27099203D01*
X66328671Y27094172D01*
X67436649Y25986194D01*
X67448532Y25980140D01*
X67452017Y25980692D01*
X67453951Y25982196D01*
X67479155Y26010936D01*
X67483561Y26016783D01*
X67624316Y26235613D01*
X67627818Y26242062D01*
X67734681Y26479290D01*
X67737185Y26486169D01*
X67807813Y26736596D01*
X67809274Y26743780D01*
X67842259Y27003064D01*
X67842638Y27008013D01*
X67844982Y27097508D01*
X67844863Y27102483D01*
X67825492Y27363149D01*
X67824411Y27370378D01*
X67766985Y27624165D01*
X67764845Y27631166D01*
X67670539Y27873674D01*
X67667390Y27880276D01*
X67538271Y28106187D01*
X67534182Y28112249D01*
X67456126Y28211263D01*
X67445037Y28218672D01*
X67442893Y28218588D01*
X67438830Y28215987D01*
X66333929Y27111086D01*
X66327875Y27099203D01*
X65751313Y27099203D01*
X65752125Y27100797D01*
X65751329Y27105828D01*
X64644446Y28212711D01*
X64632563Y28218765D01*
X64629761Y28218322D01*
X64626915Y28216048D01*
X64572831Y28151019D01*
X64568578Y28145057D01*
X64433599Y27922618D01*
X64430269Y27916082D01*
X64329653Y27676140D01*
X64327326Y27669187D01*
X64263280Y27417004D01*
X64262008Y27409788D01*
X64235940Y27150903D01*
X64235748Y27143583D01*
X64000000Y27143583D01*
X64000000Y28507212D01*
X64919529Y28507212D01*
X64919906Y28503470D01*
X64921058Y28501785D01*
X66028914Y27393929D01*
X66040797Y27387875D01*
X66045828Y27388671D01*
X67155414Y28498257D01*
X67161468Y28510140D01*
X67161388Y28510647D01*
X67156423Y28516333D01*
X66959148Y28653188D01*
X66952836Y28656906D01*
X66719482Y28771983D01*
X66712682Y28774731D01*
X66464882Y28854052D01*
X66457755Y28855763D01*
X66200937Y28897589D01*
X66193656Y28898226D01*
X65933469Y28901632D01*
X65926173Y28901186D01*
X65668342Y28866096D01*
X65661190Y28864576D01*
X65411386Y28791765D01*
X65404520Y28789198D01*
X65168231Y28680267D01*
X65161825Y28676716D01*
X64944226Y28534052D01*
X64938422Y28529599D01*
X64926248Y28518734D01*
X64919529Y28507212D01*
X64000000Y28507212D01*
X64000000Y29401000D01*
X64018907Y29459191D01*
X64068407Y29495155D01*
X64099000Y29500000D01*
X68401000Y29500000D01*
X68459191Y29481093D01*
G37*
G04 #@! TD.AperFunction*
G04 #@! TD*
M02*
