G04 #@! TF.GenerationSoftware,KiCad,Pcbnew,6.0.9-8da3e8f707~116~ubuntu20.04.1*
G04 #@! TF.CreationDate,2023-03-26T14:48:38+00:00*
G04 #@! TF.ProjectId,LEC000042,4c454330-3030-4303-9432-2e6b69636164,rev?*
G04 #@! TF.SameCoordinates,Original*
G04 #@! TF.FileFunction,Soldermask,Top*
G04 #@! TF.FilePolarity,Negative*
%FSLAX46Y46*%
G04 Gerber Fmt 4.6, Leading zero omitted, Abs format (unit mm)*
G04 Created by KiCad (PCBNEW 6.0.9-8da3e8f707~116~ubuntu20.04.1) date 2023-03-26 14:48:38*
%MOMM*%
%LPD*%
G01*
G04 APERTURE LIST*
G04 Aperture macros list*
%AMRoundRect*
0 Rectangle with rounded corners*
0 $1 Rounding radius*
0 $2 $3 $4 $5 $6 $7 $8 $9 X,Y pos of 4 corners*
0 Add a 4 corners polygon primitive as box body*
4,1,4,$2,$3,$4,$5,$6,$7,$8,$9,$2,$3,0*
0 Add four circle primitives for the rounded corners*
1,1,$1+$1,$2,$3*
1,1,$1+$1,$4,$5*
1,1,$1+$1,$6,$7*
1,1,$1+$1,$8,$9*
0 Add four rect primitives between the rounded corners*
20,1,$1+$1,$2,$3,$4,$5,0*
20,1,$1+$1,$4,$5,$6,$7,0*
20,1,$1+$1,$6,$7,$8,$9,0*
20,1,$1+$1,$8,$9,$2,$3,0*%
G04 Aperture macros list end*
%ADD10C,0.010000*%
%ADD11RoundRect,0.269750X0.218750X0.256250X-0.218750X0.256250X-0.218750X-0.256250X0.218750X-0.256250X0*%
%ADD12RoundRect,0.300600X-0.550400X1.500400X-0.550400X-1.500400X0.550400X-1.500400X0.550400X1.500400X0*%
%ADD13RoundRect,0.051000X-0.900000X1.250000X-0.900000X-1.250000X0.900000X-1.250000X0.900000X1.250000X0*%
%ADD14RoundRect,0.051000X0.900000X-1.250000X0.900000X1.250000X-0.900000X1.250000X-0.900000X-1.250000X0*%
%ADD15RoundRect,0.269750X0.256250X-0.218750X0.256250X0.218750X-0.256250X0.218750X-0.256250X-0.218750X0*%
%ADD16RoundRect,0.051000X1.500000X1.500000X-1.500000X1.500000X-1.500000X-1.500000X1.500000X-1.500000X0*%
%ADD17C,3.102000*%
%ADD18RoundRect,0.051000X-1.500000X1.500000X-1.500000X-1.500000X1.500000X-1.500000X1.500000X1.500000X0*%
%ADD19RoundRect,0.051000X-1.500000X-1.500000X1.500000X-1.500000X1.500000X1.500000X-1.500000X1.500000X0*%
%ADD20RoundRect,0.269750X-0.218750X-0.256250X0.218750X-0.256250X0.218750X0.256250X-0.218750X0.256250X0*%
%ADD21RoundRect,0.051000X-0.750000X-0.890000X0.750000X-0.890000X0.750000X0.890000X-0.750000X0.890000X0*%
%ADD22RoundRect,0.213500X0.825000X0.162500X-0.825000X0.162500X-0.825000X-0.162500X0.825000X-0.162500X0*%
%ADD23C,1.902000*%
%ADD24RoundRect,0.051000X0.900000X-0.900000X0.900000X0.900000X-0.900000X0.900000X-0.900000X-0.900000X0*%
%ADD25C,3.302000*%
%ADD26RoundRect,0.300999X-0.425001X0.450001X-0.425001X-0.450001X0.425001X-0.450001X0.425001X0.450001X0*%
%ADD27RoundRect,0.269750X-0.256250X0.218750X-0.256250X-0.218750X0.256250X-0.218750X0.256250X0.218750X0*%
%ADD28RoundRect,0.201000X-0.825000X-0.150000X0.825000X-0.150000X0.825000X0.150000X-0.825000X0.150000X0*%
%ADD29RoundRect,0.051000X1.450000X2.700000X-1.450000X2.700000X-1.450000X-2.700000X1.450000X-2.700000X0*%
%ADD30RoundRect,0.051000X1.250000X0.900000X-1.250000X0.900000X-1.250000X-0.900000X1.250000X-0.900000X0*%
%ADD31RoundRect,0.051000X0.500000X0.400000X-0.500000X0.400000X-0.500000X-0.400000X0.500000X-0.400000X0*%
%ADD32RoundRect,0.051000X-0.700000X0.700000X-0.700000X-0.700000X0.700000X-0.700000X0.700000X0.700000X0*%
%ADD33C,1.502000*%
%ADD34RoundRect,0.300600X0.550400X-1.500400X0.550400X1.500400X-0.550400X1.500400X-0.550400X-1.500400X0*%
%ADD35RoundRect,0.051000X0.400000X-0.450000X0.400000X0.450000X-0.400000X0.450000X-0.400000X-0.450000X0*%
G04 APERTURE END LIST*
G04 #@! TO.C,LOGO1*
G36*
X18376209Y30728885D02*
G01*
X18397949Y30728102D01*
X18416476Y30726865D01*
X18424880Y30725987D01*
X18486536Y30715889D01*
X18546482Y30701142D01*
X18604502Y30681880D01*
X18660380Y30658240D01*
X18713901Y30630358D01*
X18764850Y30598368D01*
X18813012Y30562408D01*
X18858171Y30522612D01*
X18900111Y30479116D01*
X18938617Y30432056D01*
X18973475Y30381567D01*
X18974753Y30379538D01*
X18980950Y30369396D01*
X18985873Y30360824D01*
X18989032Y30354716D01*
X18989933Y30351966D01*
X18989927Y30351954D01*
X18987616Y30350206D01*
X18981584Y30346064D01*
X18972376Y30339884D01*
X18960541Y30332024D01*
X18946627Y30322841D01*
X18931181Y30312692D01*
X18914750Y30301934D01*
X18897883Y30290925D01*
X18881127Y30280021D01*
X18865029Y30269581D01*
X18850138Y30259961D01*
X18837000Y30251518D01*
X18826165Y30244610D01*
X18818178Y30239593D01*
X18813588Y30236826D01*
X18812794Y30236416D01*
X18809968Y30237282D01*
X18805905Y30241905D01*
X18800305Y30250661D01*
X18797184Y30256086D01*
X18780089Y30283572D01*
X18759427Y30311998D01*
X18736229Y30340148D01*
X18711528Y30366803D01*
X18686356Y30390746D01*
X18674480Y30400860D01*
X18633846Y30430828D01*
X18590247Y30456873D01*
X18544196Y30478774D01*
X18496208Y30496310D01*
X18446797Y30509260D01*
X18406452Y30516187D01*
X18384946Y30518232D01*
X18360221Y30519278D01*
X18333760Y30519363D01*
X18307045Y30518520D01*
X18281557Y30516786D01*
X18258779Y30514196D01*
X18247826Y30512397D01*
X18197286Y30500392D01*
X18148775Y30483901D01*
X18102534Y30463143D01*
X18058804Y30438334D01*
X18017826Y30409692D01*
X17979841Y30377434D01*
X17945090Y30341777D01*
X17913814Y30302938D01*
X17886252Y30261136D01*
X17862648Y30216587D01*
X17843240Y30169508D01*
X17833199Y30138379D01*
X17822556Y30093948D01*
X17815928Y30047895D01*
X17813432Y30009855D01*
X17812028Y29968580D01*
X17591031Y29968580D01*
X17592507Y30013665D01*
X17596951Y30073235D01*
X17606239Y30131781D01*
X17620196Y30189055D01*
X17638643Y30244808D01*
X17661405Y30298794D01*
X17688306Y30350761D01*
X17719168Y30400463D01*
X17753816Y30447651D01*
X17792073Y30492077D01*
X17833762Y30533490D01*
X17878708Y30571645D01*
X17926733Y30606291D01*
X17977661Y30637180D01*
X18031316Y30664064D01*
X18064200Y30677954D01*
X18117077Y30696535D01*
X18171789Y30711237D01*
X18229205Y30722284D01*
X18244540Y30724566D01*
X18260719Y30726312D01*
X18280782Y30727661D01*
X18303544Y30728601D01*
X18327825Y30729125D01*
X18352441Y30729223D01*
X18376209Y30728885D01*
G37*
D10*
X18376209Y30728885D02*
X18397949Y30728102D01*
X18416476Y30726865D01*
X18424880Y30725987D01*
X18486536Y30715889D01*
X18546482Y30701142D01*
X18604502Y30681880D01*
X18660380Y30658240D01*
X18713901Y30630358D01*
X18764850Y30598368D01*
X18813012Y30562408D01*
X18858171Y30522612D01*
X18900111Y30479116D01*
X18938617Y30432056D01*
X18973475Y30381567D01*
X18974753Y30379538D01*
X18980950Y30369396D01*
X18985873Y30360824D01*
X18989032Y30354716D01*
X18989933Y30351966D01*
X18989927Y30351954D01*
X18987616Y30350206D01*
X18981584Y30346064D01*
X18972376Y30339884D01*
X18960541Y30332024D01*
X18946627Y30322841D01*
X18931181Y30312692D01*
X18914750Y30301934D01*
X18897883Y30290925D01*
X18881127Y30280021D01*
X18865029Y30269581D01*
X18850138Y30259961D01*
X18837000Y30251518D01*
X18826165Y30244610D01*
X18818178Y30239593D01*
X18813588Y30236826D01*
X18812794Y30236416D01*
X18809968Y30237282D01*
X18805905Y30241905D01*
X18800305Y30250661D01*
X18797184Y30256086D01*
X18780089Y30283572D01*
X18759427Y30311998D01*
X18736229Y30340148D01*
X18711528Y30366803D01*
X18686356Y30390746D01*
X18674480Y30400860D01*
X18633846Y30430828D01*
X18590247Y30456873D01*
X18544196Y30478774D01*
X18496208Y30496310D01*
X18446797Y30509260D01*
X18406452Y30516187D01*
X18384946Y30518232D01*
X18360221Y30519278D01*
X18333760Y30519363D01*
X18307045Y30518520D01*
X18281557Y30516786D01*
X18258779Y30514196D01*
X18247826Y30512397D01*
X18197286Y30500392D01*
X18148775Y30483901D01*
X18102534Y30463143D01*
X18058804Y30438334D01*
X18017826Y30409692D01*
X17979841Y30377434D01*
X17945090Y30341777D01*
X17913814Y30302938D01*
X17886252Y30261136D01*
X17862648Y30216587D01*
X17843240Y30169508D01*
X17833199Y30138379D01*
X17822556Y30093948D01*
X17815928Y30047895D01*
X17813432Y30009855D01*
X17812028Y29968580D01*
X17591031Y29968580D01*
X17592507Y30013665D01*
X17596951Y30073235D01*
X17606239Y30131781D01*
X17620196Y30189055D01*
X17638643Y30244808D01*
X17661405Y30298794D01*
X17688306Y30350761D01*
X17719168Y30400463D01*
X17753816Y30447651D01*
X17792073Y30492077D01*
X17833762Y30533490D01*
X17878708Y30571645D01*
X17926733Y30606291D01*
X17977661Y30637180D01*
X18031316Y30664064D01*
X18064200Y30677954D01*
X18117077Y30696535D01*
X18171789Y30711237D01*
X18229205Y30722284D01*
X18244540Y30724566D01*
X18260719Y30726312D01*
X18280782Y30727661D01*
X18303544Y30728601D01*
X18327825Y30729125D01*
X18352441Y30729223D01*
X18376209Y30728885D01*
G36*
X21368740Y29054180D02*
G01*
X21147760Y29054180D01*
X21147760Y30725500D01*
X21368740Y30725500D01*
X21368740Y29054180D01*
G37*
X21368740Y29054180D02*
X21147760Y29054180D01*
X21147760Y30725500D01*
X21368740Y30725500D01*
X21368740Y29054180D01*
G36*
X22010968Y30725500D02*
G01*
X22216269Y30442956D01*
X22240799Y30409165D01*
X22264493Y30376463D01*
X22287180Y30345091D01*
X22308689Y30315286D01*
X22328848Y30287289D01*
X22347487Y30261337D01*
X22364435Y30237671D01*
X22379520Y30216530D01*
X22392571Y30198152D01*
X22403418Y30182777D01*
X22411889Y30170644D01*
X22417814Y30161991D01*
X22421021Y30157058D01*
X22421570Y30155979D01*
X22420129Y30152999D01*
X22416077Y30146561D01*
X22409817Y30137221D01*
X22401755Y30125539D01*
X22392293Y30112072D01*
X22381838Y30097378D01*
X22370793Y30082016D01*
X22359562Y30066543D01*
X22348551Y30051517D01*
X22338162Y30037496D01*
X22328801Y30025038D01*
X22320872Y30014702D01*
X22314779Y30007045D01*
X22310927Y30002625D01*
X22309810Y30001753D01*
X22308071Y30003777D01*
X22303504Y30009705D01*
X22296264Y30019329D01*
X22286502Y30032439D01*
X22274373Y30048826D01*
X22260029Y30068281D01*
X22243625Y30090595D01*
X22225313Y30115558D01*
X22205247Y30142963D01*
X22183579Y30172598D01*
X22160465Y30204257D01*
X22136056Y30237728D01*
X22110506Y30272804D01*
X22083968Y30309276D01*
X22056596Y30346933D01*
X22048190Y30358507D01*
X22020558Y30396555D01*
X21993707Y30433532D01*
X21967789Y30469228D01*
X21942960Y30503428D01*
X21919374Y30535919D01*
X21897186Y30566489D01*
X21876549Y30594925D01*
X21857618Y30621015D01*
X21840548Y30644544D01*
X21825493Y30665301D01*
X21812608Y30683073D01*
X21802047Y30697646D01*
X21793964Y30708808D01*
X21788514Y30716346D01*
X21785851Y30720048D01*
X21785625Y30720370D01*
X21784877Y30721583D01*
X21784715Y30722588D01*
X21785563Y30723405D01*
X21787844Y30724053D01*
X21791981Y30724551D01*
X21798399Y30724919D01*
X21807522Y30725177D01*
X21819772Y30725345D01*
X21835573Y30725441D01*
X21855349Y30725486D01*
X21879525Y30725500D01*
X21896554Y30725501D01*
X22010968Y30725500D01*
G37*
X22010968Y30725500D02*
X22216269Y30442956D01*
X22240799Y30409165D01*
X22264493Y30376463D01*
X22287180Y30345091D01*
X22308689Y30315286D01*
X22328848Y30287289D01*
X22347487Y30261337D01*
X22364435Y30237671D01*
X22379520Y30216530D01*
X22392571Y30198152D01*
X22403418Y30182777D01*
X22411889Y30170644D01*
X22417814Y30161991D01*
X22421021Y30157058D01*
X22421570Y30155979D01*
X22420129Y30152999D01*
X22416077Y30146561D01*
X22409817Y30137221D01*
X22401755Y30125539D01*
X22392293Y30112072D01*
X22381838Y30097378D01*
X22370793Y30082016D01*
X22359562Y30066543D01*
X22348551Y30051517D01*
X22338162Y30037496D01*
X22328801Y30025038D01*
X22320872Y30014702D01*
X22314779Y30007045D01*
X22310927Y30002625D01*
X22309810Y30001753D01*
X22308071Y30003777D01*
X22303504Y30009705D01*
X22296264Y30019329D01*
X22286502Y30032439D01*
X22274373Y30048826D01*
X22260029Y30068281D01*
X22243625Y30090595D01*
X22225313Y30115558D01*
X22205247Y30142963D01*
X22183579Y30172598D01*
X22160465Y30204257D01*
X22136056Y30237728D01*
X22110506Y30272804D01*
X22083968Y30309276D01*
X22056596Y30346933D01*
X22048190Y30358507D01*
X22020558Y30396555D01*
X21993707Y30433532D01*
X21967789Y30469228D01*
X21942960Y30503428D01*
X21919374Y30535919D01*
X21897186Y30566489D01*
X21876549Y30594925D01*
X21857618Y30621015D01*
X21840548Y30644544D01*
X21825493Y30665301D01*
X21812608Y30683073D01*
X21802047Y30697646D01*
X21793964Y30708808D01*
X21788514Y30716346D01*
X21785851Y30720048D01*
X21785625Y30720370D01*
X21784877Y30721583D01*
X21784715Y30722588D01*
X21785563Y30723405D01*
X21787844Y30724053D01*
X21791981Y30724551D01*
X21798399Y30724919D01*
X21807522Y30725177D01*
X21819772Y30725345D01*
X21835573Y30725441D01*
X21855349Y30725486D01*
X21879525Y30725500D01*
X21896554Y30725501D01*
X22010968Y30725500D01*
G36*
X17182820Y29046560D02*
G01*
X16090620Y29046560D01*
X16090620Y29270080D01*
X17182820Y29270080D01*
X17182820Y29046560D01*
G37*
X17182820Y29046560D02*
X16090620Y29046560D01*
X16090620Y29270080D01*
X17182820Y29270080D01*
X17182820Y29046560D01*
G36*
X14711400Y29447880D02*
G01*
X14490420Y29447880D01*
X14490420Y30722960D01*
X14711400Y30722960D01*
X14711400Y29447880D01*
G37*
X14711400Y29447880D02*
X14490420Y29447880D01*
X14490420Y30722960D01*
X14711400Y30722960D01*
X14711400Y29447880D01*
G36*
X17808402Y29764745D02*
G01*
X17813120Y29715358D01*
X17822714Y29666609D01*
X17836988Y29618874D01*
X17855743Y29572528D01*
X17878784Y29527945D01*
X17905913Y29485500D01*
X17936933Y29445568D01*
X17971648Y29408524D01*
X18009860Y29374742D01*
X18015940Y29369934D01*
X18056038Y29341807D01*
X18099345Y29317246D01*
X18145214Y29296509D01*
X18192999Y29279853D01*
X18242054Y29267534D01*
X18291733Y29259809D01*
X18293061Y29259669D01*
X18314417Y29258188D01*
X18339012Y29257723D01*
X18365170Y29258216D01*
X18391216Y29259607D01*
X18415475Y29261839D01*
X18435040Y29264631D01*
X18485420Y29276032D01*
X18534171Y29291989D01*
X18580973Y29312278D01*
X18625506Y29336674D01*
X18667447Y29364950D01*
X18706477Y29396881D01*
X18742275Y29432243D01*
X18774521Y29470811D01*
X18802893Y29512358D01*
X18813459Y29530430D01*
X18817764Y29538134D01*
X18820977Y29543838D01*
X18822419Y29546340D01*
X18822428Y29546352D01*
X18824718Y29545411D01*
X18830966Y29542414D01*
X18840622Y29537644D01*
X18853134Y29531383D01*
X18867950Y29523913D01*
X18884518Y29515516D01*
X18902288Y29506474D01*
X18920709Y29497070D01*
X18939227Y29487586D01*
X18957292Y29478303D01*
X18974353Y29469504D01*
X18989857Y29461470D01*
X19003254Y29454485D01*
X19013992Y29448830D01*
X19021519Y29444788D01*
X19025284Y29442640D01*
X19025579Y29442426D01*
X19026342Y29440524D01*
X19025650Y29437136D01*
X19023236Y29431754D01*
X19018829Y29423870D01*
X19012161Y29412978D01*
X19002963Y29398568D01*
X18999532Y29393270D01*
X18963745Y29342753D01*
X18924233Y29295544D01*
X18881253Y29251819D01*
X18835061Y29211755D01*
X18785915Y29175527D01*
X18734071Y29143310D01*
X18679786Y29115281D01*
X18623317Y29091614D01*
X18564922Y29072487D01*
X18511386Y29059392D01*
X18490451Y29055285D01*
X18471307Y29052063D01*
X18452786Y29049613D01*
X18433721Y29047823D01*
X18412944Y29046581D01*
X18389286Y29045774D01*
X18365190Y29045335D01*
X18346965Y29045140D01*
X18330071Y29045040D01*
X18315281Y29045034D01*
X18303367Y29045120D01*
X18295103Y29045296D01*
X18291530Y29045515D01*
X18285642Y29046259D01*
X18276310Y29047370D01*
X18265138Y29048659D01*
X18259780Y29049265D01*
X18204003Y29057953D01*
X18148007Y29071426D01*
X18092401Y29089455D01*
X18037794Y29111812D01*
X17984797Y29138269D01*
X17934019Y29168599D01*
X17925770Y29174045D01*
X17895798Y29194902D01*
X17869044Y29215347D01*
X17843942Y29236683D01*
X17818927Y29260210D01*
X17803718Y29275499D01*
X17761520Y29322344D01*
X17723616Y29371821D01*
X17690086Y29423764D01*
X17661014Y29478006D01*
X17636482Y29534382D01*
X17616574Y29592726D01*
X17601371Y29652871D01*
X17593187Y29698523D01*
X17591980Y29707739D01*
X17590577Y29720190D01*
X17589087Y29734693D01*
X17587618Y29750063D01*
X17586281Y29765115D01*
X17585185Y29778666D01*
X17584438Y29789530D01*
X17584150Y29796495D01*
X17586602Y29796893D01*
X17593621Y29797262D01*
X17604692Y29797595D01*
X17619304Y29797881D01*
X17636941Y29798114D01*
X17657091Y29798283D01*
X17679241Y29798380D01*
X17695519Y29798400D01*
X17806899Y29798400D01*
X17808402Y29764745D01*
G37*
X17808402Y29764745D02*
X17813120Y29715358D01*
X17822714Y29666609D01*
X17836988Y29618874D01*
X17855743Y29572528D01*
X17878784Y29527945D01*
X17905913Y29485500D01*
X17936933Y29445568D01*
X17971648Y29408524D01*
X18009860Y29374742D01*
X18015940Y29369934D01*
X18056038Y29341807D01*
X18099345Y29317246D01*
X18145214Y29296509D01*
X18192999Y29279853D01*
X18242054Y29267534D01*
X18291733Y29259809D01*
X18293061Y29259669D01*
X18314417Y29258188D01*
X18339012Y29257723D01*
X18365170Y29258216D01*
X18391216Y29259607D01*
X18415475Y29261839D01*
X18435040Y29264631D01*
X18485420Y29276032D01*
X18534171Y29291989D01*
X18580973Y29312278D01*
X18625506Y29336674D01*
X18667447Y29364950D01*
X18706477Y29396881D01*
X18742275Y29432243D01*
X18774521Y29470811D01*
X18802893Y29512358D01*
X18813459Y29530430D01*
X18817764Y29538134D01*
X18820977Y29543838D01*
X18822419Y29546340D01*
X18822428Y29546352D01*
X18824718Y29545411D01*
X18830966Y29542414D01*
X18840622Y29537644D01*
X18853134Y29531383D01*
X18867950Y29523913D01*
X18884518Y29515516D01*
X18902288Y29506474D01*
X18920709Y29497070D01*
X18939227Y29487586D01*
X18957292Y29478303D01*
X18974353Y29469504D01*
X18989857Y29461470D01*
X19003254Y29454485D01*
X19013992Y29448830D01*
X19021519Y29444788D01*
X19025284Y29442640D01*
X19025579Y29442426D01*
X19026342Y29440524D01*
X19025650Y29437136D01*
X19023236Y29431754D01*
X19018829Y29423870D01*
X19012161Y29412978D01*
X19002963Y29398568D01*
X18999532Y29393270D01*
X18963745Y29342753D01*
X18924233Y29295544D01*
X18881253Y29251819D01*
X18835061Y29211755D01*
X18785915Y29175527D01*
X18734071Y29143310D01*
X18679786Y29115281D01*
X18623317Y29091614D01*
X18564922Y29072487D01*
X18511386Y29059392D01*
X18490451Y29055285D01*
X18471307Y29052063D01*
X18452786Y29049613D01*
X18433721Y29047823D01*
X18412944Y29046581D01*
X18389286Y29045774D01*
X18365190Y29045335D01*
X18346965Y29045140D01*
X18330071Y29045040D01*
X18315281Y29045034D01*
X18303367Y29045120D01*
X18295103Y29045296D01*
X18291530Y29045515D01*
X18285642Y29046259D01*
X18276310Y29047370D01*
X18265138Y29048659D01*
X18259780Y29049265D01*
X18204003Y29057953D01*
X18148007Y29071426D01*
X18092401Y29089455D01*
X18037794Y29111812D01*
X17984797Y29138269D01*
X17934019Y29168599D01*
X17925770Y29174045D01*
X17895798Y29194902D01*
X17869044Y29215347D01*
X17843942Y29236683D01*
X17818927Y29260210D01*
X17803718Y29275499D01*
X17761520Y29322344D01*
X17723616Y29371821D01*
X17690086Y29423764D01*
X17661014Y29478006D01*
X17636482Y29534382D01*
X17616574Y29592726D01*
X17601371Y29652871D01*
X17593187Y29698523D01*
X17591980Y29707739D01*
X17590577Y29720190D01*
X17589087Y29734693D01*
X17587618Y29750063D01*
X17586281Y29765115D01*
X17585185Y29778666D01*
X17584438Y29789530D01*
X17584150Y29796495D01*
X17586602Y29796893D01*
X17593621Y29797262D01*
X17604692Y29797595D01*
X17619304Y29797881D01*
X17636941Y29798114D01*
X17657091Y29798283D01*
X17679241Y29798380D01*
X17695519Y29798400D01*
X17806899Y29798400D01*
X17808402Y29764745D01*
G36*
X23126304Y30719908D02*
G01*
X23144850Y30719812D01*
X23258296Y30719150D01*
X22952148Y30300817D01*
X22922064Y30259702D01*
X22892787Y30219675D01*
X22864458Y30180931D01*
X22837217Y30143662D01*
X22811206Y30108060D01*
X22786566Y30074320D01*
X22763436Y30042634D01*
X22741957Y30013194D01*
X22722271Y29986194D01*
X22704518Y29961828D01*
X22688839Y29940287D01*
X22675374Y29921764D01*
X22664265Y29906454D01*
X22655651Y29894548D01*
X22649674Y29886240D01*
X22646474Y29881723D01*
X22645946Y29880913D01*
X22647407Y29878731D01*
X22651707Y29872630D01*
X22658703Y29862808D01*
X22668256Y29849459D01*
X22680224Y29832780D01*
X22694465Y29812968D01*
X22710838Y29790217D01*
X22729202Y29764725D01*
X22749416Y29736686D01*
X22771337Y29706299D01*
X22794825Y29673757D01*
X22819739Y29639258D01*
X22845938Y29602997D01*
X22873279Y29565171D01*
X22901622Y29525975D01*
X22930825Y29485605D01*
X22942671Y29469234D01*
X22972190Y29428436D01*
X23000913Y29388726D01*
X23028699Y29350299D01*
X23055405Y29313353D01*
X23080889Y29278084D01*
X23105010Y29244690D01*
X23127626Y29213365D01*
X23148595Y29184308D01*
X23167775Y29157715D01*
X23185025Y29133782D01*
X23200202Y29112707D01*
X23213164Y29094685D01*
X23223770Y29079914D01*
X23231878Y29068589D01*
X23237346Y29060909D01*
X23240033Y29057068D01*
X23240296Y29056653D01*
X23238016Y29056019D01*
X23230822Y29055478D01*
X23218878Y29055031D01*
X23202349Y29054683D01*
X23181400Y29054437D01*
X23156196Y29054297D01*
X23127266Y29054266D01*
X23013390Y29054351D01*
X22772090Y29388220D01*
X22745526Y29424963D01*
X22719765Y29460574D01*
X22694965Y29494837D01*
X22671283Y29527534D01*
X22648876Y29558450D01*
X22627902Y29587368D01*
X22608517Y29614071D01*
X22590880Y29638342D01*
X22575147Y29659966D01*
X22561475Y29678726D01*
X22550023Y29694404D01*
X22540948Y29706785D01*
X22534406Y29715653D01*
X22530556Y29720789D01*
X22529520Y29722067D01*
X22527906Y29720050D01*
X22523455Y29714146D01*
X22516324Y29704573D01*
X22506674Y29691545D01*
X22494661Y29675278D01*
X22480447Y29655990D01*
X22464188Y29633894D01*
X22446044Y29609209D01*
X22426173Y29582149D01*
X22404734Y29552930D01*
X22381887Y29521769D01*
X22357789Y29488881D01*
X22332600Y29454482D01*
X22306477Y29418789D01*
X22285680Y29390356D01*
X22258925Y29353786D01*
X22232965Y29318333D01*
X22207961Y29284214D01*
X22184072Y29251645D01*
X22161458Y29220844D01*
X22140279Y29192027D01*
X22120693Y29165411D01*
X22102863Y29141213D01*
X22086946Y29119650D01*
X22073102Y29100939D01*
X22061493Y29085296D01*
X22052276Y29072939D01*
X22045613Y29064084D01*
X22041662Y29058949D01*
X22040570Y29057665D01*
X22037574Y29057471D01*
X22030025Y29057320D01*
X22018450Y29057211D01*
X22003375Y29057147D01*
X21985327Y29057130D01*
X21964833Y29057161D01*
X21942419Y29057241D01*
X21925648Y29057328D01*
X21813267Y29057990D01*
X22419225Y29886030D01*
X22461717Y29944093D01*
X22503457Y30001122D01*
X22544343Y30056981D01*
X22584276Y30111531D01*
X22623154Y30164637D01*
X22660878Y30216161D01*
X22697347Y30265964D01*
X22732459Y30313911D01*
X22766115Y30359864D01*
X22798214Y30403686D01*
X22828655Y30445239D01*
X22857338Y30484386D01*
X22884162Y30520989D01*
X22909027Y30554913D01*
X22931832Y30586019D01*
X22952477Y30614169D01*
X22970860Y30639228D01*
X22986882Y30661057D01*
X23000441Y30679519D01*
X23011437Y30694478D01*
X23019771Y30705795D01*
X23025340Y30713333D01*
X23028045Y30716956D01*
X23028294Y30717272D01*
X23030129Y30718064D01*
X23034193Y30718708D01*
X23040860Y30719211D01*
X23050504Y30719582D01*
X23063497Y30719829D01*
X23080212Y30719961D01*
X23101024Y30719984D01*
X23126304Y30719908D01*
G37*
X23126304Y30719908D02*
X23144850Y30719812D01*
X23258296Y30719150D01*
X22952148Y30300817D01*
X22922064Y30259702D01*
X22892787Y30219675D01*
X22864458Y30180931D01*
X22837217Y30143662D01*
X22811206Y30108060D01*
X22786566Y30074320D01*
X22763436Y30042634D01*
X22741957Y30013194D01*
X22722271Y29986194D01*
X22704518Y29961828D01*
X22688839Y29940287D01*
X22675374Y29921764D01*
X22664265Y29906454D01*
X22655651Y29894548D01*
X22649674Y29886240D01*
X22646474Y29881723D01*
X22645946Y29880913D01*
X22647407Y29878731D01*
X22651707Y29872630D01*
X22658703Y29862808D01*
X22668256Y29849459D01*
X22680224Y29832780D01*
X22694465Y29812968D01*
X22710838Y29790217D01*
X22729202Y29764725D01*
X22749416Y29736686D01*
X22771337Y29706299D01*
X22794825Y29673757D01*
X22819739Y29639258D01*
X22845938Y29602997D01*
X22873279Y29565171D01*
X22901622Y29525975D01*
X22930825Y29485605D01*
X22942671Y29469234D01*
X22972190Y29428436D01*
X23000913Y29388726D01*
X23028699Y29350299D01*
X23055405Y29313353D01*
X23080889Y29278084D01*
X23105010Y29244690D01*
X23127626Y29213365D01*
X23148595Y29184308D01*
X23167775Y29157715D01*
X23185025Y29133782D01*
X23200202Y29112707D01*
X23213164Y29094685D01*
X23223770Y29079914D01*
X23231878Y29068589D01*
X23237346Y29060909D01*
X23240033Y29057068D01*
X23240296Y29056653D01*
X23238016Y29056019D01*
X23230822Y29055478D01*
X23218878Y29055031D01*
X23202349Y29054683D01*
X23181400Y29054437D01*
X23156196Y29054297D01*
X23127266Y29054266D01*
X23013390Y29054351D01*
X22772090Y29388220D01*
X22745526Y29424963D01*
X22719765Y29460574D01*
X22694965Y29494837D01*
X22671283Y29527534D01*
X22648876Y29558450D01*
X22627902Y29587368D01*
X22608517Y29614071D01*
X22590880Y29638342D01*
X22575147Y29659966D01*
X22561475Y29678726D01*
X22550023Y29694404D01*
X22540948Y29706785D01*
X22534406Y29715653D01*
X22530556Y29720789D01*
X22529520Y29722067D01*
X22527906Y29720050D01*
X22523455Y29714146D01*
X22516324Y29704573D01*
X22506674Y29691545D01*
X22494661Y29675278D01*
X22480447Y29655990D01*
X22464188Y29633894D01*
X22446044Y29609209D01*
X22426173Y29582149D01*
X22404734Y29552930D01*
X22381887Y29521769D01*
X22357789Y29488881D01*
X22332600Y29454482D01*
X22306477Y29418789D01*
X22285680Y29390356D01*
X22258925Y29353786D01*
X22232965Y29318333D01*
X22207961Y29284214D01*
X22184072Y29251645D01*
X22161458Y29220844D01*
X22140279Y29192027D01*
X22120693Y29165411D01*
X22102863Y29141213D01*
X22086946Y29119650D01*
X22073102Y29100939D01*
X22061493Y29085296D01*
X22052276Y29072939D01*
X22045613Y29064084D01*
X22041662Y29058949D01*
X22040570Y29057665D01*
X22037574Y29057471D01*
X22030025Y29057320D01*
X22018450Y29057211D01*
X22003375Y29057147D01*
X21985327Y29057130D01*
X21964833Y29057161D01*
X21942419Y29057241D01*
X21925648Y29057328D01*
X21813267Y29057990D01*
X22419225Y29886030D01*
X22461717Y29944093D01*
X22503457Y30001122D01*
X22544343Y30056981D01*
X22584276Y30111531D01*
X22623154Y30164637D01*
X22660878Y30216161D01*
X22697347Y30265964D01*
X22732459Y30313911D01*
X22766115Y30359864D01*
X22798214Y30403686D01*
X22828655Y30445239D01*
X22857338Y30484386D01*
X22884162Y30520989D01*
X22909027Y30554913D01*
X22931832Y30586019D01*
X22952477Y30614169D01*
X22970860Y30639228D01*
X22986882Y30661057D01*
X23000441Y30679519D01*
X23011437Y30694478D01*
X23019771Y30705795D01*
X23025340Y30713333D01*
X23028045Y30716956D01*
X23028294Y30717272D01*
X23030129Y30718064D01*
X23034193Y30718708D01*
X23040860Y30719211D01*
X23050504Y30719582D01*
X23063497Y30719829D01*
X23080212Y30719961D01*
X23101024Y30719984D01*
X23126304Y30719908D01*
G36*
X17182820Y30512140D02*
G01*
X16309060Y30512140D01*
X16309060Y30199720D01*
X16085540Y30199720D01*
X16085540Y30733120D01*
X17182820Y30733120D01*
X17182820Y30512140D01*
G37*
X17182820Y30512140D02*
X16309060Y30512140D01*
X16309060Y30199720D01*
X16085540Y30199720D01*
X16085540Y30733120D01*
X17182820Y30733120D01*
X17182820Y30512140D01*
G36*
X20700720Y30504520D02*
G01*
X19331660Y30504520D01*
X19331660Y30725500D01*
X20700720Y30725500D01*
X20700720Y30504520D01*
G37*
X20700720Y30504520D02*
X19331660Y30504520D01*
X19331660Y30725500D01*
X20700720Y30725500D01*
X20700720Y30504520D01*
G36*
X17068520Y29790780D02*
G01*
X16309060Y29790780D01*
X16309060Y29447880D01*
X16088080Y29447880D01*
X16088080Y30014300D01*
X17068520Y30014300D01*
X17068520Y29790780D01*
G37*
X17068520Y29790780D02*
X16309060Y29790780D01*
X16309060Y29447880D01*
X16088080Y29447880D01*
X16088080Y30014300D01*
X17068520Y30014300D01*
X17068520Y29790780D01*
G36*
X15638500Y29046560D02*
G01*
X14490420Y29046560D01*
X14490420Y29270080D01*
X15638500Y29270080D01*
X15638500Y29046560D01*
G37*
X15638500Y29046560D02*
X14490420Y29046560D01*
X14490420Y29270080D01*
X15638500Y29270080D01*
X15638500Y29046560D01*
G36*
X20121600Y29054180D02*
G01*
X19900620Y29054180D01*
X19900620Y30336880D01*
X20121600Y30336880D01*
X20121600Y29054180D01*
G37*
X20121600Y29054180D02*
X19900620Y29054180D01*
X19900620Y30336880D01*
X20121600Y30336880D01*
X20121600Y29054180D01*
G36*
X18376209Y30728885D02*
G01*
X18397949Y30728102D01*
X18416476Y30726865D01*
X18424880Y30725987D01*
X18486536Y30715889D01*
X18546482Y30701142D01*
X18604502Y30681880D01*
X18660380Y30658240D01*
X18713901Y30630358D01*
X18764850Y30598368D01*
X18813012Y30562408D01*
X18858171Y30522612D01*
X18900111Y30479116D01*
X18938617Y30432056D01*
X18973475Y30381567D01*
X18974753Y30379538D01*
X18980950Y30369396D01*
X18985873Y30360824D01*
X18989032Y30354716D01*
X18989933Y30351966D01*
X18989927Y30351954D01*
X18987616Y30350206D01*
X18981584Y30346064D01*
X18972376Y30339884D01*
X18960541Y30332024D01*
X18946627Y30322841D01*
X18931181Y30312692D01*
X18914750Y30301934D01*
X18897883Y30290925D01*
X18881127Y30280021D01*
X18865029Y30269581D01*
X18850138Y30259961D01*
X18837000Y30251518D01*
X18826165Y30244610D01*
X18818178Y30239593D01*
X18813588Y30236826D01*
X18812794Y30236416D01*
X18809968Y30237282D01*
X18805905Y30241905D01*
X18800305Y30250661D01*
X18797184Y30256086D01*
X18780089Y30283572D01*
X18759427Y30311998D01*
X18736229Y30340148D01*
X18711528Y30366803D01*
X18686356Y30390746D01*
X18674480Y30400860D01*
X18633846Y30430828D01*
X18590247Y30456873D01*
X18544196Y30478774D01*
X18496208Y30496310D01*
X18446797Y30509260D01*
X18406452Y30516187D01*
X18384946Y30518232D01*
X18360221Y30519278D01*
X18333760Y30519363D01*
X18307045Y30518520D01*
X18281557Y30516786D01*
X18258779Y30514196D01*
X18247826Y30512397D01*
X18197286Y30500392D01*
X18148775Y30483901D01*
X18102534Y30463143D01*
X18058804Y30438334D01*
X18017826Y30409692D01*
X17979841Y30377434D01*
X17945090Y30341777D01*
X17913814Y30302938D01*
X17886252Y30261136D01*
X17862648Y30216587D01*
X17843240Y30169508D01*
X17833199Y30138379D01*
X17822556Y30093948D01*
X17815928Y30047895D01*
X17813432Y30009855D01*
X17812028Y29968580D01*
X17591031Y29968580D01*
X17592507Y30013665D01*
X17596951Y30073235D01*
X17606239Y30131781D01*
X17620196Y30189055D01*
X17638643Y30244808D01*
X17661405Y30298794D01*
X17688306Y30350761D01*
X17719168Y30400463D01*
X17753816Y30447651D01*
X17792073Y30492077D01*
X17833762Y30533490D01*
X17878708Y30571645D01*
X17926733Y30606291D01*
X17977661Y30637180D01*
X18031316Y30664064D01*
X18064200Y30677954D01*
X18117077Y30696535D01*
X18171789Y30711237D01*
X18229205Y30722284D01*
X18244540Y30724566D01*
X18260719Y30726312D01*
X18280782Y30727661D01*
X18303544Y30728601D01*
X18327825Y30729125D01*
X18352441Y30729223D01*
X18376209Y30728885D01*
G37*
X18376209Y30728885D02*
X18397949Y30728102D01*
X18416476Y30726865D01*
X18424880Y30725987D01*
X18486536Y30715889D01*
X18546482Y30701142D01*
X18604502Y30681880D01*
X18660380Y30658240D01*
X18713901Y30630358D01*
X18764850Y30598368D01*
X18813012Y30562408D01*
X18858171Y30522612D01*
X18900111Y30479116D01*
X18938617Y30432056D01*
X18973475Y30381567D01*
X18974753Y30379538D01*
X18980950Y30369396D01*
X18985873Y30360824D01*
X18989032Y30354716D01*
X18989933Y30351966D01*
X18989927Y30351954D01*
X18987616Y30350206D01*
X18981584Y30346064D01*
X18972376Y30339884D01*
X18960541Y30332024D01*
X18946627Y30322841D01*
X18931181Y30312692D01*
X18914750Y30301934D01*
X18897883Y30290925D01*
X18881127Y30280021D01*
X18865029Y30269581D01*
X18850138Y30259961D01*
X18837000Y30251518D01*
X18826165Y30244610D01*
X18818178Y30239593D01*
X18813588Y30236826D01*
X18812794Y30236416D01*
X18809968Y30237282D01*
X18805905Y30241905D01*
X18800305Y30250661D01*
X18797184Y30256086D01*
X18780089Y30283572D01*
X18759427Y30311998D01*
X18736229Y30340148D01*
X18711528Y30366803D01*
X18686356Y30390746D01*
X18674480Y30400860D01*
X18633846Y30430828D01*
X18590247Y30456873D01*
X18544196Y30478774D01*
X18496208Y30496310D01*
X18446797Y30509260D01*
X18406452Y30516187D01*
X18384946Y30518232D01*
X18360221Y30519278D01*
X18333760Y30519363D01*
X18307045Y30518520D01*
X18281557Y30516786D01*
X18258779Y30514196D01*
X18247826Y30512397D01*
X18197286Y30500392D01*
X18148775Y30483901D01*
X18102534Y30463143D01*
X18058804Y30438334D01*
X18017826Y30409692D01*
X17979841Y30377434D01*
X17945090Y30341777D01*
X17913814Y30302938D01*
X17886252Y30261136D01*
X17862648Y30216587D01*
X17843240Y30169508D01*
X17833199Y30138379D01*
X17822556Y30093948D01*
X17815928Y30047895D01*
X17813432Y30009855D01*
X17812028Y29968580D01*
X17591031Y29968580D01*
X17592507Y30013665D01*
X17596951Y30073235D01*
X17606239Y30131781D01*
X17620196Y30189055D01*
X17638643Y30244808D01*
X17661405Y30298794D01*
X17688306Y30350761D01*
X17719168Y30400463D01*
X17753816Y30447651D01*
X17792073Y30492077D01*
X17833762Y30533490D01*
X17878708Y30571645D01*
X17926733Y30606291D01*
X17977661Y30637180D01*
X18031316Y30664064D01*
X18064200Y30677954D01*
X18117077Y30696535D01*
X18171789Y30711237D01*
X18229205Y30722284D01*
X18244540Y30724566D01*
X18260719Y30726312D01*
X18280782Y30727661D01*
X18303544Y30728601D01*
X18327825Y30729125D01*
X18352441Y30729223D01*
X18376209Y30728885D01*
G36*
X21368740Y29054180D02*
G01*
X21147760Y29054180D01*
X21147760Y30725500D01*
X21368740Y30725500D01*
X21368740Y29054180D01*
G37*
X21368740Y29054180D02*
X21147760Y29054180D01*
X21147760Y30725500D01*
X21368740Y30725500D01*
X21368740Y29054180D01*
G36*
X22010968Y30725500D02*
G01*
X22216269Y30442956D01*
X22240799Y30409165D01*
X22264493Y30376463D01*
X22287180Y30345091D01*
X22308689Y30315286D01*
X22328848Y30287289D01*
X22347487Y30261337D01*
X22364435Y30237671D01*
X22379520Y30216530D01*
X22392571Y30198152D01*
X22403418Y30182777D01*
X22411889Y30170644D01*
X22417814Y30161991D01*
X22421021Y30157058D01*
X22421570Y30155979D01*
X22420129Y30152999D01*
X22416077Y30146561D01*
X22409817Y30137221D01*
X22401755Y30125539D01*
X22392293Y30112072D01*
X22381838Y30097378D01*
X22370793Y30082016D01*
X22359562Y30066543D01*
X22348551Y30051517D01*
X22338162Y30037496D01*
X22328801Y30025038D01*
X22320872Y30014702D01*
X22314779Y30007045D01*
X22310927Y30002625D01*
X22309810Y30001753D01*
X22308071Y30003777D01*
X22303504Y30009705D01*
X22296264Y30019329D01*
X22286502Y30032439D01*
X22274373Y30048826D01*
X22260029Y30068281D01*
X22243625Y30090595D01*
X22225313Y30115558D01*
X22205247Y30142963D01*
X22183579Y30172598D01*
X22160465Y30204257D01*
X22136056Y30237728D01*
X22110506Y30272804D01*
X22083968Y30309276D01*
X22056596Y30346933D01*
X22048190Y30358507D01*
X22020558Y30396555D01*
X21993707Y30433532D01*
X21967789Y30469228D01*
X21942960Y30503428D01*
X21919374Y30535919D01*
X21897186Y30566489D01*
X21876549Y30594925D01*
X21857618Y30621015D01*
X21840548Y30644544D01*
X21825493Y30665301D01*
X21812608Y30683073D01*
X21802047Y30697646D01*
X21793964Y30708808D01*
X21788514Y30716346D01*
X21785851Y30720048D01*
X21785625Y30720370D01*
X21784877Y30721583D01*
X21784715Y30722588D01*
X21785563Y30723405D01*
X21787844Y30724053D01*
X21791981Y30724551D01*
X21798399Y30724919D01*
X21807522Y30725177D01*
X21819772Y30725345D01*
X21835573Y30725441D01*
X21855349Y30725486D01*
X21879525Y30725500D01*
X21896554Y30725501D01*
X22010968Y30725500D01*
G37*
X22010968Y30725500D02*
X22216269Y30442956D01*
X22240799Y30409165D01*
X22264493Y30376463D01*
X22287180Y30345091D01*
X22308689Y30315286D01*
X22328848Y30287289D01*
X22347487Y30261337D01*
X22364435Y30237671D01*
X22379520Y30216530D01*
X22392571Y30198152D01*
X22403418Y30182777D01*
X22411889Y30170644D01*
X22417814Y30161991D01*
X22421021Y30157058D01*
X22421570Y30155979D01*
X22420129Y30152999D01*
X22416077Y30146561D01*
X22409817Y30137221D01*
X22401755Y30125539D01*
X22392293Y30112072D01*
X22381838Y30097378D01*
X22370793Y30082016D01*
X22359562Y30066543D01*
X22348551Y30051517D01*
X22338162Y30037496D01*
X22328801Y30025038D01*
X22320872Y30014702D01*
X22314779Y30007045D01*
X22310927Y30002625D01*
X22309810Y30001753D01*
X22308071Y30003777D01*
X22303504Y30009705D01*
X22296264Y30019329D01*
X22286502Y30032439D01*
X22274373Y30048826D01*
X22260029Y30068281D01*
X22243625Y30090595D01*
X22225313Y30115558D01*
X22205247Y30142963D01*
X22183579Y30172598D01*
X22160465Y30204257D01*
X22136056Y30237728D01*
X22110506Y30272804D01*
X22083968Y30309276D01*
X22056596Y30346933D01*
X22048190Y30358507D01*
X22020558Y30396555D01*
X21993707Y30433532D01*
X21967789Y30469228D01*
X21942960Y30503428D01*
X21919374Y30535919D01*
X21897186Y30566489D01*
X21876549Y30594925D01*
X21857618Y30621015D01*
X21840548Y30644544D01*
X21825493Y30665301D01*
X21812608Y30683073D01*
X21802047Y30697646D01*
X21793964Y30708808D01*
X21788514Y30716346D01*
X21785851Y30720048D01*
X21785625Y30720370D01*
X21784877Y30721583D01*
X21784715Y30722588D01*
X21785563Y30723405D01*
X21787844Y30724053D01*
X21791981Y30724551D01*
X21798399Y30724919D01*
X21807522Y30725177D01*
X21819772Y30725345D01*
X21835573Y30725441D01*
X21855349Y30725486D01*
X21879525Y30725500D01*
X21896554Y30725501D01*
X22010968Y30725500D01*
G36*
X17182820Y29046560D02*
G01*
X16090620Y29046560D01*
X16090620Y29270080D01*
X17182820Y29270080D01*
X17182820Y29046560D01*
G37*
X17182820Y29046560D02*
X16090620Y29046560D01*
X16090620Y29270080D01*
X17182820Y29270080D01*
X17182820Y29046560D01*
G36*
X14711400Y29447880D02*
G01*
X14490420Y29447880D01*
X14490420Y30722960D01*
X14711400Y30722960D01*
X14711400Y29447880D01*
G37*
X14711400Y29447880D02*
X14490420Y29447880D01*
X14490420Y30722960D01*
X14711400Y30722960D01*
X14711400Y29447880D01*
G36*
X17808402Y29764745D02*
G01*
X17813120Y29715358D01*
X17822714Y29666609D01*
X17836988Y29618874D01*
X17855743Y29572528D01*
X17878784Y29527945D01*
X17905913Y29485500D01*
X17936933Y29445568D01*
X17971648Y29408524D01*
X18009860Y29374742D01*
X18015940Y29369934D01*
X18056038Y29341807D01*
X18099345Y29317246D01*
X18145214Y29296509D01*
X18192999Y29279853D01*
X18242054Y29267534D01*
X18291733Y29259809D01*
X18293061Y29259669D01*
X18314417Y29258188D01*
X18339012Y29257723D01*
X18365170Y29258216D01*
X18391216Y29259607D01*
X18415475Y29261839D01*
X18435040Y29264631D01*
X18485420Y29276032D01*
X18534171Y29291989D01*
X18580973Y29312278D01*
X18625506Y29336674D01*
X18667447Y29364950D01*
X18706477Y29396881D01*
X18742275Y29432243D01*
X18774521Y29470811D01*
X18802893Y29512358D01*
X18813459Y29530430D01*
X18817764Y29538134D01*
X18820977Y29543838D01*
X18822419Y29546340D01*
X18822428Y29546352D01*
X18824718Y29545411D01*
X18830966Y29542414D01*
X18840622Y29537644D01*
X18853134Y29531383D01*
X18867950Y29523913D01*
X18884518Y29515516D01*
X18902288Y29506474D01*
X18920709Y29497070D01*
X18939227Y29487586D01*
X18957292Y29478303D01*
X18974353Y29469504D01*
X18989857Y29461470D01*
X19003254Y29454485D01*
X19013992Y29448830D01*
X19021519Y29444788D01*
X19025284Y29442640D01*
X19025579Y29442426D01*
X19026342Y29440524D01*
X19025650Y29437136D01*
X19023236Y29431754D01*
X19018829Y29423870D01*
X19012161Y29412978D01*
X19002963Y29398568D01*
X18999532Y29393270D01*
X18963745Y29342753D01*
X18924233Y29295544D01*
X18881253Y29251819D01*
X18835061Y29211755D01*
X18785915Y29175527D01*
X18734071Y29143310D01*
X18679786Y29115281D01*
X18623317Y29091614D01*
X18564922Y29072487D01*
X18511386Y29059392D01*
X18490451Y29055285D01*
X18471307Y29052063D01*
X18452786Y29049613D01*
X18433721Y29047823D01*
X18412944Y29046581D01*
X18389286Y29045774D01*
X18365190Y29045335D01*
X18346965Y29045140D01*
X18330071Y29045040D01*
X18315281Y29045034D01*
X18303367Y29045120D01*
X18295103Y29045296D01*
X18291530Y29045515D01*
X18285642Y29046259D01*
X18276310Y29047370D01*
X18265138Y29048659D01*
X18259780Y29049265D01*
X18204003Y29057953D01*
X18148007Y29071426D01*
X18092401Y29089455D01*
X18037794Y29111812D01*
X17984797Y29138269D01*
X17934019Y29168599D01*
X17925770Y29174045D01*
X17895798Y29194902D01*
X17869044Y29215347D01*
X17843942Y29236683D01*
X17818927Y29260210D01*
X17803718Y29275499D01*
X17761520Y29322344D01*
X17723616Y29371821D01*
X17690086Y29423764D01*
X17661014Y29478006D01*
X17636482Y29534382D01*
X17616574Y29592726D01*
X17601371Y29652871D01*
X17593187Y29698523D01*
X17591980Y29707739D01*
X17590577Y29720190D01*
X17589087Y29734693D01*
X17587618Y29750063D01*
X17586281Y29765115D01*
X17585185Y29778666D01*
X17584438Y29789530D01*
X17584150Y29796495D01*
X17586602Y29796893D01*
X17593621Y29797262D01*
X17604692Y29797595D01*
X17619304Y29797881D01*
X17636941Y29798114D01*
X17657091Y29798283D01*
X17679241Y29798380D01*
X17695519Y29798400D01*
X17806899Y29798400D01*
X17808402Y29764745D01*
G37*
X17808402Y29764745D02*
X17813120Y29715358D01*
X17822714Y29666609D01*
X17836988Y29618874D01*
X17855743Y29572528D01*
X17878784Y29527945D01*
X17905913Y29485500D01*
X17936933Y29445568D01*
X17971648Y29408524D01*
X18009860Y29374742D01*
X18015940Y29369934D01*
X18056038Y29341807D01*
X18099345Y29317246D01*
X18145214Y29296509D01*
X18192999Y29279853D01*
X18242054Y29267534D01*
X18291733Y29259809D01*
X18293061Y29259669D01*
X18314417Y29258188D01*
X18339012Y29257723D01*
X18365170Y29258216D01*
X18391216Y29259607D01*
X18415475Y29261839D01*
X18435040Y29264631D01*
X18485420Y29276032D01*
X18534171Y29291989D01*
X18580973Y29312278D01*
X18625506Y29336674D01*
X18667447Y29364950D01*
X18706477Y29396881D01*
X18742275Y29432243D01*
X18774521Y29470811D01*
X18802893Y29512358D01*
X18813459Y29530430D01*
X18817764Y29538134D01*
X18820977Y29543838D01*
X18822419Y29546340D01*
X18822428Y29546352D01*
X18824718Y29545411D01*
X18830966Y29542414D01*
X18840622Y29537644D01*
X18853134Y29531383D01*
X18867950Y29523913D01*
X18884518Y29515516D01*
X18902288Y29506474D01*
X18920709Y29497070D01*
X18939227Y29487586D01*
X18957292Y29478303D01*
X18974353Y29469504D01*
X18989857Y29461470D01*
X19003254Y29454485D01*
X19013992Y29448830D01*
X19021519Y29444788D01*
X19025284Y29442640D01*
X19025579Y29442426D01*
X19026342Y29440524D01*
X19025650Y29437136D01*
X19023236Y29431754D01*
X19018829Y29423870D01*
X19012161Y29412978D01*
X19002963Y29398568D01*
X18999532Y29393270D01*
X18963745Y29342753D01*
X18924233Y29295544D01*
X18881253Y29251819D01*
X18835061Y29211755D01*
X18785915Y29175527D01*
X18734071Y29143310D01*
X18679786Y29115281D01*
X18623317Y29091614D01*
X18564922Y29072487D01*
X18511386Y29059392D01*
X18490451Y29055285D01*
X18471307Y29052063D01*
X18452786Y29049613D01*
X18433721Y29047823D01*
X18412944Y29046581D01*
X18389286Y29045774D01*
X18365190Y29045335D01*
X18346965Y29045140D01*
X18330071Y29045040D01*
X18315281Y29045034D01*
X18303367Y29045120D01*
X18295103Y29045296D01*
X18291530Y29045515D01*
X18285642Y29046259D01*
X18276310Y29047370D01*
X18265138Y29048659D01*
X18259780Y29049265D01*
X18204003Y29057953D01*
X18148007Y29071426D01*
X18092401Y29089455D01*
X18037794Y29111812D01*
X17984797Y29138269D01*
X17934019Y29168599D01*
X17925770Y29174045D01*
X17895798Y29194902D01*
X17869044Y29215347D01*
X17843942Y29236683D01*
X17818927Y29260210D01*
X17803718Y29275499D01*
X17761520Y29322344D01*
X17723616Y29371821D01*
X17690086Y29423764D01*
X17661014Y29478006D01*
X17636482Y29534382D01*
X17616574Y29592726D01*
X17601371Y29652871D01*
X17593187Y29698523D01*
X17591980Y29707739D01*
X17590577Y29720190D01*
X17589087Y29734693D01*
X17587618Y29750063D01*
X17586281Y29765115D01*
X17585185Y29778666D01*
X17584438Y29789530D01*
X17584150Y29796495D01*
X17586602Y29796893D01*
X17593621Y29797262D01*
X17604692Y29797595D01*
X17619304Y29797881D01*
X17636941Y29798114D01*
X17657091Y29798283D01*
X17679241Y29798380D01*
X17695519Y29798400D01*
X17806899Y29798400D01*
X17808402Y29764745D01*
G36*
X23126304Y30719908D02*
G01*
X23144850Y30719812D01*
X23258296Y30719150D01*
X22952148Y30300817D01*
X22922064Y30259702D01*
X22892787Y30219675D01*
X22864458Y30180931D01*
X22837217Y30143662D01*
X22811206Y30108060D01*
X22786566Y30074320D01*
X22763436Y30042634D01*
X22741957Y30013194D01*
X22722271Y29986194D01*
X22704518Y29961828D01*
X22688839Y29940287D01*
X22675374Y29921764D01*
X22664265Y29906454D01*
X22655651Y29894548D01*
X22649674Y29886240D01*
X22646474Y29881723D01*
X22645946Y29880913D01*
X22647407Y29878731D01*
X22651707Y29872630D01*
X22658703Y29862808D01*
X22668256Y29849459D01*
X22680224Y29832780D01*
X22694465Y29812968D01*
X22710838Y29790217D01*
X22729202Y29764725D01*
X22749416Y29736686D01*
X22771337Y29706299D01*
X22794825Y29673757D01*
X22819739Y29639258D01*
X22845938Y29602997D01*
X22873279Y29565171D01*
X22901622Y29525975D01*
X22930825Y29485605D01*
X22942671Y29469234D01*
X22972190Y29428436D01*
X23000913Y29388726D01*
X23028699Y29350299D01*
X23055405Y29313353D01*
X23080889Y29278084D01*
X23105010Y29244690D01*
X23127626Y29213365D01*
X23148595Y29184308D01*
X23167775Y29157715D01*
X23185025Y29133782D01*
X23200202Y29112707D01*
X23213164Y29094685D01*
X23223770Y29079914D01*
X23231878Y29068589D01*
X23237346Y29060909D01*
X23240033Y29057068D01*
X23240296Y29056653D01*
X23238016Y29056019D01*
X23230822Y29055478D01*
X23218878Y29055031D01*
X23202349Y29054683D01*
X23181400Y29054437D01*
X23156196Y29054297D01*
X23127266Y29054266D01*
X23013390Y29054351D01*
X22772090Y29388220D01*
X22745526Y29424963D01*
X22719765Y29460574D01*
X22694965Y29494837D01*
X22671283Y29527534D01*
X22648876Y29558450D01*
X22627902Y29587368D01*
X22608517Y29614071D01*
X22590880Y29638342D01*
X22575147Y29659966D01*
X22561475Y29678726D01*
X22550023Y29694404D01*
X22540948Y29706785D01*
X22534406Y29715653D01*
X22530556Y29720789D01*
X22529520Y29722067D01*
X22527906Y29720050D01*
X22523455Y29714146D01*
X22516324Y29704573D01*
X22506674Y29691545D01*
X22494661Y29675278D01*
X22480447Y29655990D01*
X22464188Y29633894D01*
X22446044Y29609209D01*
X22426173Y29582149D01*
X22404734Y29552930D01*
X22381887Y29521769D01*
X22357789Y29488881D01*
X22332600Y29454482D01*
X22306477Y29418789D01*
X22285680Y29390356D01*
X22258925Y29353786D01*
X22232965Y29318333D01*
X22207961Y29284214D01*
X22184072Y29251645D01*
X22161458Y29220844D01*
X22140279Y29192027D01*
X22120693Y29165411D01*
X22102863Y29141213D01*
X22086946Y29119650D01*
X22073102Y29100939D01*
X22061493Y29085296D01*
X22052276Y29072939D01*
X22045613Y29064084D01*
X22041662Y29058949D01*
X22040570Y29057665D01*
X22037574Y29057471D01*
X22030025Y29057320D01*
X22018450Y29057211D01*
X22003375Y29057147D01*
X21985327Y29057130D01*
X21964833Y29057161D01*
X21942419Y29057241D01*
X21925648Y29057328D01*
X21813267Y29057990D01*
X22419225Y29886030D01*
X22461717Y29944093D01*
X22503457Y30001122D01*
X22544343Y30056981D01*
X22584276Y30111531D01*
X22623154Y30164637D01*
X22660878Y30216161D01*
X22697347Y30265964D01*
X22732459Y30313911D01*
X22766115Y30359864D01*
X22798214Y30403686D01*
X22828655Y30445239D01*
X22857338Y30484386D01*
X22884162Y30520989D01*
X22909027Y30554913D01*
X22931832Y30586019D01*
X22952477Y30614169D01*
X22970860Y30639228D01*
X22986882Y30661057D01*
X23000441Y30679519D01*
X23011437Y30694478D01*
X23019771Y30705795D01*
X23025340Y30713333D01*
X23028045Y30716956D01*
X23028294Y30717272D01*
X23030129Y30718064D01*
X23034193Y30718708D01*
X23040860Y30719211D01*
X23050504Y30719582D01*
X23063497Y30719829D01*
X23080212Y30719961D01*
X23101024Y30719984D01*
X23126304Y30719908D01*
G37*
X23126304Y30719908D02*
X23144850Y30719812D01*
X23258296Y30719150D01*
X22952148Y30300817D01*
X22922064Y30259702D01*
X22892787Y30219675D01*
X22864458Y30180931D01*
X22837217Y30143662D01*
X22811206Y30108060D01*
X22786566Y30074320D01*
X22763436Y30042634D01*
X22741957Y30013194D01*
X22722271Y29986194D01*
X22704518Y29961828D01*
X22688839Y29940287D01*
X22675374Y29921764D01*
X22664265Y29906454D01*
X22655651Y29894548D01*
X22649674Y29886240D01*
X22646474Y29881723D01*
X22645946Y29880913D01*
X22647407Y29878731D01*
X22651707Y29872630D01*
X22658703Y29862808D01*
X22668256Y29849459D01*
X22680224Y29832780D01*
X22694465Y29812968D01*
X22710838Y29790217D01*
X22729202Y29764725D01*
X22749416Y29736686D01*
X22771337Y29706299D01*
X22794825Y29673757D01*
X22819739Y29639258D01*
X22845938Y29602997D01*
X22873279Y29565171D01*
X22901622Y29525975D01*
X22930825Y29485605D01*
X22942671Y29469234D01*
X22972190Y29428436D01*
X23000913Y29388726D01*
X23028699Y29350299D01*
X23055405Y29313353D01*
X23080889Y29278084D01*
X23105010Y29244690D01*
X23127626Y29213365D01*
X23148595Y29184308D01*
X23167775Y29157715D01*
X23185025Y29133782D01*
X23200202Y29112707D01*
X23213164Y29094685D01*
X23223770Y29079914D01*
X23231878Y29068589D01*
X23237346Y29060909D01*
X23240033Y29057068D01*
X23240296Y29056653D01*
X23238016Y29056019D01*
X23230822Y29055478D01*
X23218878Y29055031D01*
X23202349Y29054683D01*
X23181400Y29054437D01*
X23156196Y29054297D01*
X23127266Y29054266D01*
X23013390Y29054351D01*
X22772090Y29388220D01*
X22745526Y29424963D01*
X22719765Y29460574D01*
X22694965Y29494837D01*
X22671283Y29527534D01*
X22648876Y29558450D01*
X22627902Y29587368D01*
X22608517Y29614071D01*
X22590880Y29638342D01*
X22575147Y29659966D01*
X22561475Y29678726D01*
X22550023Y29694404D01*
X22540948Y29706785D01*
X22534406Y29715653D01*
X22530556Y29720789D01*
X22529520Y29722067D01*
X22527906Y29720050D01*
X22523455Y29714146D01*
X22516324Y29704573D01*
X22506674Y29691545D01*
X22494661Y29675278D01*
X22480447Y29655990D01*
X22464188Y29633894D01*
X22446044Y29609209D01*
X22426173Y29582149D01*
X22404734Y29552930D01*
X22381887Y29521769D01*
X22357789Y29488881D01*
X22332600Y29454482D01*
X22306477Y29418789D01*
X22285680Y29390356D01*
X22258925Y29353786D01*
X22232965Y29318333D01*
X22207961Y29284214D01*
X22184072Y29251645D01*
X22161458Y29220844D01*
X22140279Y29192027D01*
X22120693Y29165411D01*
X22102863Y29141213D01*
X22086946Y29119650D01*
X22073102Y29100939D01*
X22061493Y29085296D01*
X22052276Y29072939D01*
X22045613Y29064084D01*
X22041662Y29058949D01*
X22040570Y29057665D01*
X22037574Y29057471D01*
X22030025Y29057320D01*
X22018450Y29057211D01*
X22003375Y29057147D01*
X21985327Y29057130D01*
X21964833Y29057161D01*
X21942419Y29057241D01*
X21925648Y29057328D01*
X21813267Y29057990D01*
X22419225Y29886030D01*
X22461717Y29944093D01*
X22503457Y30001122D01*
X22544343Y30056981D01*
X22584276Y30111531D01*
X22623154Y30164637D01*
X22660878Y30216161D01*
X22697347Y30265964D01*
X22732459Y30313911D01*
X22766115Y30359864D01*
X22798214Y30403686D01*
X22828655Y30445239D01*
X22857338Y30484386D01*
X22884162Y30520989D01*
X22909027Y30554913D01*
X22931832Y30586019D01*
X22952477Y30614169D01*
X22970860Y30639228D01*
X22986882Y30661057D01*
X23000441Y30679519D01*
X23011437Y30694478D01*
X23019771Y30705795D01*
X23025340Y30713333D01*
X23028045Y30716956D01*
X23028294Y30717272D01*
X23030129Y30718064D01*
X23034193Y30718708D01*
X23040860Y30719211D01*
X23050504Y30719582D01*
X23063497Y30719829D01*
X23080212Y30719961D01*
X23101024Y30719984D01*
X23126304Y30719908D01*
G36*
X17182820Y30512140D02*
G01*
X16309060Y30512140D01*
X16309060Y30199720D01*
X16085540Y30199720D01*
X16085540Y30733120D01*
X17182820Y30733120D01*
X17182820Y30512140D01*
G37*
X17182820Y30512140D02*
X16309060Y30512140D01*
X16309060Y30199720D01*
X16085540Y30199720D01*
X16085540Y30733120D01*
X17182820Y30733120D01*
X17182820Y30512140D01*
G36*
X20700720Y30504520D02*
G01*
X19331660Y30504520D01*
X19331660Y30725500D01*
X20700720Y30725500D01*
X20700720Y30504520D01*
G37*
X20700720Y30504520D02*
X19331660Y30504520D01*
X19331660Y30725500D01*
X20700720Y30725500D01*
X20700720Y30504520D01*
G36*
X17068520Y29790780D02*
G01*
X16309060Y29790780D01*
X16309060Y29447880D01*
X16088080Y29447880D01*
X16088080Y30014300D01*
X17068520Y30014300D01*
X17068520Y29790780D01*
G37*
X17068520Y29790780D02*
X16309060Y29790780D01*
X16309060Y29447880D01*
X16088080Y29447880D01*
X16088080Y30014300D01*
X17068520Y30014300D01*
X17068520Y29790780D01*
G36*
X15638500Y29046560D02*
G01*
X14490420Y29046560D01*
X14490420Y29270080D01*
X15638500Y29270080D01*
X15638500Y29046560D01*
G37*
X15638500Y29046560D02*
X14490420Y29046560D01*
X14490420Y29270080D01*
X15638500Y29270080D01*
X15638500Y29046560D01*
G36*
X20121600Y29054180D02*
G01*
X19900620Y29054180D01*
X19900620Y30336880D01*
X20121600Y30336880D01*
X20121600Y29054180D01*
G37*
X20121600Y29054180D02*
X19900620Y29054180D01*
X19900620Y30336880D01*
X20121600Y30336880D01*
X20121600Y29054180D01*
G04 #@! TD*
D11*
G04 #@! TO.C,C2*
X28787500Y14300000D03*
X27212500Y14300000D03*
G04 #@! TD*
D12*
G04 #@! TO.C,C3*
X52000000Y9700000D03*
X52000000Y5300000D03*
G04 #@! TD*
D11*
G04 #@! TO.C,C4*
X36175000Y17000000D03*
X34600000Y17000000D03*
G04 #@! TD*
D13*
G04 #@! TO.C,D2*
X21600000Y23300000D03*
X21600000Y19300000D03*
G04 #@! TD*
G04 #@! TO.C,D3*
X21600000Y15300000D03*
X21600000Y11300000D03*
G04 #@! TD*
D14*
G04 #@! TO.C,D4*
X17600000Y19300000D03*
X17600000Y23300000D03*
G04 #@! TD*
G04 #@! TO.C,D5*
X17600000Y11300000D03*
X17600000Y15300000D03*
G04 #@! TD*
D13*
G04 #@! TO.C,D6*
X33000000Y10000000D03*
X33000000Y6000000D03*
G04 #@! TD*
D15*
G04 #@! TO.C,D7*
X52800000Y15512500D03*
X52800000Y17087500D03*
G04 #@! TD*
D13*
G04 #@! TO.C,D8*
X55800000Y17550000D03*
X55800000Y13550000D03*
G04 #@! TD*
D16*
G04 #@! TO.C,J1*
X59400000Y27100000D03*
D17*
X54320000Y27100000D03*
G04 #@! TD*
D18*
G04 #@! TO.C,J2*
X9400000Y28100000D03*
D17*
X9400000Y23020000D03*
G04 #@! TD*
D18*
G04 #@! TO.C,J3*
X9400000Y10500000D03*
D17*
X9400000Y5420000D03*
G04 #@! TD*
D16*
G04 #@! TO.C,J5*
X76200000Y27100000D03*
D17*
X71120000Y27100000D03*
X66040000Y27100000D03*
G04 #@! TD*
D19*
G04 #@! TO.C,J6*
X66000000Y6900000D03*
D17*
X71080000Y6900000D03*
X76160000Y6900000D03*
G04 #@! TD*
D11*
G04 #@! TO.C,R2*
X36175000Y18500000D03*
X34600000Y18500000D03*
G04 #@! TD*
D15*
G04 #@! TO.C,R3*
X33000000Y18700000D03*
X33000000Y20275000D03*
G04 #@! TD*
D20*
G04 #@! TO.C,R5*
X38425000Y18250000D03*
X40000000Y18250000D03*
G04 #@! TD*
D11*
G04 #@! TO.C,R6*
X50787500Y24250000D03*
X49212500Y24250000D03*
G04 #@! TD*
G04 #@! TO.C,R7*
X57037500Y11250000D03*
X55462500Y11250000D03*
G04 #@! TD*
D21*
G04 #@! TO.C,U2*
X24485000Y25570000D03*
X24485000Y23030000D03*
X34015000Y23030000D03*
X34015000Y25570000D03*
G04 #@! TD*
D22*
G04 #@! TO.C,U3*
X30537500Y16195000D03*
X30537500Y17465000D03*
X30537500Y18735000D03*
X30537500Y20005000D03*
X25462500Y20005000D03*
X25462500Y18735000D03*
X25462500Y17465000D03*
X25462500Y16195000D03*
G04 #@! TD*
D23*
G04 #@! TO.C,K1*
X59400000Y20820000D03*
X67020000Y20820000D03*
X72100000Y20820000D03*
X77180000Y20820000D03*
X77180000Y13200000D03*
X72100000Y13200000D03*
X67020000Y13200000D03*
D24*
X59400000Y13200000D03*
G04 #@! TD*
D20*
G04 #@! TO.C,R1*
X18812500Y26300000D03*
X20387500Y26300000D03*
G04 #@! TD*
D25*
G04 #@! TO.C,H1*
X9400000Y16700000D03*
G04 #@! TD*
G04 #@! TO.C,H2*
X59200000Y6900000D03*
G04 #@! TD*
G04 #@! TO.C,H3*
X46000000Y27500000D03*
G04 #@! TD*
D20*
G04 #@! TO.C,C6*
X48712500Y13500000D03*
X50287500Y13500000D03*
G04 #@! TD*
D26*
G04 #@! TO.C,C7*
X50500000Y18000000D03*
X50500000Y15300000D03*
G04 #@! TD*
G04 #@! TO.C,C8*
X52750000Y21600000D03*
X52750000Y18900000D03*
G04 #@! TD*
D27*
G04 #@! TO.C,R4*
X50500000Y21500000D03*
X50500000Y19925000D03*
G04 #@! TD*
D28*
G04 #@! TO.C,U1*
X43275000Y20655000D03*
X43275000Y19385000D03*
X43275000Y18115000D03*
X43275000Y16845000D03*
X48225000Y16845000D03*
X48225000Y18115000D03*
X48225000Y19385000D03*
X48225000Y20655000D03*
G04 #@! TD*
D11*
G04 #@! TO.C,C5*
X48325000Y22250000D03*
X46750000Y22250000D03*
G04 #@! TD*
D29*
G04 #@! TO.C,L1*
X46450000Y9500000D03*
X36550000Y9500000D03*
G04 #@! TD*
D30*
G04 #@! TO.C,D9*
X38750000Y29250000D03*
X34750000Y29250000D03*
G04 #@! TD*
D31*
G04 #@! TO.C,D1*
X22675000Y5030000D03*
X22675000Y7570000D03*
X16525000Y7570000D03*
X16525000Y5030000D03*
G04 #@! TD*
D32*
G04 #@! TO.C,RV1*
X38750000Y25540000D03*
D33*
X41290000Y23000000D03*
X38750000Y20460000D03*
G04 #@! TD*
D34*
G04 #@! TO.C,C1*
X27600000Y6100000D03*
X27600000Y10500000D03*
G04 #@! TD*
D35*
G04 #@! TO.C,Q1*
X54800000Y19750000D03*
X56700000Y19750000D03*
X55750000Y21750000D03*
G04 #@! TD*
M02*
