G04 #@! TF.GenerationSoftware,KiCad,Pcbnew,6.0.9-8da3e8f707~116~ubuntu20.04.1*
G04 #@! TF.CreationDate,2023-03-26T14:48:38+00:00*
G04 #@! TF.ProjectId,LEC000042,4c454330-3030-4303-9432-2e6b69636164,rev?*
G04 #@! TF.SameCoordinates,Original*
G04 #@! TF.FileFunction,Profile,NP*
%FSLAX46Y46*%
G04 Gerber Fmt 4.6, Leading zero omitted, Abs format (unit mm)*
G04 Created by KiCad (PCBNEW 6.0.9-8da3e8f707~116~ubuntu20.04.1) date 2023-03-26 14:48:38*
%MOMM*%
%LPD*%
G01*
G04 APERTURE LIST*
G04 #@! TA.AperFunction,Profile*
%ADD10C,0.050000*%
G04 #@! TD*
G04 APERTURE END LIST*
D10*
X3600000Y20800000D02*
X5000000Y20350000D01*
X3600000Y30200000D02*
X3600000Y20800000D01*
X5600000Y30800000D02*
X3600000Y30200000D01*
X63200000Y30900000D02*
X63850000Y32900000D01*
X61600000Y32900000D02*
X62200000Y30900000D01*
X51750000Y31500000D02*
X14050000Y31500000D01*
X79000000Y3100000D02*
X79000000Y30900000D01*
X52200000Y32900000D02*
X61600000Y32900000D01*
X51750000Y31500000D02*
X52200000Y32900000D01*
X3600000Y12700000D02*
X5000000Y13100000D01*
X3600000Y3300000D02*
X3600000Y12700000D01*
X5600000Y2700000D02*
X3600000Y3300000D01*
X5000000Y20350000D02*
X5000000Y13100000D01*
X63850000Y32900000D02*
X78350000Y32900000D01*
X14050000Y2500000D02*
X63400000Y2500000D01*
X63200000Y30900000D02*
X62200000Y30900000D01*
X63850000Y1100000D02*
X78350000Y1100000D01*
X63850000Y1100000D02*
X63400000Y2500000D01*
X13350000Y30800000D02*
X5600000Y30800000D01*
X13850000Y2700000D02*
X5600000Y2700000D01*
X14050000Y31500000D02*
X13350000Y30800000D01*
X79000000Y30900000D02*
X78350000Y32900000D01*
X78350000Y1100000D02*
X79000000Y3100000D01*
X14050000Y2500000D02*
X13850000Y2700000D01*
M02*
