G04 #@! TF.GenerationSoftware,KiCad,Pcbnew,6.0.9-8da3e8f707~116~ubuntu20.04.1*
G04 #@! TF.CreationDate,2023-03-26T14:48:38+00:00*
G04 #@! TF.ProjectId,LEC000042,4c454330-3030-4303-9432-2e6b69636164,rev?*
G04 #@! TF.SameCoordinates,Original*
G04 #@! TF.FileFunction,Legend,Bot*
G04 #@! TF.FilePolarity,Positive*
%FSLAX46Y46*%
G04 Gerber Fmt 4.6, Leading zero omitted, Abs format (unit mm)*
G04 Created by KiCad (PCBNEW 6.0.9-8da3e8f707~116~ubuntu20.04.1) date 2023-03-26 14:48:38*
%MOMM*%
%LPD*%
G01*
G04 APERTURE LIST*
%ADD10C,0.120000*%
%ADD11C,0.010000*%
G04 APERTURE END LIST*
D10*
G04 #@! TO.C,H1*
X12624903Y16700000D02*
G75*
G03*
X12624903Y16700000I-3224903J0D01*
G01*
G36*
X7800000Y16600000D02*
G01*
X7900000Y16200000D01*
X8100000Y15800000D01*
X8500000Y15400000D01*
X8900000Y15200000D01*
X9300000Y15100000D01*
X9400000Y15100000D01*
X9400000Y13475097D01*
X8900000Y13500000D01*
X7900000Y13800000D01*
X7100000Y14400000D01*
X6600000Y15100000D01*
X6300000Y15800000D01*
X6200000Y16200000D01*
X6200000Y16700000D01*
X7800000Y16700000D01*
X7800000Y16600000D01*
G37*
D11*
X7800000Y16600000D02*
X7900000Y16200000D01*
X8100000Y15800000D01*
X8500000Y15400000D01*
X8900000Y15200000D01*
X9300000Y15100000D01*
X9400000Y15100000D01*
X9400000Y13475097D01*
X8900000Y13500000D01*
X7900000Y13800000D01*
X7100000Y14400000D01*
X6600000Y15100000D01*
X6300000Y15800000D01*
X6200000Y16200000D01*
X6200000Y16700000D01*
X7800000Y16700000D01*
X7800000Y16600000D01*
G36*
X9900000Y19900000D02*
G01*
X10900000Y19600000D01*
X11700000Y19000000D01*
X12200000Y18300000D01*
X12500000Y17600000D01*
X12600000Y17200000D01*
X12600000Y16700000D01*
X11000000Y16700000D01*
X11000000Y16800000D01*
X10900000Y17200000D01*
X10700000Y17600000D01*
X10300000Y18000000D01*
X9900000Y18200000D01*
X9500000Y18300000D01*
X9400000Y18300000D01*
X9400000Y19924903D01*
X9900000Y19900000D01*
G37*
X9900000Y19900000D02*
X10900000Y19600000D01*
X11700000Y19000000D01*
X12200000Y18300000D01*
X12500000Y17600000D01*
X12600000Y17200000D01*
X12600000Y16700000D01*
X11000000Y16700000D01*
X11000000Y16800000D01*
X10900000Y17200000D01*
X10700000Y17600000D01*
X10300000Y18000000D01*
X9900000Y18200000D01*
X9500000Y18300000D01*
X9400000Y18300000D01*
X9400000Y19924903D01*
X9900000Y19900000D01*
D10*
G04 #@! TO.C,H2*
X62424903Y6900000D02*
G75*
G03*
X62424903Y6900000I-3224903J0D01*
G01*
G36*
X59700000Y10100000D02*
G01*
X60700000Y9800000D01*
X61500000Y9200000D01*
X62000000Y8500000D01*
X62300000Y7800000D01*
X62400000Y7400000D01*
X62400000Y6900000D01*
X60800000Y6900000D01*
X60800000Y7000000D01*
X60700000Y7400000D01*
X60500000Y7800000D01*
X60100000Y8200000D01*
X59700000Y8400000D01*
X59300000Y8500000D01*
X59200000Y8500000D01*
X59200000Y10124903D01*
X59700000Y10100000D01*
G37*
D11*
X59700000Y10100000D02*
X60700000Y9800000D01*
X61500000Y9200000D01*
X62000000Y8500000D01*
X62300000Y7800000D01*
X62400000Y7400000D01*
X62400000Y6900000D01*
X60800000Y6900000D01*
X60800000Y7000000D01*
X60700000Y7400000D01*
X60500000Y7800000D01*
X60100000Y8200000D01*
X59700000Y8400000D01*
X59300000Y8500000D01*
X59200000Y8500000D01*
X59200000Y10124903D01*
X59700000Y10100000D01*
G36*
X57600000Y6800000D02*
G01*
X57700000Y6400000D01*
X57900000Y6000000D01*
X58300000Y5600000D01*
X58700000Y5400000D01*
X59100000Y5300000D01*
X59200000Y5300000D01*
X59200000Y3675097D01*
X58700000Y3700000D01*
X57700000Y4000000D01*
X56900000Y4600000D01*
X56400000Y5300000D01*
X56100000Y6000000D01*
X56000000Y6400000D01*
X56000000Y6900000D01*
X57600000Y6900000D01*
X57600000Y6800000D01*
G37*
X57600000Y6800000D02*
X57700000Y6400000D01*
X57900000Y6000000D01*
X58300000Y5600000D01*
X58700000Y5400000D01*
X59100000Y5300000D01*
X59200000Y5300000D01*
X59200000Y3675097D01*
X58700000Y3700000D01*
X57700000Y4000000D01*
X56900000Y4600000D01*
X56400000Y5300000D01*
X56100000Y6000000D01*
X56000000Y6400000D01*
X56000000Y6900000D01*
X57600000Y6900000D01*
X57600000Y6800000D01*
D10*
G04 #@! TO.C,H3*
X49224903Y27500000D02*
G75*
G03*
X49224903Y27500000I-3224903J0D01*
G01*
G36*
X46500000Y30700000D02*
G01*
X47500000Y30400000D01*
X48300000Y29800000D01*
X48800000Y29100000D01*
X49100000Y28400000D01*
X49200000Y28000000D01*
X49200000Y27500000D01*
X47600000Y27500000D01*
X47600000Y27600000D01*
X47500000Y28000000D01*
X47300000Y28400000D01*
X46900000Y28800000D01*
X46500000Y29000000D01*
X46100000Y29100000D01*
X46000000Y29100000D01*
X46000000Y30724903D01*
X46500000Y30700000D01*
G37*
D11*
X46500000Y30700000D02*
X47500000Y30400000D01*
X48300000Y29800000D01*
X48800000Y29100000D01*
X49100000Y28400000D01*
X49200000Y28000000D01*
X49200000Y27500000D01*
X47600000Y27500000D01*
X47600000Y27600000D01*
X47500000Y28000000D01*
X47300000Y28400000D01*
X46900000Y28800000D01*
X46500000Y29000000D01*
X46100000Y29100000D01*
X46000000Y29100000D01*
X46000000Y30724903D01*
X46500000Y30700000D01*
G36*
X44400000Y27400000D02*
G01*
X44500000Y27000000D01*
X44700000Y26600000D01*
X45100000Y26200000D01*
X45500000Y26000000D01*
X45900000Y25900000D01*
X46000000Y25900000D01*
X46000000Y24275097D01*
X45500000Y24300000D01*
X44500000Y24600000D01*
X43700000Y25200000D01*
X43200000Y25900000D01*
X42900000Y26600000D01*
X42800000Y27000000D01*
X42800000Y27500000D01*
X44400000Y27500000D01*
X44400000Y27400000D01*
G37*
X44400000Y27400000D02*
X44500000Y27000000D01*
X44700000Y26600000D01*
X45100000Y26200000D01*
X45500000Y26000000D01*
X45900000Y25900000D01*
X46000000Y25900000D01*
X46000000Y24275097D01*
X45500000Y24300000D01*
X44500000Y24600000D01*
X43700000Y25200000D01*
X43200000Y25900000D01*
X42900000Y26600000D01*
X42800000Y27000000D01*
X42800000Y27500000D01*
X44400000Y27500000D01*
X44400000Y27400000D01*
D10*
G04 #@! TO.C,TP4*
X45450000Y13000000D02*
G75*
G03*
X45450000Y13000000I-950000J0D01*
G01*
G04 #@! TO.C,TP6*
X51150000Y15500000D02*
G75*
G03*
X51150000Y15500000I-950000J0D01*
G01*
G04 #@! TO.C,TP7*
X52950000Y25500000D02*
G75*
G03*
X52950000Y25500000I-950000J0D01*
G01*
G04 #@! TO.C,TP8*
X13950000Y23500000D02*
G75*
G03*
X13950000Y23500000I-950000J0D01*
G01*
G04 #@! TO.C,TP9*
X13950000Y5500000D02*
G75*
G03*
X13950000Y5500000I-950000J0D01*
G01*
G04 #@! TO.C,TP10*
X13950000Y10500000D02*
G75*
G03*
X13950000Y10500000I-950000J0D01*
G01*
G04 #@! TO.C,TP1*
X71950000Y24000000D02*
G75*
G03*
X71950000Y24000000I-950000J0D01*
G01*
G04 #@! TO.C,TP2*
X66950000Y24000000D02*
G75*
G03*
X66950000Y24000000I-950000J0D01*
G01*
G04 #@! TO.C,TP3*
X76950000Y24000000D02*
G75*
G03*
X76950000Y24000000I-950000J0D01*
G01*
G04 #@! TO.C,TP5*
X71950000Y10000000D02*
G75*
G03*
X71950000Y10000000I-950000J0D01*
G01*
G04 #@! TO.C,TP11*
X66950000Y10000000D02*
G75*
G03*
X66950000Y10000000I-950000J0D01*
G01*
G04 #@! TO.C,TP12*
X76950000Y10000000D02*
G75*
G03*
X76950000Y10000000I-950000J0D01*
G01*
G04 #@! TO.C,REF\u002A\u002A*
G36*
X27511662Y9739304D02*
G01*
X27551314Y9738218D01*
X27619109Y9738218D01*
X27619109Y9625049D01*
X27459577Y9625049D01*
X27444682Y9447268D01*
X27442682Y9422963D01*
X27438023Y9362120D01*
X27434731Y9312611D01*
X27433092Y9279008D01*
X27433390Y9265884D01*
X27437724Y9269657D01*
X27457496Y9289324D01*
X27491679Y9324182D01*
X27538541Y9372424D01*
X27596354Y9432243D01*
X27663387Y9501833D01*
X27737912Y9579385D01*
X27818197Y9663093D01*
X27902513Y9751151D01*
X27989130Y9841750D01*
X28076319Y9933085D01*
X28162349Y10023347D01*
X28245492Y10110731D01*
X28324016Y10193428D01*
X28396192Y10269632D01*
X28460291Y10337537D01*
X28514583Y10395334D01*
X28611592Y10498960D01*
X28612034Y10410685D01*
X28612475Y10322411D01*
X28011938Y9690842D01*
X27411401Y9059274D01*
X27399396Y8915326D01*
X27351365Y8339365D01*
X27342876Y8237209D01*
X27332343Y8109388D01*
X27322621Y7990233D01*
X27313898Y7882086D01*
X27306358Y7787287D01*
X27300187Y7708181D01*
X27295573Y7647108D01*
X27292700Y7606410D01*
X27291754Y7588430D01*
X27294251Y7580192D01*
X27305471Y7562401D01*
X27326751Y7535589D01*
X27337021Y7523871D01*
X27359225Y7498534D01*
X27404023Y7450014D01*
X27462281Y7388808D01*
X27535129Y7313693D01*
X27623703Y7223450D01*
X27729134Y7116855D01*
X27798492Y7046907D01*
X27895179Y6949342D01*
X27991526Y6852059D01*
X28084638Y6757986D01*
X28171618Y6670050D01*
X28249569Y6591180D01*
X28315596Y6524301D01*
X28366802Y6472342D01*
X28567514Y6268380D01*
X28531058Y6230329D01*
X28522460Y6221755D01*
X28497095Y6200703D01*
X28479695Y6192277D01*
X28466071Y6199470D01*
X28440743Y6221056D01*
X28410379Y6252005D01*
X28391896Y6271552D01*
X28357427Y6307248D01*
X28308712Y6357316D01*
X28247469Y6419999D01*
X28175420Y6493543D01*
X28094285Y6576190D01*
X28005784Y6666185D01*
X27911637Y6761772D01*
X27813565Y6861195D01*
X27271161Y7410657D01*
X27249066Y7125254D01*
X27244250Y7064338D01*
X27237216Y6982452D01*
X27230872Y6920431D01*
X27224748Y6875013D01*
X27218373Y6842938D01*
X27211277Y6820948D01*
X27202991Y6805781D01*
X27191393Y6784584D01*
X27181850Y6745614D01*
X27179010Y6689469D01*
X27179010Y6607227D01*
X26952674Y6607227D01*
X26952674Y6783267D01*
X26107082Y6783267D01*
X26058203Y6727738D01*
X26044836Y6713278D01*
X25972388Y6655187D01*
X25890532Y6619424D01*
X25801900Y6607227D01*
X25723692Y6613694D01*
X25635233Y6640953D01*
X25559507Y6689672D01*
X25544748Y6703597D01*
X25507864Y6748672D01*
X25475503Y6801181D01*
X25452297Y6852939D01*
X25442879Y6895761D01*
X25442697Y6901977D01*
X25441342Y6924754D01*
X25437800Y6940487D01*
X25430390Y6947932D01*
X25417431Y6945844D01*
X25397243Y6932980D01*
X25368145Y6908095D01*
X25328456Y6869947D01*
X25276496Y6817290D01*
X25210584Y6748881D01*
X25129040Y6663476D01*
X25085604Y6617888D01*
X25013000Y6541559D01*
X24944309Y6469192D01*
X24882223Y6403634D01*
X24829434Y6347726D01*
X24788634Y6304314D01*
X24762515Y6276242D01*
X24691119Y6198564D01*
X24602863Y6286584D01*
X25148690Y6858713D01*
X25183105Y6894812D01*
X25305546Y7023728D01*
X25410651Y7135246D01*
X25498736Y7229712D01*
X25570116Y7307471D01*
X25620588Y7363826D01*
X25827247Y7363826D01*
X25828872Y7350566D01*
X25829156Y7349181D01*
X25842698Y7317772D01*
X25869748Y7303137D01*
X25953129Y7271937D01*
X26027418Y7219962D01*
X26085846Y7151209D01*
X26125890Y7068685D01*
X26145026Y6975394D01*
X26151364Y6896435D01*
X27100838Y6896435D01*
X27107458Y6924727D01*
X27108629Y6931671D01*
X27112268Y6962719D01*
X27117234Y7012919D01*
X27123157Y7078273D01*
X27129669Y7154781D01*
X27136401Y7238445D01*
X27158724Y7523871D01*
X26857826Y7829435D01*
X26802636Y7885296D01*
X26735109Y7953112D01*
X26674529Y8013357D01*
X26623021Y8063948D01*
X26582710Y8102800D01*
X26555722Y8127830D01*
X26544182Y8136954D01*
X26536444Y8132595D01*
X26513395Y8112759D01*
X26478709Y8079625D01*
X26435487Y8036180D01*
X26386832Y7985413D01*
X26374140Y7971949D01*
X26317229Y7911725D01*
X26249414Y7840136D01*
X26175800Y7762563D01*
X26101493Y7684389D01*
X26031599Y7610995D01*
X26027401Y7606591D01*
X25962420Y7538215D01*
X25912836Y7485268D01*
X25876688Y7445233D01*
X25852016Y7415589D01*
X25836858Y7393819D01*
X25829256Y7377405D01*
X25827247Y7363826D01*
X25620588Y7363826D01*
X25625105Y7368869D01*
X25664019Y7414252D01*
X25687173Y7443965D01*
X25694882Y7458356D01*
X25694883Y7458441D01*
X25693825Y7476376D01*
X25690737Y7516579D01*
X25685858Y7576313D01*
X25679432Y7652842D01*
X25671700Y7743431D01*
X25662905Y7845343D01*
X25653287Y7955841D01*
X25643091Y8072189D01*
X25632556Y8191652D01*
X25621926Y8311493D01*
X25611442Y8428975D01*
X25601346Y8541363D01*
X25591881Y8645919D01*
X25583288Y8739909D01*
X25575809Y8820595D01*
X25569687Y8885241D01*
X25565162Y8931112D01*
X25562478Y8955470D01*
X25557067Y8996268D01*
X25686253Y8996268D01*
X25687908Y8965347D01*
X25691549Y8913347D01*
X25696995Y8842513D01*
X25704063Y8755089D01*
X25712570Y8653319D01*
X25722335Y8539448D01*
X25733174Y8415721D01*
X25744907Y8284382D01*
X25754079Y8183092D01*
X25765566Y8057474D01*
X25776322Y7941238D01*
X25786131Y7836620D01*
X25794781Y7745860D01*
X25802057Y7671196D01*
X25807746Y7614866D01*
X25811634Y7579109D01*
X25813506Y7566163D01*
X25819188Y7570174D01*
X25840020Y7589862D01*
X25873872Y7623678D01*
X25918412Y7669163D01*
X25971310Y7723854D01*
X26030236Y7785290D01*
X26092858Y7851010D01*
X26156848Y7918551D01*
X26219874Y7985453D01*
X26279606Y8049254D01*
X26333713Y8107493D01*
X26379865Y8157708D01*
X26415733Y8197437D01*
X26438984Y8224220D01*
X26445778Y8233523D01*
X26627601Y8233523D01*
X26903305Y7958032D01*
X26970726Y7890776D01*
X27034267Y7827838D01*
X27083490Y7779900D01*
X27120196Y7745406D01*
X27146190Y7722801D01*
X27163276Y7710529D01*
X27173256Y7707034D01*
X27177935Y7710762D01*
X27179116Y7720156D01*
X27179873Y7735251D01*
X27182601Y7774117D01*
X27187108Y7833105D01*
X27193179Y7909527D01*
X27200596Y8000695D01*
X27209142Y8103920D01*
X27218602Y8216517D01*
X27228758Y8335795D01*
X27237723Y8440923D01*
X27247066Y8551649D01*
X27255443Y8652186D01*
X27262653Y8740057D01*
X27268496Y8812785D01*
X27272769Y8867890D01*
X27275273Y8902896D01*
X27275805Y8915326D01*
X27275384Y8915092D01*
X27263509Y8903650D01*
X27237130Y8876802D01*
X27198570Y8836982D01*
X27150153Y8786628D01*
X27094203Y8728172D01*
X27033042Y8664052D01*
X26968995Y8596702D01*
X26904385Y8528557D01*
X26841535Y8462052D01*
X26782768Y8399623D01*
X26730409Y8343705D01*
X26629533Y8235594D01*
X26627601Y8233523D01*
X26445778Y8233523D01*
X26447290Y8235594D01*
X26439148Y8246617D01*
X26415478Y8273001D01*
X26378478Y8312473D01*
X26330350Y8362809D01*
X26273296Y8421783D01*
X26209520Y8487170D01*
X26141222Y8556745D01*
X26070605Y8628284D01*
X25999871Y8699562D01*
X25931222Y8768353D01*
X25866861Y8832434D01*
X25808989Y8889578D01*
X25759810Y8937561D01*
X25721524Y8974159D01*
X25696334Y8997146D01*
X25686442Y9004297D01*
X25686253Y8996268D01*
X25557067Y8996268D01*
X25555390Y9008911D01*
X25280297Y9008911D01*
X25280140Y9109505D01*
X25380891Y9109505D01*
X25462624Y9109505D01*
X25469895Y9109511D01*
X25510950Y9110387D01*
X25533277Y9114133D01*
X25542529Y9122730D01*
X25544357Y9138160D01*
X25536306Y9160841D01*
X25508730Y9198572D01*
X25462624Y9247821D01*
X25380891Y9328828D01*
X25380891Y9109505D01*
X25280140Y9109505D01*
X25279968Y9219529D01*
X25279639Y9430148D01*
X24827914Y9889109D01*
X24376189Y10348069D01*
X24375570Y10435152D01*
X24374951Y10522233D01*
X24916769Y9973048D01*
X24969137Y9920002D01*
X25077803Y9810228D01*
X25170709Y9716886D01*
X25249055Y9638827D01*
X25314043Y9574903D01*
X25366872Y9523965D01*
X25408743Y9484865D01*
X25440855Y9456452D01*
X25464410Y9437580D01*
X25480608Y9427099D01*
X25490649Y9423861D01*
X25507579Y9424842D01*
X25517084Y9432004D01*
X25518723Y9451599D01*
X25514782Y9489876D01*
X25512065Y9513975D01*
X25508284Y9554256D01*
X25506760Y9581039D01*
X25506015Y9590272D01*
X25498746Y9600161D01*
X25478668Y9603438D01*
X25439689Y9602008D01*
X25429737Y9601447D01*
X25389898Y9602079D01*
X25361560Y9610833D01*
X25341586Y9625049D01*
X25624852Y9625049D01*
X25629013Y9577896D01*
X25630935Y9556502D01*
X25636924Y9498091D01*
X25642826Y9459619D01*
X25649727Y9437088D01*
X25658712Y9426502D01*
X25670870Y9423861D01*
X25681801Y9422063D01*
X25689050Y9413470D01*
X25693100Y9393495D01*
X25694863Y9357550D01*
X25695248Y9301048D01*
X25695248Y9178234D01*
X25735447Y9138160D01*
X25833565Y9040346D01*
X25971881Y8902458D01*
X25971881Y9008911D01*
X26726337Y9008911D01*
X26726337Y8770000D01*
X26107831Y8770000D01*
X26317592Y8553094D01*
X26357770Y8511666D01*
X26413328Y8454800D01*
X26461570Y8405918D01*
X26499971Y8367559D01*
X26526003Y8342259D01*
X26537140Y8332558D01*
X26541373Y8335233D01*
X26561224Y8353218D01*
X26595451Y8386519D01*
X26642227Y8433288D01*
X26699724Y8491675D01*
X26766112Y8559831D01*
X26839564Y8635906D01*
X26918251Y8718050D01*
X26997341Y8801057D01*
X27074871Y8882864D01*
X27137746Y8949917D01*
X27187502Y9003993D01*
X27225678Y9046871D01*
X27253811Y9080327D01*
X27273440Y9106139D01*
X27286101Y9126086D01*
X27293334Y9141944D01*
X27296675Y9155491D01*
X27297561Y9162090D01*
X27301488Y9198452D01*
X27306459Y9251982D01*
X27311927Y9316579D01*
X27317344Y9386138D01*
X27319181Y9410365D01*
X27324488Y9475822D01*
X27329548Y9532283D01*
X27333863Y9574382D01*
X27336934Y9596757D01*
X27342955Y9625049D01*
X25624852Y9625049D01*
X25341586Y9625049D01*
X25333630Y9630711D01*
X25328820Y9634896D01*
X25289482Y9685573D01*
X25273903Y9738218D01*
X25614698Y9738218D01*
X27029221Y9738218D01*
X27241881Y9738218D01*
X27298908Y9738218D01*
X27315993Y9738338D01*
X27341308Y9740538D01*
X27348616Y9747666D01*
X27342943Y9762492D01*
X27341267Y9765318D01*
X27322448Y9787056D01*
X27295183Y9811180D01*
X27267987Y9830746D01*
X27249371Y9838812D01*
X27247697Y9837537D01*
X27243544Y9820024D01*
X27241881Y9788515D01*
X27241881Y9738218D01*
X27029221Y9738218D01*
X27025526Y9828905D01*
X27021832Y9919593D01*
X26946386Y9934748D01*
X26908551Y9941621D01*
X26845368Y9951244D01*
X26786065Y9958504D01*
X26701188Y9967107D01*
X26701188Y9863960D01*
X26122773Y9863960D01*
X26122773Y9954878D01*
X26050471Y9946247D01*
X25939998Y9927751D01*
X25828816Y9894309D01*
X25736850Y9847676D01*
X25662542Y9787214D01*
X25614698Y9738218D01*
X25273903Y9738218D01*
X25272172Y9744066D01*
X25277474Y9805425D01*
X25305975Y9864703D01*
X25308733Y9868394D01*
X25346822Y9900149D01*
X25396476Y9918933D01*
X25450002Y9923929D01*
X25499707Y9914322D01*
X25537900Y9889296D01*
X25550831Y9876520D01*
X25563428Y9873424D01*
X25581467Y9883002D01*
X25611928Y9906918D01*
X25621274Y9914269D01*
X25693430Y9960661D01*
X25778915Y10001916D01*
X25848830Y10027425D01*
X26223367Y10027425D01*
X26223367Y9964554D01*
X26600594Y9964554D01*
X26600594Y10027425D01*
X26223367Y10027425D01*
X25848830Y10027425D01*
X25869767Y10035064D01*
X25958027Y10057132D01*
X26035736Y10065148D01*
X26043991Y10065212D01*
X26089879Y10069679D01*
X26115079Y10082205D01*
X26122773Y10104216D01*
X26123676Y10111151D01*
X26128615Y10117115D01*
X26140611Y10121481D01*
X26162680Y10124497D01*
X26197836Y10126410D01*
X26249094Y10127470D01*
X26319471Y10127923D01*
X26411980Y10128020D01*
X26498660Y10127850D01*
X26572332Y10127166D01*
X26626265Y10125785D01*
X26663288Y10123530D01*
X26686230Y10120222D01*
X26697920Y10115680D01*
X26701188Y10109728D01*
X26711937Y10095112D01*
X26742055Y10085785D01*
X26753582Y10084153D01*
X26792886Y10078409D01*
X26845188Y10070622D01*
X26902376Y10061997D01*
X26933916Y10057607D01*
X26980074Y10052852D01*
X27012641Y10051705D01*
X27026023Y10054505D01*
X27028308Y10056329D01*
X27049405Y10060835D01*
X27087355Y10063971D01*
X27136048Y10065148D01*
X27241881Y10065148D01*
X27241894Y10027425D01*
X27241894Y10024282D01*
X27242388Y10011332D01*
X27248819Y9989589D01*
X27267123Y9971149D01*
X27302830Y9949199D01*
X27334174Y9929146D01*
X27381893Y9890644D01*
X27425138Y9847421D01*
X27458219Y9805373D01*
X27475442Y9770396D01*
X27479662Y9756919D01*
X27487480Y9747666D01*
X27490116Y9744546D01*
X27511662Y9739304D01*
G37*
D11*
X27511662Y9739304D02*
X27551314Y9738218D01*
X27619109Y9738218D01*
X27619109Y9625049D01*
X27459577Y9625049D01*
X27444682Y9447268D01*
X27442682Y9422963D01*
X27438023Y9362120D01*
X27434731Y9312611D01*
X27433092Y9279008D01*
X27433390Y9265884D01*
X27437724Y9269657D01*
X27457496Y9289324D01*
X27491679Y9324182D01*
X27538541Y9372424D01*
X27596354Y9432243D01*
X27663387Y9501833D01*
X27737912Y9579385D01*
X27818197Y9663093D01*
X27902513Y9751151D01*
X27989130Y9841750D01*
X28076319Y9933085D01*
X28162349Y10023347D01*
X28245492Y10110731D01*
X28324016Y10193428D01*
X28396192Y10269632D01*
X28460291Y10337537D01*
X28514583Y10395334D01*
X28611592Y10498960D01*
X28612034Y10410685D01*
X28612475Y10322411D01*
X28011938Y9690842D01*
X27411401Y9059274D01*
X27399396Y8915326D01*
X27351365Y8339365D01*
X27342876Y8237209D01*
X27332343Y8109388D01*
X27322621Y7990233D01*
X27313898Y7882086D01*
X27306358Y7787287D01*
X27300187Y7708181D01*
X27295573Y7647108D01*
X27292700Y7606410D01*
X27291754Y7588430D01*
X27294251Y7580192D01*
X27305471Y7562401D01*
X27326751Y7535589D01*
X27337021Y7523871D01*
X27359225Y7498534D01*
X27404023Y7450014D01*
X27462281Y7388808D01*
X27535129Y7313693D01*
X27623703Y7223450D01*
X27729134Y7116855D01*
X27798492Y7046907D01*
X27895179Y6949342D01*
X27991526Y6852059D01*
X28084638Y6757986D01*
X28171618Y6670050D01*
X28249569Y6591180D01*
X28315596Y6524301D01*
X28366802Y6472342D01*
X28567514Y6268380D01*
X28531058Y6230329D01*
X28522460Y6221755D01*
X28497095Y6200703D01*
X28479695Y6192277D01*
X28466071Y6199470D01*
X28440743Y6221056D01*
X28410379Y6252005D01*
X28391896Y6271552D01*
X28357427Y6307248D01*
X28308712Y6357316D01*
X28247469Y6419999D01*
X28175420Y6493543D01*
X28094285Y6576190D01*
X28005784Y6666185D01*
X27911637Y6761772D01*
X27813565Y6861195D01*
X27271161Y7410657D01*
X27249066Y7125254D01*
X27244250Y7064338D01*
X27237216Y6982452D01*
X27230872Y6920431D01*
X27224748Y6875013D01*
X27218373Y6842938D01*
X27211277Y6820948D01*
X27202991Y6805781D01*
X27191393Y6784584D01*
X27181850Y6745614D01*
X27179010Y6689469D01*
X27179010Y6607227D01*
X26952674Y6607227D01*
X26952674Y6783267D01*
X26107082Y6783267D01*
X26058203Y6727738D01*
X26044836Y6713278D01*
X25972388Y6655187D01*
X25890532Y6619424D01*
X25801900Y6607227D01*
X25723692Y6613694D01*
X25635233Y6640953D01*
X25559507Y6689672D01*
X25544748Y6703597D01*
X25507864Y6748672D01*
X25475503Y6801181D01*
X25452297Y6852939D01*
X25442879Y6895761D01*
X25442697Y6901977D01*
X25441342Y6924754D01*
X25437800Y6940487D01*
X25430390Y6947932D01*
X25417431Y6945844D01*
X25397243Y6932980D01*
X25368145Y6908095D01*
X25328456Y6869947D01*
X25276496Y6817290D01*
X25210584Y6748881D01*
X25129040Y6663476D01*
X25085604Y6617888D01*
X25013000Y6541559D01*
X24944309Y6469192D01*
X24882223Y6403634D01*
X24829434Y6347726D01*
X24788634Y6304314D01*
X24762515Y6276242D01*
X24691119Y6198564D01*
X24602863Y6286584D01*
X25148690Y6858713D01*
X25183105Y6894812D01*
X25305546Y7023728D01*
X25410651Y7135246D01*
X25498736Y7229712D01*
X25570116Y7307471D01*
X25620588Y7363826D01*
X25827247Y7363826D01*
X25828872Y7350566D01*
X25829156Y7349181D01*
X25842698Y7317772D01*
X25869748Y7303137D01*
X25953129Y7271937D01*
X26027418Y7219962D01*
X26085846Y7151209D01*
X26125890Y7068685D01*
X26145026Y6975394D01*
X26151364Y6896435D01*
X27100838Y6896435D01*
X27107458Y6924727D01*
X27108629Y6931671D01*
X27112268Y6962719D01*
X27117234Y7012919D01*
X27123157Y7078273D01*
X27129669Y7154781D01*
X27136401Y7238445D01*
X27158724Y7523871D01*
X26857826Y7829435D01*
X26802636Y7885296D01*
X26735109Y7953112D01*
X26674529Y8013357D01*
X26623021Y8063948D01*
X26582710Y8102800D01*
X26555722Y8127830D01*
X26544182Y8136954D01*
X26536444Y8132595D01*
X26513395Y8112759D01*
X26478709Y8079625D01*
X26435487Y8036180D01*
X26386832Y7985413D01*
X26374140Y7971949D01*
X26317229Y7911725D01*
X26249414Y7840136D01*
X26175800Y7762563D01*
X26101493Y7684389D01*
X26031599Y7610995D01*
X26027401Y7606591D01*
X25962420Y7538215D01*
X25912836Y7485268D01*
X25876688Y7445233D01*
X25852016Y7415589D01*
X25836858Y7393819D01*
X25829256Y7377405D01*
X25827247Y7363826D01*
X25620588Y7363826D01*
X25625105Y7368869D01*
X25664019Y7414252D01*
X25687173Y7443965D01*
X25694882Y7458356D01*
X25694883Y7458441D01*
X25693825Y7476376D01*
X25690737Y7516579D01*
X25685858Y7576313D01*
X25679432Y7652842D01*
X25671700Y7743431D01*
X25662905Y7845343D01*
X25653287Y7955841D01*
X25643091Y8072189D01*
X25632556Y8191652D01*
X25621926Y8311493D01*
X25611442Y8428975D01*
X25601346Y8541363D01*
X25591881Y8645919D01*
X25583288Y8739909D01*
X25575809Y8820595D01*
X25569687Y8885241D01*
X25565162Y8931112D01*
X25562478Y8955470D01*
X25557067Y8996268D01*
X25686253Y8996268D01*
X25687908Y8965347D01*
X25691549Y8913347D01*
X25696995Y8842513D01*
X25704063Y8755089D01*
X25712570Y8653319D01*
X25722335Y8539448D01*
X25733174Y8415721D01*
X25744907Y8284382D01*
X25754079Y8183092D01*
X25765566Y8057474D01*
X25776322Y7941238D01*
X25786131Y7836620D01*
X25794781Y7745860D01*
X25802057Y7671196D01*
X25807746Y7614866D01*
X25811634Y7579109D01*
X25813506Y7566163D01*
X25819188Y7570174D01*
X25840020Y7589862D01*
X25873872Y7623678D01*
X25918412Y7669163D01*
X25971310Y7723854D01*
X26030236Y7785290D01*
X26092858Y7851010D01*
X26156848Y7918551D01*
X26219874Y7985453D01*
X26279606Y8049254D01*
X26333713Y8107493D01*
X26379865Y8157708D01*
X26415733Y8197437D01*
X26438984Y8224220D01*
X26445778Y8233523D01*
X26627601Y8233523D01*
X26903305Y7958032D01*
X26970726Y7890776D01*
X27034267Y7827838D01*
X27083490Y7779900D01*
X27120196Y7745406D01*
X27146190Y7722801D01*
X27163276Y7710529D01*
X27173256Y7707034D01*
X27177935Y7710762D01*
X27179116Y7720156D01*
X27179873Y7735251D01*
X27182601Y7774117D01*
X27187108Y7833105D01*
X27193179Y7909527D01*
X27200596Y8000695D01*
X27209142Y8103920D01*
X27218602Y8216517D01*
X27228758Y8335795D01*
X27237723Y8440923D01*
X27247066Y8551649D01*
X27255443Y8652186D01*
X27262653Y8740057D01*
X27268496Y8812785D01*
X27272769Y8867890D01*
X27275273Y8902896D01*
X27275805Y8915326D01*
X27275384Y8915092D01*
X27263509Y8903650D01*
X27237130Y8876802D01*
X27198570Y8836982D01*
X27150153Y8786628D01*
X27094203Y8728172D01*
X27033042Y8664052D01*
X26968995Y8596702D01*
X26904385Y8528557D01*
X26841535Y8462052D01*
X26782768Y8399623D01*
X26730409Y8343705D01*
X26629533Y8235594D01*
X26627601Y8233523D01*
X26445778Y8233523D01*
X26447290Y8235594D01*
X26439148Y8246617D01*
X26415478Y8273001D01*
X26378478Y8312473D01*
X26330350Y8362809D01*
X26273296Y8421783D01*
X26209520Y8487170D01*
X26141222Y8556745D01*
X26070605Y8628284D01*
X25999871Y8699562D01*
X25931222Y8768353D01*
X25866861Y8832434D01*
X25808989Y8889578D01*
X25759810Y8937561D01*
X25721524Y8974159D01*
X25696334Y8997146D01*
X25686442Y9004297D01*
X25686253Y8996268D01*
X25557067Y8996268D01*
X25555390Y9008911D01*
X25280297Y9008911D01*
X25280140Y9109505D01*
X25380891Y9109505D01*
X25462624Y9109505D01*
X25469895Y9109511D01*
X25510950Y9110387D01*
X25533277Y9114133D01*
X25542529Y9122730D01*
X25544357Y9138160D01*
X25536306Y9160841D01*
X25508730Y9198572D01*
X25462624Y9247821D01*
X25380891Y9328828D01*
X25380891Y9109505D01*
X25280140Y9109505D01*
X25279968Y9219529D01*
X25279639Y9430148D01*
X24827914Y9889109D01*
X24376189Y10348069D01*
X24375570Y10435152D01*
X24374951Y10522233D01*
X24916769Y9973048D01*
X24969137Y9920002D01*
X25077803Y9810228D01*
X25170709Y9716886D01*
X25249055Y9638827D01*
X25314043Y9574903D01*
X25366872Y9523965D01*
X25408743Y9484865D01*
X25440855Y9456452D01*
X25464410Y9437580D01*
X25480608Y9427099D01*
X25490649Y9423861D01*
X25507579Y9424842D01*
X25517084Y9432004D01*
X25518723Y9451599D01*
X25514782Y9489876D01*
X25512065Y9513975D01*
X25508284Y9554256D01*
X25506760Y9581039D01*
X25506015Y9590272D01*
X25498746Y9600161D01*
X25478668Y9603438D01*
X25439689Y9602008D01*
X25429737Y9601447D01*
X25389898Y9602079D01*
X25361560Y9610833D01*
X25341586Y9625049D01*
X25624852Y9625049D01*
X25629013Y9577896D01*
X25630935Y9556502D01*
X25636924Y9498091D01*
X25642826Y9459619D01*
X25649727Y9437088D01*
X25658712Y9426502D01*
X25670870Y9423861D01*
X25681801Y9422063D01*
X25689050Y9413470D01*
X25693100Y9393495D01*
X25694863Y9357550D01*
X25695248Y9301048D01*
X25695248Y9178234D01*
X25735447Y9138160D01*
X25833565Y9040346D01*
X25971881Y8902458D01*
X25971881Y9008911D01*
X26726337Y9008911D01*
X26726337Y8770000D01*
X26107831Y8770000D01*
X26317592Y8553094D01*
X26357770Y8511666D01*
X26413328Y8454800D01*
X26461570Y8405918D01*
X26499971Y8367559D01*
X26526003Y8342259D01*
X26537140Y8332558D01*
X26541373Y8335233D01*
X26561224Y8353218D01*
X26595451Y8386519D01*
X26642227Y8433288D01*
X26699724Y8491675D01*
X26766112Y8559831D01*
X26839564Y8635906D01*
X26918251Y8718050D01*
X26997341Y8801057D01*
X27074871Y8882864D01*
X27137746Y8949917D01*
X27187502Y9003993D01*
X27225678Y9046871D01*
X27253811Y9080327D01*
X27273440Y9106139D01*
X27286101Y9126086D01*
X27293334Y9141944D01*
X27296675Y9155491D01*
X27297561Y9162090D01*
X27301488Y9198452D01*
X27306459Y9251982D01*
X27311927Y9316579D01*
X27317344Y9386138D01*
X27319181Y9410365D01*
X27324488Y9475822D01*
X27329548Y9532283D01*
X27333863Y9574382D01*
X27336934Y9596757D01*
X27342955Y9625049D01*
X25624852Y9625049D01*
X25341586Y9625049D01*
X25333630Y9630711D01*
X25328820Y9634896D01*
X25289482Y9685573D01*
X25273903Y9738218D01*
X25614698Y9738218D01*
X27029221Y9738218D01*
X27241881Y9738218D01*
X27298908Y9738218D01*
X27315993Y9738338D01*
X27341308Y9740538D01*
X27348616Y9747666D01*
X27342943Y9762492D01*
X27341267Y9765318D01*
X27322448Y9787056D01*
X27295183Y9811180D01*
X27267987Y9830746D01*
X27249371Y9838812D01*
X27247697Y9837537D01*
X27243544Y9820024D01*
X27241881Y9788515D01*
X27241881Y9738218D01*
X27029221Y9738218D01*
X27025526Y9828905D01*
X27021832Y9919593D01*
X26946386Y9934748D01*
X26908551Y9941621D01*
X26845368Y9951244D01*
X26786065Y9958504D01*
X26701188Y9967107D01*
X26701188Y9863960D01*
X26122773Y9863960D01*
X26122773Y9954878D01*
X26050471Y9946247D01*
X25939998Y9927751D01*
X25828816Y9894309D01*
X25736850Y9847676D01*
X25662542Y9787214D01*
X25614698Y9738218D01*
X25273903Y9738218D01*
X25272172Y9744066D01*
X25277474Y9805425D01*
X25305975Y9864703D01*
X25308733Y9868394D01*
X25346822Y9900149D01*
X25396476Y9918933D01*
X25450002Y9923929D01*
X25499707Y9914322D01*
X25537900Y9889296D01*
X25550831Y9876520D01*
X25563428Y9873424D01*
X25581467Y9883002D01*
X25611928Y9906918D01*
X25621274Y9914269D01*
X25693430Y9960661D01*
X25778915Y10001916D01*
X25848830Y10027425D01*
X26223367Y10027425D01*
X26223367Y9964554D01*
X26600594Y9964554D01*
X26600594Y10027425D01*
X26223367Y10027425D01*
X25848830Y10027425D01*
X25869767Y10035064D01*
X25958027Y10057132D01*
X26035736Y10065148D01*
X26043991Y10065212D01*
X26089879Y10069679D01*
X26115079Y10082205D01*
X26122773Y10104216D01*
X26123676Y10111151D01*
X26128615Y10117115D01*
X26140611Y10121481D01*
X26162680Y10124497D01*
X26197836Y10126410D01*
X26249094Y10127470D01*
X26319471Y10127923D01*
X26411980Y10128020D01*
X26498660Y10127850D01*
X26572332Y10127166D01*
X26626265Y10125785D01*
X26663288Y10123530D01*
X26686230Y10120222D01*
X26697920Y10115680D01*
X26701188Y10109728D01*
X26711937Y10095112D01*
X26742055Y10085785D01*
X26753582Y10084153D01*
X26792886Y10078409D01*
X26845188Y10070622D01*
X26902376Y10061997D01*
X26933916Y10057607D01*
X26980074Y10052852D01*
X27012641Y10051705D01*
X27026023Y10054505D01*
X27028308Y10056329D01*
X27049405Y10060835D01*
X27087355Y10063971D01*
X27136048Y10065148D01*
X27241881Y10065148D01*
X27241894Y10027425D01*
X27241894Y10024282D01*
X27242388Y10011332D01*
X27248819Y9989589D01*
X27267123Y9971149D01*
X27302830Y9949199D01*
X27334174Y9929146D01*
X27381893Y9890644D01*
X27425138Y9847421D01*
X27458219Y9805373D01*
X27475442Y9770396D01*
X27479662Y9756919D01*
X27487480Y9747666D01*
X27490116Y9744546D01*
X27511662Y9739304D01*
G36*
X28272971Y4482178D02*
G01*
X24752178Y4482178D01*
X24752178Y5349802D01*
X28272971Y5349802D01*
X28272971Y4482178D01*
G37*
X28272971Y4482178D02*
X24752178Y4482178D01*
X24752178Y5349802D01*
X28272971Y5349802D01*
X28272971Y4482178D01*
G04 #@! TO.C,kibuzzard-624D5053*
G36*
X25566738Y21882450D02*
G01*
X25595313Y21789105D01*
X25578168Y21704332D01*
X25530543Y21615750D01*
X25437198Y21706237D01*
X25404813Y21813870D01*
X25428625Y21889117D01*
X25490538Y21914835D01*
X25566738Y21882450D01*
G37*
G36*
X28422877Y18875450D02*
G01*
X28481997Y18859496D01*
X28522350Y18827590D01*
X28537364Y18773162D01*
X28492320Y18687765D01*
X28375956Y18662428D01*
X28302759Y18663366D01*
X28240823Y18668058D01*
X28240823Y18870758D01*
X28295251Y18877327D01*
X28353433Y18880142D01*
X28422877Y18875450D01*
G37*
G36*
X24821476Y16802185D02*
G01*
X24875112Y16761496D01*
X24908403Y16702311D01*
X24924124Y16633879D01*
X24576415Y16633879D01*
X24585662Y16701386D01*
X24615255Y16759646D01*
X24667041Y16801260D01*
X24744721Y16816981D01*
X24821476Y16802185D01*
G37*
G36*
X16107777Y15413970D02*
G01*
X16107777Y16964942D01*
X17894119Y16964942D01*
X17934808Y16754097D01*
X17987519Y16765195D01*
X18049478Y16775367D01*
X18110512Y16781840D01*
X18160449Y16783690D01*
X18254774Y16779066D01*
X18349099Y16761496D01*
X18349099Y16116015D01*
X18578439Y16116015D01*
X18578439Y16927952D01*
X18486657Y16958006D01*
X18392563Y16981588D01*
X18289221Y16996846D01*
X18169696Y17001932D01*
X18116985Y17000083D01*
X18043929Y16993610D01*
X17965325Y16982513D01*
X17894119Y16964942D01*
X16107777Y16964942D01*
X16107777Y17342243D01*
X18757842Y17342243D01*
X18796682Y17157292D01*
X18903029Y17187809D01*
X19024172Y17203530D01*
X19084281Y17197981D01*
X19134218Y17173937D01*
X19168434Y17121226D01*
X19181381Y17031525D01*
X19181381Y16985287D01*
X18824425Y16985287D01*
X18824425Y16796636D01*
X19181381Y16796636D01*
X19181381Y16116015D01*
X19410721Y16116015D01*
X19410721Y16262127D01*
X19963726Y16262127D01*
X20013662Y16138209D01*
X20128332Y16095670D01*
X20191216Y16106767D01*
X20206277Y16116015D01*
X20627701Y16116015D01*
X20864439Y16116015D01*
X20914376Y16205254D01*
X20964313Y16284321D01*
X21012863Y16354602D01*
X21058638Y16417486D01*
X21111349Y16344430D01*
X21158512Y16273224D01*
X21203363Y16198781D01*
X21249138Y16116015D01*
X21480328Y16116015D01*
X21458513Y16153005D01*
X21578352Y16153005D01*
X21710592Y16107692D01*
X21824337Y16095670D01*
X21973223Y16121563D01*
X22001720Y16143758D01*
X22493862Y16143758D01*
X22629801Y16106767D01*
X22771289Y16095670D01*
X22911852Y16108617D01*
X22973228Y16138209D01*
X23429716Y16138209D01*
X23546235Y16107692D01*
X23620678Y16098676D01*
X23707143Y16095670D01*
X23830829Y16104455D01*
X23935558Y16130811D01*
X24022254Y16172425D01*
X24091842Y16226986D01*
X24144784Y16293568D01*
X24181544Y16371248D01*
X24203044Y16457713D01*
X24210211Y16550651D01*
X24209314Y16561748D01*
X24356323Y16561748D01*
X24357247Y16515510D01*
X24360022Y16476670D01*
X24924124Y16476670D01*
X24906553Y16400609D01*
X24853842Y16342580D01*
X24773388Y16305821D01*
X24672590Y16293568D01*
X24542199Y16308364D01*
X24437701Y16337957D01*
X24406260Y16143758D01*
X24532027Y16109542D01*
X24681837Y16095670D01*
X24787028Y16102837D01*
X24880660Y16124338D01*
X24946185Y16153005D01*
X25277381Y16153005D01*
X25302349Y16140059D01*
X25353211Y16120639D01*
X25429966Y16103068D01*
X25532614Y16095670D01*
X25668553Y16119020D01*
X25761954Y16189071D01*
X25816052Y16303972D01*
X25834085Y16461874D01*
X25834085Y17199830D01*
X26074522Y17199830D01*
X26074522Y17388481D01*
X25606595Y17388481D01*
X25606595Y16445229D01*
X25571454Y16325010D01*
X25482677Y16293568D01*
X25368007Y16312063D01*
X25306973Y16336107D01*
X25277381Y16153005D01*
X24946185Y16153005D01*
X24962039Y16159941D01*
X25030471Y16209415D01*
X25085263Y16272530D01*
X25125721Y16349054D01*
X25150689Y16439218D01*
X25159012Y16543253D01*
X25150227Y16650987D01*
X25123871Y16744850D01*
X25083182Y16824610D01*
X25031396Y16890037D01*
X24969899Y16941130D01*
X24900080Y16977889D01*
X24748420Y17007481D01*
X24630462Y16994843D01*
X24533054Y16956928D01*
X24456196Y16893736D01*
X24400711Y16806295D01*
X24367420Y16695632D01*
X24356323Y16561748D01*
X24209314Y16561748D01*
X24202813Y16642202D01*
X24180619Y16728204D01*
X24143166Y16806115D01*
X24089993Y16873391D01*
X24020867Y16928877D01*
X23935558Y16971415D01*
X23833141Y16998465D01*
X23712692Y17007481D01*
X23572129Y16996384D01*
X23444512Y16959394D01*
X23494449Y16776292D01*
X23576752Y16799411D01*
X23692347Y16809583D01*
X23828286Y16790163D01*
X23916138Y16736527D01*
X23964226Y16654224D01*
X23979022Y16550651D01*
X23962145Y16443379D01*
X23911514Y16362000D01*
X23820195Y16310676D01*
X23681250Y16293568D01*
X23569354Y16300966D01*
X23463007Y16325010D01*
X23429716Y16138209D01*
X22973228Y16138209D01*
X23015425Y16158554D01*
X23080158Y16263051D01*
X23096803Y16340962D01*
X23102352Y16439680D01*
X23102352Y16796636D01*
X23300250Y16796636D01*
X23300250Y16985287D01*
X23102352Y16985287D01*
X23102352Y17203530D01*
X22874862Y17240520D01*
X22874862Y16985287D01*
X22510507Y16985287D01*
X22510507Y16796636D01*
X22874862Y16796636D01*
X22874862Y16445229D01*
X22865614Y16367549D01*
X22839721Y16321311D01*
X22799031Y16299117D01*
X22745396Y16293568D01*
X22687136Y16295418D01*
X22635349Y16301891D01*
X22583563Y16315763D01*
X22525303Y16339806D01*
X22493862Y16143758D01*
X22001720Y16143758D01*
X22069398Y16196469D01*
X22120260Y16315763D01*
X22131357Y16391130D01*
X22135056Y16476670D01*
X22135056Y16796636D01*
X22375493Y16796636D01*
X22375493Y16985287D01*
X21907565Y16985287D01*
X21907565Y16447078D01*
X21878898Y16331483D01*
X21783648Y16293568D01*
X21707818Y16301891D01*
X21607944Y16336107D01*
X21578352Y16153005D01*
X21458513Y16153005D01*
X21416519Y16224212D01*
X21340689Y16338881D01*
X21257461Y16454476D01*
X21173308Y16563597D01*
X21478478Y16985287D01*
X21239891Y16985287D01*
X21047541Y16713408D01*
X20869988Y16985287D01*
X20638798Y16985287D01*
X20919925Y16567297D01*
X20832997Y16453551D01*
X20751619Y16332408D01*
X20681337Y16215889D01*
X20627701Y16116015D01*
X20206277Y16116015D01*
X20243927Y16139134D01*
X20280917Y16190920D01*
X20294789Y16262127D01*
X20280917Y16331483D01*
X20243927Y16382345D01*
X20191216Y16413787D01*
X20128332Y16424884D01*
X20013662Y16382345D01*
X19963726Y16262127D01*
X19410721Y16262127D01*
X19410721Y16796636D01*
X19601221Y16796636D01*
X19601221Y16985287D01*
X19410721Y16985287D01*
X19410721Y17035224D01*
X19403092Y17131630D01*
X19380204Y17210003D01*
X19361686Y17234971D01*
X21916813Y17234971D01*
X21959352Y17129549D01*
X22061075Y17090709D01*
X22161874Y17129549D01*
X22203488Y17234971D01*
X22161874Y17342243D01*
X22061075Y17381083D01*
X21959352Y17342243D01*
X21916813Y17234971D01*
X19361686Y17234971D01*
X19297900Y17320974D01*
X19179531Y17380158D01*
X19042667Y17397729D01*
X18894706Y17384782D01*
X18757842Y17342243D01*
X16107777Y17342243D01*
X16107777Y17408826D01*
X26228031Y17408826D01*
X26742196Y15810845D01*
X26978934Y15810845D01*
X26461070Y17408826D01*
X27152789Y17408826D01*
X27666954Y15810845D01*
X27903692Y15810845D01*
X27757443Y16262127D01*
X28286541Y16262127D01*
X28336478Y16138209D01*
X28451148Y16095670D01*
X28514031Y16106767D01*
X28566743Y16139134D01*
X28603733Y16190920D01*
X28617604Y16262127D01*
X28603733Y16331483D01*
X28585574Y16356452D01*
X29022648Y16356452D01*
X29042993Y16254729D01*
X29110500Y16171500D01*
X29233493Y16116015D01*
X29318108Y16100756D01*
X29420294Y16095670D01*
X29524791Y16102144D01*
X29612643Y16121563D01*
X29740260Y16167801D01*
X29705119Y16358301D01*
X29567330Y16310214D01*
X29418444Y16288020D01*
X29290828Y16300042D01*
X29246439Y16349054D01*
X29260311Y16389743D01*
X29299150Y16418411D01*
X29356485Y16441530D01*
X29423993Y16463724D01*
X29525716Y16497940D01*
X29620041Y16546952D01*
X29623512Y16550651D01*
X29897468Y16550651D01*
X29903017Y16454707D01*
X29919663Y16366624D01*
X29946943Y16288482D01*
X29984396Y16222362D01*
X30091667Y16128962D01*
X30241478Y16095670D01*
X30329792Y16106305D01*
X30420881Y16138209D01*
X30420881Y15810845D01*
X30648371Y15810845D01*
X30648371Y16143758D01*
X30816677Y16143758D01*
X30952616Y16106767D01*
X31094104Y16095670D01*
X31234667Y16108617D01*
X31307552Y16143758D01*
X31741434Y16143758D01*
X31877374Y16106767D01*
X32018862Y16095670D01*
X32159425Y16108617D01*
X32262997Y16158554D01*
X32327730Y16263051D01*
X32344376Y16340962D01*
X32349925Y16439680D01*
X32349925Y16606136D01*
X32723527Y16606136D01*
X32723527Y16116015D01*
X32951017Y16116015D01*
X32951017Y16576544D01*
X32957953Y16681504D01*
X32978760Y16752248D01*
X33084182Y16805884D01*
X33146141Y16798486D01*
X33195153Y16785539D01*
X33195153Y16116015D01*
X33422643Y16116015D01*
X33422643Y17360738D01*
X33195153Y17399578D01*
X33195153Y16977889D01*
X33128570Y16995459D01*
X33060138Y17003782D01*
X32971824Y16996615D01*
X32899230Y16975114D01*
X32795658Y16893736D01*
X32740172Y16767969D01*
X32727688Y16690983D01*
X32723527Y16606136D01*
X32349925Y16606136D01*
X32349925Y16796636D01*
X32547823Y16796636D01*
X32547823Y16985287D01*
X32349925Y16985287D01*
X32349925Y17203530D01*
X32122434Y17240520D01*
X32122434Y16985287D01*
X31758080Y16985287D01*
X31758080Y16796636D01*
X32122434Y16796636D01*
X32122434Y16445229D01*
X32113187Y16367549D01*
X32087294Y16321311D01*
X32046604Y16299117D01*
X31992968Y16293568D01*
X31934709Y16295418D01*
X31882922Y16301891D01*
X31831136Y16315763D01*
X31772876Y16339806D01*
X31741434Y16143758D01*
X31307552Y16143758D01*
X31338240Y16158554D01*
X31402973Y16263051D01*
X31419619Y16340962D01*
X31425167Y16439680D01*
X31425167Y16796636D01*
X31623065Y16796636D01*
X31623065Y16985287D01*
X31425167Y16985287D01*
X31425167Y17203530D01*
X31197677Y17240520D01*
X31197677Y16985287D01*
X30833323Y16985287D01*
X30833323Y16796636D01*
X31197677Y16796636D01*
X31197677Y16445229D01*
X31188429Y16367549D01*
X31162536Y16321311D01*
X31121847Y16299117D01*
X31068211Y16293568D01*
X31009951Y16295418D01*
X30958165Y16301891D01*
X30906379Y16315763D01*
X30848119Y16339806D01*
X30816677Y16143758D01*
X30648371Y16143758D01*
X30648371Y16957544D01*
X30493937Y16990835D01*
X30403079Y17000545D01*
X30313609Y17003782D01*
X30189692Y16990219D01*
X30086735Y16949530D01*
X30004740Y16881714D01*
X29945145Y16790677D01*
X29909387Y16680322D01*
X29897468Y16550651D01*
X29623512Y16550651D01*
X29690323Y16621857D01*
X29718065Y16735602D01*
X29696796Y16840100D01*
X29630213Y16927027D01*
X29514619Y16986212D01*
X29437402Y17002164D01*
X29346313Y17007481D01*
X29264241Y17004244D01*
X29188179Y16994534D01*
X29061488Y16957544D01*
X29096629Y16765195D01*
X29194653Y16795712D01*
X29344463Y16816981D01*
X29461908Y16795712D01*
X29492425Y16750398D01*
X29478553Y16714333D01*
X29441563Y16685665D01*
X29387927Y16660697D01*
X29322269Y16637578D01*
X29218696Y16600588D01*
X29121597Y16549726D01*
X29050391Y16472047D01*
X29022648Y16356452D01*
X28585574Y16356452D01*
X28566743Y16382345D01*
X28514031Y16413787D01*
X28451148Y16424884D01*
X28336478Y16382345D01*
X28286541Y16262127D01*
X27757443Y16262127D01*
X27575831Y16822530D01*
X28286541Y16822530D01*
X28336478Y16698612D01*
X28451148Y16656073D01*
X28514031Y16667170D01*
X28566743Y16699537D01*
X28603733Y16751323D01*
X28617604Y16822530D01*
X28603733Y16891886D01*
X28566743Y16942748D01*
X28514031Y16974190D01*
X28451148Y16985287D01*
X28336478Y16942748D01*
X28286541Y16822530D01*
X27575831Y16822530D01*
X27385828Y17408826D01*
X27152789Y17408826D01*
X26461070Y17408826D01*
X26228031Y17408826D01*
X16107777Y17408826D01*
X16107777Y18525418D01*
X22330630Y18525418D01*
X22468579Y18487881D01*
X22612158Y18476620D01*
X22754798Y18489758D01*
X22813188Y18517910D01*
X23327236Y18517910D01*
X23477384Y18491634D01*
X23582957Y18480373D01*
X23700729Y18476620D01*
X23853692Y18491634D01*
X23970995Y18541371D01*
X24046069Y18631460D01*
X24072345Y18767531D01*
X24042315Y18897033D01*
X23992099Y18949585D01*
X25159039Y18949585D01*
X25159978Y18902664D01*
X25162793Y18863250D01*
X25735231Y18863250D01*
X25717401Y18786065D01*
X25663911Y18727179D01*
X25582268Y18689876D01*
X25479980Y18677442D01*
X25347663Y18692457D01*
X25241621Y18722487D01*
X25209714Y18525418D01*
X25337340Y18490696D01*
X25489364Y18476620D01*
X25596110Y18483892D01*
X25691126Y18505711D01*
X25757620Y18534802D01*
X26093709Y18534802D01*
X26119047Y18521664D01*
X26170660Y18501957D01*
X26248549Y18484127D01*
X26352714Y18476620D01*
X26490663Y18500315D01*
X26585443Y18571400D01*
X26640341Y18688000D01*
X26658640Y18848235D01*
X26658640Y18938324D01*
X27026502Y18938324D01*
X27033541Y18838147D01*
X27054655Y18747824D01*
X27089377Y18668762D01*
X27137236Y18602368D01*
X27197765Y18549113D01*
X27270493Y18509464D01*
X27354951Y18484831D01*
X27450670Y18476620D01*
X27541697Y18479904D01*
X27634601Y18489758D01*
X27720936Y18504772D01*
X27770859Y18517910D01*
X28019355Y18517910D01*
X28169502Y18491634D01*
X28275075Y18480373D01*
X28392847Y18476620D01*
X28545810Y18491634D01*
X28647620Y18534802D01*
X28908980Y18534802D01*
X28934318Y18521664D01*
X28985931Y18501957D01*
X29063820Y18484127D01*
X29167985Y18476620D01*
X29305933Y18500315D01*
X29351916Y18534802D01*
X29847404Y18534802D01*
X29981598Y18488819D01*
X30097025Y18476620D01*
X30248111Y18502895D01*
X30267389Y18517910D01*
X30834626Y18517910D01*
X30984773Y18491634D01*
X31090346Y18480373D01*
X31208118Y18476620D01*
X31361081Y18491634D01*
X31478384Y18541371D01*
X31553458Y18631460D01*
X31579734Y18767531D01*
X31549704Y18897033D01*
X31469000Y18981492D01*
X31352635Y19027474D01*
X31215626Y19041551D01*
X31130698Y19037797D01*
X31056094Y19026536D01*
X31056094Y19054689D01*
X31097384Y19164484D01*
X31153690Y19197564D01*
X31240025Y19208590D01*
X31366712Y19199206D01*
X31465246Y19176684D01*
X31497153Y19362492D01*
X31421434Y19379383D01*
X31688591Y19379383D01*
X31729061Y19248766D01*
X31771642Y19123428D01*
X31816334Y19003369D01*
X31863138Y18888588D01*
X31925699Y18745426D01*
X31985759Y18614985D01*
X32043315Y18497265D01*
X32236630Y18497265D01*
X32246559Y18517910D01*
X32711473Y18517910D01*
X32861621Y18491634D01*
X32967193Y18480373D01*
X33084965Y18476620D01*
X33237929Y18491634D01*
X33355231Y18541371D01*
X33430305Y18631460D01*
X33456581Y18767531D01*
X33426552Y18897033D01*
X33345847Y18981492D01*
X33229483Y19027474D01*
X33092473Y19041551D01*
X33007546Y19037797D01*
X32932941Y19026536D01*
X32932941Y19054689D01*
X32974231Y19164484D01*
X33030537Y19197564D01*
X33116872Y19208590D01*
X33243559Y19199206D01*
X33342094Y19176684D01*
X33374000Y19362492D01*
X33252005Y19389706D01*
X33171770Y19398855D01*
X33088719Y19401905D01*
X32989012Y19395571D01*
X32907603Y19376568D01*
X32792177Y19305248D01*
X32730241Y19192637D01*
X32711473Y19043428D01*
X32711473Y18517910D01*
X32246559Y18517910D01*
X32293249Y18614985D01*
X32350493Y18745426D01*
X32408362Y18888588D01*
X32451471Y19003369D01*
X32493524Y19123428D01*
X32534521Y19248766D01*
X32574463Y19379383D01*
X32332350Y19379383D01*
X32291997Y19227359D01*
X32267833Y19146420D01*
X32242261Y19065011D01*
X32215751Y18984541D01*
X32188771Y18906418D01*
X32137158Y18765654D01*
X32082729Y18906418D01*
X32052934Y18984541D01*
X32023608Y19065011D01*
X31994986Y19146420D01*
X31967303Y19227359D01*
X31923197Y19379383D01*
X31688591Y19379383D01*
X31421434Y19379383D01*
X31375158Y19389706D01*
X31294922Y19398855D01*
X31211872Y19401905D01*
X31112164Y19395571D01*
X31030756Y19376568D01*
X30915330Y19305248D01*
X30853394Y19192637D01*
X30834626Y19043428D01*
X30834626Y18517910D01*
X30267389Y18517910D01*
X30345707Y18578908D01*
X30397320Y18699964D01*
X30408581Y18776446D01*
X30412335Y18863250D01*
X30412335Y19187945D01*
X30656325Y19187945D01*
X30656325Y19379383D01*
X30181483Y19379383D01*
X30181483Y18833221D01*
X30152392Y18715918D01*
X30055734Y18677442D01*
X29978783Y18685888D01*
X29877433Y18720610D01*
X29847404Y18534802D01*
X29351916Y18534802D01*
X29400714Y18571400D01*
X29455612Y18688000D01*
X29473911Y18848235D01*
X29473911Y19597097D01*
X29717901Y19597097D01*
X29717901Y19632758D01*
X30190867Y19632758D01*
X30234034Y19525777D01*
X30337261Y19486363D01*
X30439549Y19525777D01*
X30481778Y19632758D01*
X30439549Y19741615D01*
X30337261Y19781028D01*
X30234034Y19741615D01*
X30190867Y19632758D01*
X29717901Y19632758D01*
X29717901Y19788536D01*
X29243059Y19788536D01*
X29243059Y18831344D01*
X29207399Y18709349D01*
X29117310Y18677442D01*
X29000946Y18696211D01*
X28939010Y18720610D01*
X28908980Y18534802D01*
X28647620Y18534802D01*
X28663113Y18541371D01*
X28738187Y18631460D01*
X28764463Y18767531D01*
X28734433Y18897033D01*
X28653729Y18981492D01*
X28537364Y19027474D01*
X28400355Y19041551D01*
X28315427Y19037797D01*
X28240823Y19026536D01*
X28240823Y19054689D01*
X28282113Y19164484D01*
X28338419Y19197564D01*
X28424754Y19208590D01*
X28551441Y19199206D01*
X28649975Y19176684D01*
X28681882Y19362492D01*
X28559887Y19389706D01*
X28479651Y19398855D01*
X28396601Y19401905D01*
X28296893Y19395571D01*
X28215485Y19376568D01*
X28100059Y19305248D01*
X28038123Y19192637D01*
X28019355Y19043428D01*
X28019355Y18517910D01*
X27770859Y18517910D01*
X27792256Y18523541D01*
X27792256Y19760383D01*
X27561404Y19799797D01*
X27561404Y19358738D01*
X27467562Y19389706D01*
X27377473Y19398152D01*
X27296299Y19389940D01*
X27225448Y19365307D01*
X27115653Y19271464D01*
X27076943Y19204602D01*
X27049025Y19126009D01*
X27032133Y19036859D01*
X27026502Y18938324D01*
X26658640Y18938324D01*
X26658640Y19597097D01*
X26902630Y19597097D01*
X26902630Y19788536D01*
X26427788Y19788536D01*
X26427788Y18831344D01*
X26392128Y18709349D01*
X26302039Y18677442D01*
X26185675Y18696211D01*
X26123739Y18720610D01*
X26093709Y18534802D01*
X25757620Y18534802D01*
X25773707Y18541840D01*
X25843150Y18592046D01*
X25898752Y18656093D01*
X25939808Y18733748D01*
X25965145Y18825244D01*
X25973591Y18930817D01*
X25964676Y19040143D01*
X25937931Y19135393D01*
X25896640Y19216332D01*
X25844089Y19282726D01*
X25781683Y19334573D01*
X25710832Y19371876D01*
X25634820Y19394398D01*
X25556931Y19401905D01*
X25437230Y19389080D01*
X25338383Y19350605D01*
X25260389Y19286479D01*
X25204084Y19197746D01*
X25170300Y19085448D01*
X25159039Y18949585D01*
X23992099Y18949585D01*
X23961611Y18981492D01*
X23845246Y19027474D01*
X23708236Y19041551D01*
X23623309Y19037797D01*
X23548704Y19026536D01*
X23548704Y19054689D01*
X23589995Y19164484D01*
X23646300Y19197564D01*
X23732635Y19208590D01*
X23859323Y19199206D01*
X23957857Y19176684D01*
X23989763Y19362492D01*
X23867768Y19389706D01*
X23787533Y19398855D01*
X23704483Y19401905D01*
X23604775Y19395571D01*
X23523367Y19376568D01*
X23407941Y19305248D01*
X23346005Y19192637D01*
X23327236Y19043428D01*
X23327236Y18517910D01*
X22813188Y18517910D01*
X22859901Y18540432D01*
X22925591Y18646474D01*
X22942483Y18725537D01*
X22948113Y18825713D01*
X22948113Y19187945D01*
X23148936Y19187945D01*
X23148936Y19379383D01*
X22948113Y19379383D01*
X22948113Y19600851D01*
X22717261Y19638388D01*
X22717261Y19379383D01*
X22347522Y19379383D01*
X22347522Y19187945D01*
X22717261Y19187945D01*
X22717261Y18831344D01*
X22707877Y18752516D01*
X22681601Y18705595D01*
X22640310Y18683073D01*
X22585882Y18677442D01*
X22526761Y18679319D01*
X22474209Y18685888D01*
X22421658Y18699964D01*
X22362537Y18724363D01*
X22330630Y18525418D01*
X16107777Y18525418D01*
X16107777Y21126165D01*
X16504652Y21126165D01*
X16525607Y21021390D01*
X16595140Y20935665D01*
X16721822Y20878515D01*
X16808976Y20862799D01*
X16914228Y20857560D01*
X17021860Y20864227D01*
X17112347Y20884230D01*
X17243792Y20931855D01*
X17233601Y20987100D01*
X17464772Y20987100D01*
X17476520Y20853750D01*
X17511762Y20745800D01*
X17570500Y20663250D01*
X17655272Y20605042D01*
X17768620Y20570117D01*
X17910542Y20558475D01*
X17992696Y20562761D01*
X18071515Y20575620D01*
X18219152Y20615625D01*
X18175337Y20813745D01*
X18059132Y20774692D01*
X17906732Y20756595D01*
X17805767Y20770882D01*
X17742902Y20809935D01*
X17710517Y20868037D01*
X17709120Y20878515D01*
X18411557Y20878515D01*
X18645872Y20878515D01*
X18645872Y21352860D01*
X18653016Y21460969D01*
X18674447Y21533835D01*
X18790652Y21589080D01*
X18843040Y21587175D01*
X18897332Y21581460D01*
X18897332Y20878515D01*
X19131647Y20878515D01*
X19131647Y20916615D01*
X19314527Y20916615D01*
X19450735Y20869942D01*
X19567892Y20857560D01*
X19651951Y20864227D01*
X19721245Y20884230D01*
X19820305Y20961382D01*
X19872692Y21084255D01*
X19884122Y21161884D01*
X19887932Y21249990D01*
X19887932Y21579555D01*
X20135582Y21579555D01*
X20135582Y21773865D01*
X20225117Y21773865D01*
X20236607Y21645277D01*
X20250121Y21520500D01*
X20265658Y21399532D01*
X20283220Y21282375D01*
X20308937Y21135055D01*
X20336560Y21000435D01*
X20366087Y20878515D01*
X20543252Y20878515D01*
X20582305Y20987100D01*
X20616595Y21083302D01*
X20648980Y21180457D01*
X20682317Y21291900D01*
X20716607Y21182362D01*
X20748040Y21086160D01*
X20781377Y20989005D01*
X20823287Y20878515D01*
X21000452Y20878515D01*
X21005705Y20899470D01*
X21269057Y20899470D01*
X21421457Y20872800D01*
X21528614Y20861370D01*
X21648152Y20857560D01*
X21803410Y20872800D01*
X21922472Y20923282D01*
X21998672Y21014722D01*
X22025342Y21152835D01*
X21994862Y21284280D01*
X21912947Y21370005D01*
X21794837Y21416677D01*
X21655772Y21430965D01*
X21569571Y21427155D01*
X21493847Y21415725D01*
X21493847Y21444300D01*
X21535757Y21555742D01*
X21592907Y21589318D01*
X21680537Y21600510D01*
X21809125Y21590985D01*
X21909137Y21568125D01*
X21940868Y21752910D01*
X22187267Y21752910D01*
X22229177Y21535740D01*
X22283470Y21547170D01*
X22347287Y21557647D01*
X22410152Y21564315D01*
X22461587Y21566220D01*
X22558742Y21561457D01*
X22655897Y21543360D01*
X22655897Y20878515D01*
X22892117Y20878515D01*
X22892117Y21469065D01*
X23113097Y21469065D01*
X23123337Y21317379D01*
X23154055Y21189982D01*
X23202871Y21085446D01*
X23267402Y21002340D01*
X23346698Y20939713D01*
X23439805Y20896612D01*
X23544818Y20871609D01*
X23659832Y20863275D01*
X23782705Y20869942D01*
X23833023Y20878515D01*
X25000953Y20878515D01*
X25223838Y20878515D01*
X25269558Y20979480D01*
X25335280Y20929236D01*
X25402908Y20892802D01*
X25538163Y20863275D01*
X25687705Y20889945D01*
X25794385Y20961382D01*
X25858203Y21065205D01*
X25868519Y21126165D01*
X26982153Y21126165D01*
X27003108Y21021390D01*
X27072640Y20935665D01*
X27199323Y20878515D01*
X27286476Y20862799D01*
X27391728Y20857560D01*
X27499360Y20864227D01*
X27589848Y20884230D01*
X27679231Y20916615D01*
X27887028Y20916615D01*
X27912745Y20903280D01*
X27965133Y20883277D01*
X28044190Y20865180D01*
X28149918Y20857560D01*
X28289935Y20881611D01*
X28313747Y20899470D01*
X28889058Y20899470D01*
X29041458Y20872800D01*
X29148614Y20861370D01*
X29268153Y20857560D01*
X29423410Y20872800D01*
X29508777Y20908995D01*
X29847273Y20908995D01*
X29918948Y20891850D01*
X30004435Y20874705D01*
X30100876Y20861846D01*
X30205413Y20857560D01*
X30305901Y20865180D01*
X30352852Y20878515D01*
X30794058Y20878515D01*
X31028373Y20878515D01*
X31028373Y21352860D01*
X31035516Y21460969D01*
X31056948Y21533835D01*
X31173153Y21589080D01*
X31225540Y21587175D01*
X31279833Y21581460D01*
X31279833Y20878515D01*
X31514148Y20878515D01*
X31514148Y20899470D01*
X31746558Y20899470D01*
X31898958Y20872800D01*
X32006114Y20861370D01*
X32125653Y20857560D01*
X32280910Y20872800D01*
X32294389Y20878515D01*
X32630478Y20878515D01*
X32845743Y20878515D01*
X32834313Y21794820D01*
X32979093Y21295710D01*
X33150543Y21295710D01*
X33289608Y21794820D01*
X33280083Y20878515D01*
X33495348Y20878515D01*
X33489394Y21026152D01*
X33482965Y21179505D01*
X33476059Y21335239D01*
X33468678Y21490020D01*
X33460343Y21641944D01*
X33450580Y21789105D01*
X33439388Y21928646D01*
X33426768Y22057710D01*
X33232458Y22057710D01*
X33199120Y21954840D01*
X33156258Y21819585D01*
X33110537Y21672900D01*
X33066722Y21535740D01*
X33019098Y21681472D01*
X32971473Y21826252D01*
X32929563Y21956745D01*
X32895273Y22057710D01*
X32700963Y22057710D01*
X32687866Y21905310D01*
X32675245Y21756720D01*
X32663815Y21610749D01*
X32654290Y21466207D01*
X32646432Y21321904D01*
X32640003Y21176647D01*
X32634764Y21029248D01*
X32630478Y20878515D01*
X32294389Y20878515D01*
X32399973Y20923282D01*
X32476173Y21014722D01*
X32502843Y21152835D01*
X32472363Y21284280D01*
X32390448Y21370005D01*
X32272338Y21416677D01*
X32133273Y21430965D01*
X32047071Y21427155D01*
X31971348Y21415725D01*
X31971348Y21444300D01*
X32013258Y21555742D01*
X32070408Y21589318D01*
X32158038Y21600510D01*
X32286625Y21590985D01*
X32386638Y21568125D01*
X32419023Y21756720D01*
X32295198Y21784342D01*
X32213759Y21793629D01*
X32129463Y21796725D01*
X32028259Y21790296D01*
X31945630Y21771007D01*
X31828473Y21698617D01*
X31765608Y21584317D01*
X31746558Y21432870D01*
X31746558Y20899470D01*
X31514148Y20899470D01*
X31514148Y21745290D01*
X31443901Y21761959D01*
X31358890Y21777675D01*
X31262449Y21789105D01*
X31157913Y21792915D01*
X31060281Y21785533D01*
X30980748Y21763387D01*
X30869305Y21679567D01*
X30811203Y21550027D01*
X30798344Y21470732D01*
X30794058Y21383340D01*
X30794058Y20878515D01*
X30352852Y20878515D01*
X30386388Y20888040D01*
X30497830Y20974717D01*
X30554028Y21107115D01*
X30565458Y21187125D01*
X30569268Y21274755D01*
X30569268Y21773865D01*
X30334953Y21773865D01*
X30334953Y21305235D01*
X30327571Y21197364D01*
X30305425Y21121402D01*
X30190173Y21061395D01*
X30083493Y21070920D01*
X30083493Y21773865D01*
X29847273Y21773865D01*
X29847273Y20908995D01*
X29508777Y20908995D01*
X29542473Y20923282D01*
X29618673Y21014722D01*
X29645343Y21152835D01*
X29614863Y21284280D01*
X29532948Y21370005D01*
X29414838Y21416677D01*
X29275773Y21430965D01*
X29189571Y21427155D01*
X29113848Y21415725D01*
X29113848Y21444300D01*
X29155758Y21555742D01*
X29212908Y21589318D01*
X29300538Y21600510D01*
X29429125Y21590985D01*
X29529138Y21568125D01*
X29561523Y21756720D01*
X29437698Y21784342D01*
X29356259Y21793629D01*
X29271963Y21796725D01*
X29170759Y21790296D01*
X29088130Y21771007D01*
X28970973Y21698617D01*
X28908108Y21584317D01*
X28889058Y21432870D01*
X28889058Y20899470D01*
X28313747Y20899470D01*
X28386138Y20953762D01*
X28441859Y21072111D01*
X28460433Y21234750D01*
X28460433Y21994845D01*
X28708083Y21994845D01*
X28708083Y22189155D01*
X28226118Y22189155D01*
X28226118Y21217605D01*
X28189923Y21093780D01*
X28098483Y21061395D01*
X27980373Y21080445D01*
X27917508Y21105210D01*
X27887028Y20916615D01*
X27679231Y20916615D01*
X27721293Y20931855D01*
X27685098Y21128070D01*
X27543175Y21078540D01*
X27389823Y21055680D01*
X27258378Y21068062D01*
X27212658Y21118545D01*
X27226945Y21160455D01*
X27266950Y21189982D01*
X27326005Y21213795D01*
X27395538Y21236655D01*
X27500313Y21271897D01*
X27597468Y21322380D01*
X27669858Y21399532D01*
X27698433Y21516690D01*
X27676525Y21624322D01*
X27607945Y21713857D01*
X27488883Y21774817D01*
X27409349Y21791248D01*
X27315528Y21796725D01*
X27230993Y21793391D01*
X27152650Y21783390D01*
X27022158Y21745290D01*
X27058352Y21547170D01*
X27159318Y21578602D01*
X27313623Y21600510D01*
X27434590Y21578602D01*
X27466023Y21531930D01*
X27451735Y21494782D01*
X27413635Y21465255D01*
X27358390Y21439537D01*
X27290763Y21415725D01*
X27184083Y21377625D01*
X27084070Y21325237D01*
X27010727Y21245227D01*
X26982153Y21126165D01*
X25868519Y21126165D01*
X25879158Y21189030D01*
X25867489Y21278327D01*
X25832485Y21363337D01*
X25774144Y21439776D01*
X25692468Y21503355D01*
X25767715Y21634800D01*
X25797243Y21777675D01*
X25770573Y21911977D01*
X25700088Y22008180D01*
X25601980Y22065330D01*
X25490538Y22084380D01*
X25385763Y22067235D01*
X25294323Y22016752D01*
X25229553Y21932932D01*
X25204788Y21815775D01*
X25218599Y21725526D01*
X25260033Y21637657D01*
X25330994Y21557409D01*
X25433388Y21490020D01*
X25353378Y21396675D01*
X25267653Y21299520D01*
X25247174Y21405724D01*
X25239078Y21530025D01*
X25044768Y21505260D01*
X25052626Y21402390D01*
X25072390Y21307140D01*
X25101679Y21219986D01*
X25138113Y21141405D01*
X25056198Y21011865D01*
X25000953Y20878515D01*
X23833023Y20878515D01*
X23911292Y20891850D01*
X23911292Y22042470D01*
X23760797Y22065330D01*
X23629352Y22071045D01*
X23518148Y22062472D01*
X23416945Y22036755D01*
X23328124Y21992702D01*
X23254067Y21929122D01*
X23194774Y21845779D01*
X23150245Y21742432D01*
X23122384Y21617417D01*
X23113097Y21469065D01*
X22892117Y21469065D01*
X22892117Y21714810D01*
X22797582Y21745766D01*
X22700665Y21770055D01*
X22594223Y21785771D01*
X22471112Y21791010D01*
X22416820Y21789105D01*
X22341572Y21782437D01*
X22260610Y21771007D01*
X22187267Y21752910D01*
X21940868Y21752910D01*
X21941522Y21756720D01*
X21817697Y21784342D01*
X21736259Y21793629D01*
X21651962Y21796725D01*
X21550759Y21790296D01*
X21468130Y21771007D01*
X21350972Y21698617D01*
X21288107Y21584317D01*
X21269057Y21432870D01*
X21269057Y20899470D01*
X21005705Y20899470D01*
X21022598Y20966859D01*
X21043315Y21064252D01*
X21062603Y21169504D01*
X21080462Y21281422D01*
X21096655Y21398818D01*
X21110942Y21520500D01*
X21123801Y21645754D01*
X21135707Y21773865D01*
X20935683Y21773865D01*
X20930497Y21664222D01*
X20925099Y21556272D01*
X20919490Y21450015D01*
X20912187Y21343547D01*
X20901710Y21234962D01*
X20888058Y21124260D01*
X20845195Y21258562D01*
X20812810Y21376672D01*
X20786140Y21485257D01*
X20760422Y21592890D01*
X20590877Y21592890D01*
X20567065Y21485257D01*
X20540395Y21376672D01*
X20509915Y21258562D01*
X20470862Y21124260D01*
X20460385Y21209985D01*
X20451812Y21291900D01*
X20444907Y21371672D01*
X20439430Y21450967D01*
X20431810Y21609082D01*
X20428714Y21689807D01*
X20425142Y21773865D01*
X20225117Y21773865D01*
X20135582Y21773865D01*
X19653617Y21773865D01*
X19653617Y21219510D01*
X19624090Y21100447D01*
X19525982Y21061395D01*
X19447877Y21069967D01*
X19345007Y21105210D01*
X19314527Y20916615D01*
X19131647Y20916615D01*
X19131647Y21745290D01*
X19061401Y21761959D01*
X18976390Y21777675D01*
X18879949Y21789105D01*
X18775412Y21792915D01*
X18677781Y21785533D01*
X18598247Y21763387D01*
X18486805Y21679567D01*
X18428702Y21550027D01*
X18415844Y21470732D01*
X18411557Y21383340D01*
X18411557Y20878515D01*
X17709120Y20878515D01*
X17700992Y20939475D01*
X17700992Y20975670D01*
X17791480Y20947095D01*
X17880062Y20937570D01*
X17987483Y20949847D01*
X18076066Y20986677D01*
X18145810Y21048060D01*
X18196081Y21131245D01*
X18226243Y21233480D01*
X18236297Y21354765D01*
X18222751Y21489597D01*
X18182111Y21599452D01*
X18114377Y21684330D01*
X18023361Y21744655D01*
X17912871Y21780850D01*
X17782907Y21792915D01*
X17682366Y21787623D01*
X17576321Y21771748D01*
X17464772Y21745290D01*
X17464772Y20987100D01*
X17233601Y20987100D01*
X17207597Y21128070D01*
X17065675Y21078540D01*
X16912322Y21055680D01*
X16780878Y21068062D01*
X16735157Y21118545D01*
X16749445Y21160455D01*
X16789450Y21189982D01*
X16848505Y21213795D01*
X16918038Y21236655D01*
X17022812Y21271897D01*
X17119967Y21322380D01*
X17192357Y21399532D01*
X17220932Y21516690D01*
X17199025Y21624322D01*
X17130445Y21713857D01*
X17011382Y21774817D01*
X16931849Y21791248D01*
X16838028Y21796725D01*
X16753493Y21793391D01*
X16675150Y21783390D01*
X16544657Y21745290D01*
X16580852Y21547170D01*
X16681817Y21578602D01*
X16836122Y21600510D01*
X16957090Y21578602D01*
X16988522Y21531930D01*
X16974235Y21494782D01*
X16936135Y21465255D01*
X16880890Y21439537D01*
X16813262Y21415725D01*
X16706582Y21377625D01*
X16606570Y21325237D01*
X16533227Y21245227D01*
X16504652Y21126165D01*
X16107777Y21126165D01*
X16107777Y22031040D01*
X19663142Y22031040D01*
X19706957Y21922455D01*
X19811732Y21882450D01*
X19915555Y21922455D01*
X19958417Y22031040D01*
X19915555Y22141530D01*
X19811732Y22181535D01*
X19706957Y22141530D01*
X19663142Y22031040D01*
X16107777Y22031040D01*
X16107777Y22586030D01*
X33892223Y22586030D01*
X33892223Y15413970D01*
X16107777Y15413970D01*
G37*
G36*
X30370944Y16806809D02*
G01*
X30420881Y16802185D01*
X30420881Y16325010D01*
X30361696Y16300966D01*
X30287716Y16291719D01*
X30167497Y16357377D01*
X30138368Y16436675D01*
X30128658Y16543253D01*
X30140217Y16649369D01*
X30174896Y16734678D01*
X30233155Y16790857D01*
X30315459Y16809583D01*
X30370944Y16806809D01*
G37*
G36*
X25653415Y21300472D02*
G01*
X25679133Y21200460D01*
X25645795Y21088065D01*
X25532448Y21040440D01*
X25444818Y21057585D01*
X25362903Y21116640D01*
X25417195Y21182362D01*
X25473393Y21246180D01*
X25530066Y21308569D01*
X25585788Y21370005D01*
X25653415Y21300472D01*
G37*
G36*
X33114995Y18875450D02*
G01*
X33174116Y18859496D01*
X33214468Y18827590D01*
X33229483Y18773162D01*
X33184438Y18687765D01*
X33068074Y18662428D01*
X32994877Y18663366D01*
X32932941Y18668058D01*
X32932941Y18870758D01*
X32987369Y18877327D01*
X33045552Y18880142D01*
X33114995Y18875450D01*
G37*
G36*
X25631066Y19193575D02*
G01*
X25685495Y19152285D01*
X25719278Y19092226D01*
X25735231Y19022782D01*
X25382384Y19022782D01*
X25391768Y19091287D01*
X25421798Y19150408D01*
X25474350Y19192637D01*
X25553177Y19208590D01*
X25631066Y19193575D01*
G37*
G36*
X29298633Y21262372D02*
G01*
X29358640Y21246180D01*
X29399598Y21213795D01*
X29414838Y21158550D01*
X29369118Y21071872D01*
X29251008Y21046155D01*
X29176713Y21047107D01*
X29113848Y21051870D01*
X29113848Y21257610D01*
X29169092Y21264277D01*
X29228148Y21267135D01*
X29298633Y21262372D01*
G37*
G36*
X32156133Y21262372D02*
G01*
X32216140Y21246180D01*
X32257098Y21213795D01*
X32272338Y21158550D01*
X32226618Y21071872D01*
X32108508Y21046155D01*
X32034213Y21047107D01*
X31971348Y21051870D01*
X31971348Y21257610D01*
X32026593Y21264277D01*
X32085648Y21267135D01*
X32156133Y21262372D01*
G37*
G36*
X27498529Y19188883D02*
G01*
X27561404Y19163546D01*
X27561404Y18684950D01*
X27506037Y18677442D01*
X27456300Y18675565D01*
X27375596Y18690815D01*
X27313660Y18736563D01*
X27274246Y18818910D01*
X27261108Y18943955D01*
X27271196Y19053281D01*
X27301461Y19133516D01*
X27352370Y19182783D01*
X27424394Y19199206D01*
X27498529Y19188883D01*
G37*
G36*
X31238148Y18875450D02*
G01*
X31297268Y18859496D01*
X31337621Y18827590D01*
X31352635Y18773162D01*
X31307591Y18687765D01*
X31191227Y18662428D01*
X31118029Y18663366D01*
X31056094Y18668058D01*
X31056094Y18870758D01*
X31110522Y18877327D01*
X31168704Y18880142D01*
X31238148Y18875450D01*
G37*
G36*
X23730759Y18875450D02*
G01*
X23789879Y18859496D01*
X23830231Y18827590D01*
X23845246Y18773162D01*
X23800202Y18687765D01*
X23683837Y18662428D01*
X23610640Y18663366D01*
X23548704Y18668058D01*
X23548704Y18870758D01*
X23603133Y18877327D01*
X23661315Y18880142D01*
X23730759Y18875450D01*
G37*
G36*
X23642687Y21866257D02*
G01*
X23676977Y21861495D01*
X23676977Y21069015D01*
X23656022Y21067110D01*
X23635067Y21067110D01*
X23500765Y21097590D01*
X23413135Y21181410D01*
X23365510Y21308092D01*
X23354794Y21385007D01*
X23351222Y21469065D01*
X23362652Y21617655D01*
X23402657Y21745290D01*
X23480762Y21833872D01*
X23608397Y21867210D01*
X23642687Y21866257D01*
G37*
G36*
X17906732Y21574898D02*
G01*
X17975312Y21492348D01*
X17998172Y21354765D01*
X17988171Y21257372D01*
X17958167Y21186172D01*
X17832437Y21128070D01*
X17761000Y21137595D01*
X17700992Y21162360D01*
X17700992Y21592890D01*
X17748617Y21600510D01*
X17792432Y21602415D01*
X17906732Y21574898D01*
G37*
G36*
X21678632Y21262372D02*
G01*
X21738640Y21246180D01*
X21779597Y21213795D01*
X21794837Y21158550D01*
X21749117Y21071872D01*
X21631007Y21046155D01*
X21556712Y21047107D01*
X21493847Y21051870D01*
X21493847Y21257610D01*
X21549092Y21264277D01*
X21608147Y21267135D01*
X21678632Y21262372D01*
G37*
G04 #@! TO.C,REF\u002A\u002A*
G36*
X36467495Y6453780D02*
G01*
X36498599Y6445879D01*
X36527559Y6426183D01*
X36564831Y6389516D01*
X36588801Y6363622D01*
X36613770Y6330003D01*
X36625031Y6298494D01*
X36627657Y6258515D01*
X36627657Y6193083D01*
X36583035Y6216158D01*
X36547673Y6244276D01*
X36523451Y6282152D01*
X36519291Y6292449D01*
X36487594Y6332363D01*
X36443554Y6352376D01*
X36395531Y6350428D01*
X36351886Y6324457D01*
X36333420Y6303365D01*
X36322663Y6276381D01*
X36334178Y6252366D01*
X36369981Y6228209D01*
X36432090Y6200801D01*
X36441515Y6197015D01*
X36498058Y6172241D01*
X36546580Y6147811D01*
X36577451Y6128514D01*
X36608371Y6094047D01*
X36628927Y6039043D01*
X36626744Y5980017D01*
X36602424Y5924155D01*
X36556568Y5878645D01*
X36519438Y5859273D01*
X36447711Y5845708D01*
X36407852Y5847538D01*
X36370953Y5857432D01*
X36356797Y5878194D01*
X36362091Y5912387D01*
X36363631Y5916908D01*
X36375842Y5940884D01*
X36396174Y5949958D01*
X36434908Y5949351D01*
X36462257Y5948526D01*
X36494257Y5955608D01*
X36516182Y5976781D01*
X36528670Y6002848D01*
X36530062Y6030155D01*
X36529998Y6030315D01*
X36513807Y6045070D01*
X36479155Y6066543D01*
X36434321Y6090542D01*
X36387582Y6112875D01*
X36347217Y6129348D01*
X36321504Y6135771D01*
X36317679Y6129482D01*
X36312864Y6099885D01*
X36309566Y6051553D01*
X36308343Y5990628D01*
X36308058Y5948458D01*
X36306718Y5895347D01*
X36304528Y5858975D01*
X36301769Y5845486D01*
X36287344Y5850019D01*
X36258226Y5862330D01*
X36221257Y5879174D01*
X36221257Y6095279D01*
X36221493Y6150673D01*
X36223729Y6234793D01*
X36229423Y6297200D01*
X36239903Y6342642D01*
X36256497Y6375867D01*
X36280531Y6401622D01*
X36313333Y6424656D01*
X36355124Y6443665D01*
X36432287Y6455086D01*
X36467495Y6453780D01*
G37*
X36467495Y6453780D02*
X36498599Y6445879D01*
X36527559Y6426183D01*
X36564831Y6389516D01*
X36588801Y6363622D01*
X36613770Y6330003D01*
X36625031Y6298494D01*
X36627657Y6258515D01*
X36627657Y6193083D01*
X36583035Y6216158D01*
X36547673Y6244276D01*
X36523451Y6282152D01*
X36519291Y6292449D01*
X36487594Y6332363D01*
X36443554Y6352376D01*
X36395531Y6350428D01*
X36351886Y6324457D01*
X36333420Y6303365D01*
X36322663Y6276381D01*
X36334178Y6252366D01*
X36369981Y6228209D01*
X36432090Y6200801D01*
X36441515Y6197015D01*
X36498058Y6172241D01*
X36546580Y6147811D01*
X36577451Y6128514D01*
X36608371Y6094047D01*
X36628927Y6039043D01*
X36626744Y5980017D01*
X36602424Y5924155D01*
X36556568Y5878645D01*
X36519438Y5859273D01*
X36447711Y5845708D01*
X36407852Y5847538D01*
X36370953Y5857432D01*
X36356797Y5878194D01*
X36362091Y5912387D01*
X36363631Y5916908D01*
X36375842Y5940884D01*
X36396174Y5949958D01*
X36434908Y5949351D01*
X36462257Y5948526D01*
X36494257Y5955608D01*
X36516182Y5976781D01*
X36528670Y6002848D01*
X36530062Y6030155D01*
X36529998Y6030315D01*
X36513807Y6045070D01*
X36479155Y6066543D01*
X36434321Y6090542D01*
X36387582Y6112875D01*
X36347217Y6129348D01*
X36321504Y6135771D01*
X36317679Y6129482D01*
X36312864Y6099885D01*
X36309566Y6051553D01*
X36308343Y5990628D01*
X36308058Y5948458D01*
X36306718Y5895347D01*
X36304528Y5858975D01*
X36301769Y5845486D01*
X36287344Y5850019D01*
X36258226Y5862330D01*
X36221257Y5879174D01*
X36221257Y6095279D01*
X36221493Y6150673D01*
X36223729Y6234793D01*
X36229423Y6297200D01*
X36239903Y6342642D01*
X36256497Y6375867D01*
X36280531Y6401622D01*
X36313333Y6424656D01*
X36355124Y6443665D01*
X36432287Y6455086D01*
X36467495Y6453780D01*
G36*
X37153941Y6450718D02*
G01*
X37185774Y6438242D01*
X37222743Y6421398D01*
X37222743Y5934804D01*
X37176812Y5888873D01*
X37166320Y5878573D01*
X37137255Y5855680D01*
X37107943Y5848265D01*
X37064326Y5851679D01*
X37046568Y5853886D01*
X37000767Y5858555D01*
X36968743Y5860415D01*
X36959244Y5860131D01*
X36920274Y5857052D01*
X36873160Y5851679D01*
X36858085Y5849832D01*
X36820110Y5849107D01*
X36792325Y5860571D01*
X36760674Y5888873D01*
X36714743Y5934804D01*
X36714743Y6194945D01*
X36715101Y6271820D01*
X36716216Y6345114D01*
X36717952Y6403150D01*
X36720167Y6441337D01*
X36722721Y6455086D01*
X36723256Y6455049D01*
X36741808Y6448207D01*
X36773153Y6433132D01*
X36815608Y6411178D01*
X36819604Y6182760D01*
X36823600Y5954343D01*
X36910686Y5954343D01*
X36914657Y6204714D01*
X36915916Y6272773D01*
X36917718Y6345518D01*
X36919671Y6403270D01*
X36921612Y6441352D01*
X36923377Y6455086D01*
X36923885Y6455038D01*
X36941482Y6449985D01*
X36973834Y6439151D01*
X37019543Y6423217D01*
X37019765Y6203294D01*
X37019988Y6165091D01*
X37021531Y6090854D01*
X37024292Y6028855D01*
X37027977Y5984692D01*
X37032292Y5963959D01*
X37047732Y5952869D01*
X37079241Y5949444D01*
X37113886Y5954343D01*
X37117857Y6204714D01*
X37119278Y6268337D01*
X37122225Y6343644D01*
X37126079Y6402714D01*
X37130542Y6441282D01*
X37135317Y6455086D01*
X37153941Y6450718D01*
G37*
X37153941Y6450718D02*
X37185774Y6438242D01*
X37222743Y6421398D01*
X37222743Y5934804D01*
X37176812Y5888873D01*
X37166320Y5878573D01*
X37137255Y5855680D01*
X37107943Y5848265D01*
X37064326Y5851679D01*
X37046568Y5853886D01*
X37000767Y5858555D01*
X36968743Y5860415D01*
X36959244Y5860131D01*
X36920274Y5857052D01*
X36873160Y5851679D01*
X36858085Y5849832D01*
X36820110Y5849107D01*
X36792325Y5860571D01*
X36760674Y5888873D01*
X36714743Y5934804D01*
X36714743Y6194945D01*
X36715101Y6271820D01*
X36716216Y6345114D01*
X36717952Y6403150D01*
X36720167Y6441337D01*
X36722721Y6455086D01*
X36723256Y6455049D01*
X36741808Y6448207D01*
X36773153Y6433132D01*
X36815608Y6411178D01*
X36819604Y6182760D01*
X36823600Y5954343D01*
X36910686Y5954343D01*
X36914657Y6204714D01*
X36915916Y6272773D01*
X36917718Y6345518D01*
X36919671Y6403270D01*
X36921612Y6441352D01*
X36923377Y6455086D01*
X36923885Y6455038D01*
X36941482Y6449985D01*
X36973834Y6439151D01*
X37019543Y6423217D01*
X37019765Y6203294D01*
X37019988Y6165091D01*
X37021531Y6090854D01*
X37024292Y6028855D01*
X37027977Y5984692D01*
X37032292Y5963959D01*
X37047732Y5952869D01*
X37079241Y5949444D01*
X37113886Y5954343D01*
X37117857Y6204714D01*
X37119278Y6268337D01*
X37122225Y6343644D01*
X37126079Y6402714D01*
X37130542Y6441282D01*
X37135317Y6455086D01*
X37153941Y6450718D01*
G36*
X38613933Y11157629D02*
G01*
X38689856Y11157135D01*
X38744491Y11155865D01*
X38781500Y11153453D01*
X38804547Y11149533D01*
X38817296Y11143738D01*
X38823411Y11135701D01*
X38826556Y11125057D01*
X38826646Y11124675D01*
X38831814Y11099653D01*
X38841209Y11051319D01*
X38853867Y10984740D01*
X38868825Y10904986D01*
X38885119Y10817125D01*
X38886448Y10809936D01*
X38902691Y10724660D01*
X38917805Y10649758D01*
X38930808Y10589781D01*
X38940715Y10549283D01*
X38946544Y10532816D01*
X38946575Y10532790D01*
X38964943Y10523680D01*
X39002640Y10508543D01*
X39051543Y10490642D01*
X39054297Y10489670D01*
X39116817Y10466041D01*
X39189543Y10436405D01*
X39257294Y10406938D01*
X39368703Y10356374D01*
X39615399Y10524840D01*
X39632775Y10536689D01*
X39707202Y10587053D01*
X39773614Y10631388D01*
X39828039Y10667084D01*
X39866506Y10691529D01*
X39885042Y10702111D01*
X39897743Y10699685D01*
X39926579Y10680890D01*
X39971143Y10643670D01*
X40032670Y10586980D01*
X40112398Y10509773D01*
X40119532Y10502745D01*
X40182796Y10439778D01*
X40238990Y10382732D01*
X40284677Y10335183D01*
X40316414Y10300703D01*
X40330764Y10282869D01*
X40330810Y10282783D01*
X40332633Y10269205D01*
X40325910Y10247180D01*
X40308946Y10213696D01*
X40280044Y10165739D01*
X40237508Y10100296D01*
X40179644Y10014355D01*
X40169783Y9999849D01*
X40119913Y9926365D01*
X40075905Y9861313D01*
X40040380Y9808583D01*
X40015959Y9772064D01*
X40005264Y9755644D01*
X40004458Y9752166D01*
X40009518Y9726215D01*
X40024677Y9683841D01*
X40047463Y9632272D01*
X40078429Y9564830D01*
X40113004Y9484805D01*
X40142366Y9412371D01*
X40149645Y9393623D01*
X40168710Y9345754D01*
X40182715Y9312404D01*
X40189041Y9299886D01*
X40196025Y9298950D01*
X40227413Y9293539D01*
X40278787Y9284194D01*
X40344802Y9271931D01*
X40420113Y9257768D01*
X40499375Y9242720D01*
X40577243Y9227805D01*
X40648370Y9214039D01*
X40707412Y9202438D01*
X40749022Y9194020D01*
X40767857Y9189801D01*
X40770980Y9188611D01*
X40778591Y9182195D01*
X40784254Y9168535D01*
X40788251Y9144001D01*
X40790866Y9104962D01*
X40792384Y9047787D01*
X40793086Y8968846D01*
X40793257Y8864508D01*
X40793257Y8547201D01*
X40717057Y8532161D01*
X40707840Y8530358D01*
X40658891Y8521020D01*
X40591205Y8508331D01*
X40512478Y8493727D01*
X40430400Y8478645D01*
X40398078Y8472578D01*
X40325855Y8457819D01*
X40265666Y8443863D01*
X40223040Y8432048D01*
X40203510Y8423713D01*
X40194660Y8410095D01*
X40178548Y8374062D01*
X40162065Y8327428D01*
X40156263Y8309966D01*
X40134906Y8252642D01*
X40107359Y8184799D01*
X40078107Y8117645D01*
X40062463Y8082570D01*
X40040174Y8030178D01*
X40024857Y7990942D01*
X40019162Y7971437D01*
X40019478Y7969964D01*
X40030281Y7949271D01*
X40054638Y7909335D01*
X40090081Y7854028D01*
X40134136Y7787219D01*
X40184332Y7712780D01*
X40349501Y7470377D01*
X40132503Y7253017D01*
X40111516Y7232101D01*
X40047342Y7169495D01*
X39989990Y7115505D01*
X39942820Y7073174D01*
X39909192Y7045543D01*
X39892467Y7035657D01*
X39874303Y7043179D01*
X39836265Y7064773D01*
X39782726Y7097849D01*
X39717884Y7139809D01*
X39645940Y7188057D01*
X39575275Y7235709D01*
X39511526Y7277672D01*
X39459513Y7310835D01*
X39423279Y7332622D01*
X39406867Y7340457D01*
X39405905Y7340386D01*
X39384103Y7332662D01*
X39345440Y7314677D01*
X39297612Y7289987D01*
X39297110Y7289716D01*
X39233587Y7257901D01*
X39190060Y7242358D01*
X39163052Y7242315D01*
X39149090Y7257000D01*
X39143180Y7271456D01*
X39127229Y7310169D01*
X39102660Y7369684D01*
X39070779Y7446835D01*
X39032893Y7538459D01*
X38990310Y7641393D01*
X38944337Y7752474D01*
X38902667Y7853528D01*
X38860268Y7957220D01*
X38822756Y8049881D01*
X38791388Y8128358D01*
X38767425Y8189500D01*
X38752123Y8230157D01*
X38746743Y8247175D01*
X38757018Y8262781D01*
X38785563Y8288838D01*
X38825971Y8319113D01*
X38922979Y8398316D01*
X39009793Y8499525D01*
X39073322Y8610884D01*
X39113177Y8729107D01*
X39128965Y8850905D01*
X39120296Y8972990D01*
X39086778Y9092075D01*
X39028021Y9204871D01*
X38943632Y9308089D01*
X38899631Y9348287D01*
X38794211Y9419362D01*
X38681410Y9465699D01*
X38564525Y9488401D01*
X38446853Y9488572D01*
X38331690Y9467313D01*
X38222335Y9425730D01*
X38122083Y9364924D01*
X38034233Y9285999D01*
X37962080Y9190059D01*
X37908922Y9078205D01*
X37878057Y8951543D01*
X37872392Y8890493D01*
X37880185Y8758224D01*
X37915284Y8632734D01*
X37976649Y8516241D01*
X38063243Y8410961D01*
X38174029Y8319113D01*
X38212931Y8290070D01*
X38242104Y8263728D01*
X38253257Y8247200D01*
X38248810Y8232791D01*
X38234378Y8194185D01*
X38211173Y8134799D01*
X38180452Y8057785D01*
X38143474Y7966297D01*
X38101496Y7863484D01*
X38055778Y7752498D01*
X38014178Y7651928D01*
X37971222Y7548053D01*
X37932829Y7455181D01*
X37900305Y7376475D01*
X37874958Y7315101D01*
X37858095Y7274221D01*
X37851025Y7257000D01*
X37850943Y7256796D01*
X37836798Y7242255D01*
X37809659Y7242421D01*
X37766023Y7258073D01*
X37702388Y7289987D01*
X37697379Y7292674D01*
X37650125Y7316850D01*
X37612811Y7333963D01*
X37593133Y7340457D01*
X37577005Y7332782D01*
X37540959Y7311129D01*
X37489092Y7278072D01*
X37425445Y7236190D01*
X37354060Y7188057D01*
X37283724Y7140869D01*
X37218670Y7098733D01*
X37164820Y7065422D01*
X37126374Y7043531D01*
X37107534Y7035657D01*
X37104325Y7036657D01*
X37081954Y7052416D01*
X37043733Y7084967D01*
X36993021Y7131267D01*
X36933181Y7188274D01*
X36867571Y7252942D01*
X36650648Y7470228D01*
X36819601Y7718747D01*
X36988553Y7967267D01*
X36937183Y8078405D01*
X36937031Y8078734D01*
X36906183Y8149582D01*
X36874661Y8228477D01*
X36849266Y8298400D01*
X36845423Y8309678D01*
X36826047Y8362033D01*
X36808574Y8402717D01*
X36796388Y8423713D01*
X36791426Y8426678D01*
X36761634Y8436625D01*
X36711047Y8449495D01*
X36645194Y8463947D01*
X36569600Y8478645D01*
X36546957Y8482790D01*
X36465038Y8497884D01*
X36388600Y8512101D01*
X36325337Y8524005D01*
X36282943Y8532161D01*
X36206743Y8547201D01*
X36206743Y8864508D01*
X36206760Y8903524D01*
X36207082Y8998708D01*
X36208033Y9069745D01*
X36209896Y9120266D01*
X36212955Y9153902D01*
X36217494Y9174282D01*
X36223795Y9185038D01*
X36232143Y9189801D01*
X36240224Y9191730D01*
X36273172Y9198555D01*
X36325736Y9208978D01*
X36392569Y9221982D01*
X36468328Y9236551D01*
X36547665Y9251667D01*
X36625237Y9266315D01*
X36695698Y9279477D01*
X36753702Y9290137D01*
X36793904Y9297279D01*
X36810959Y9299886D01*
X36812112Y9301459D01*
X36821385Y9321881D01*
X36837432Y9360955D01*
X36857635Y9412371D01*
X36885672Y9481647D01*
X36920186Y9561710D01*
X36952538Y9632272D01*
X36959952Y9648111D01*
X36980755Y9697707D01*
X36993219Y9735962D01*
X36994863Y9755644D01*
X36994015Y9757038D01*
X36980548Y9777580D01*
X36953850Y9817484D01*
X36916539Y9872860D01*
X36871234Y9939823D01*
X36820552Y10014483D01*
X36763445Y10099308D01*
X36720607Y10165200D01*
X36691460Y10213522D01*
X36674317Y10247267D01*
X36667495Y10269428D01*
X36669306Y10282998D01*
X36669915Y10284016D01*
X36686297Y10303790D01*
X36719695Y10339825D01*
X36766671Y10388549D01*
X36823786Y10446388D01*
X36887603Y10509773D01*
X36953802Y10574095D01*
X37018648Y10634553D01*
X37066299Y10675345D01*
X37097990Y10697516D01*
X37114958Y10702111D01*
X37117175Y10701079D01*
X37140524Y10687163D01*
X37182912Y10659970D01*
X37240369Y10622111D01*
X37308923Y10576197D01*
X37384601Y10524840D01*
X37631298Y10356374D01*
X37742706Y10406938D01*
X37745943Y10408403D01*
X37814343Y10438035D01*
X37886907Y10467507D01*
X37948457Y10490642D01*
X37948729Y10490738D01*
X37997595Y10508633D01*
X38035212Y10523747D01*
X38053457Y10532816D01*
X38053752Y10533145D01*
X38059946Y10551718D01*
X38070139Y10593955D01*
X38083348Y10655304D01*
X38098590Y10731211D01*
X38114881Y10817125D01*
X38115449Y10820204D01*
X38131713Y10907872D01*
X38146608Y10987259D01*
X38159171Y11053299D01*
X38168438Y11100921D01*
X38173444Y11125057D01*
X38173764Y11126395D01*
X38177060Y11136727D01*
X38183738Y11144494D01*
X38197462Y11150060D01*
X38221895Y11153793D01*
X38260702Y11156058D01*
X38317546Y11157222D01*
X38396090Y11157652D01*
X38500000Y11157714D01*
X38513056Y11157714D01*
X38613933Y11157629D01*
G37*
X38613933Y11157629D02*
X38689856Y11157135D01*
X38744491Y11155865D01*
X38781500Y11153453D01*
X38804547Y11149533D01*
X38817296Y11143738D01*
X38823411Y11135701D01*
X38826556Y11125057D01*
X38826646Y11124675D01*
X38831814Y11099653D01*
X38841209Y11051319D01*
X38853867Y10984740D01*
X38868825Y10904986D01*
X38885119Y10817125D01*
X38886448Y10809936D01*
X38902691Y10724660D01*
X38917805Y10649758D01*
X38930808Y10589781D01*
X38940715Y10549283D01*
X38946544Y10532816D01*
X38946575Y10532790D01*
X38964943Y10523680D01*
X39002640Y10508543D01*
X39051543Y10490642D01*
X39054297Y10489670D01*
X39116817Y10466041D01*
X39189543Y10436405D01*
X39257294Y10406938D01*
X39368703Y10356374D01*
X39615399Y10524840D01*
X39632775Y10536689D01*
X39707202Y10587053D01*
X39773614Y10631388D01*
X39828039Y10667084D01*
X39866506Y10691529D01*
X39885042Y10702111D01*
X39897743Y10699685D01*
X39926579Y10680890D01*
X39971143Y10643670D01*
X40032670Y10586980D01*
X40112398Y10509773D01*
X40119532Y10502745D01*
X40182796Y10439778D01*
X40238990Y10382732D01*
X40284677Y10335183D01*
X40316414Y10300703D01*
X40330764Y10282869D01*
X40330810Y10282783D01*
X40332633Y10269205D01*
X40325910Y10247180D01*
X40308946Y10213696D01*
X40280044Y10165739D01*
X40237508Y10100296D01*
X40179644Y10014355D01*
X40169783Y9999849D01*
X40119913Y9926365D01*
X40075905Y9861313D01*
X40040380Y9808583D01*
X40015959Y9772064D01*
X40005264Y9755644D01*
X40004458Y9752166D01*
X40009518Y9726215D01*
X40024677Y9683841D01*
X40047463Y9632272D01*
X40078429Y9564830D01*
X40113004Y9484805D01*
X40142366Y9412371D01*
X40149645Y9393623D01*
X40168710Y9345754D01*
X40182715Y9312404D01*
X40189041Y9299886D01*
X40196025Y9298950D01*
X40227413Y9293539D01*
X40278787Y9284194D01*
X40344802Y9271931D01*
X40420113Y9257768D01*
X40499375Y9242720D01*
X40577243Y9227805D01*
X40648370Y9214039D01*
X40707412Y9202438D01*
X40749022Y9194020D01*
X40767857Y9189801D01*
X40770980Y9188611D01*
X40778591Y9182195D01*
X40784254Y9168535D01*
X40788251Y9144001D01*
X40790866Y9104962D01*
X40792384Y9047787D01*
X40793086Y8968846D01*
X40793257Y8864508D01*
X40793257Y8547201D01*
X40717057Y8532161D01*
X40707840Y8530358D01*
X40658891Y8521020D01*
X40591205Y8508331D01*
X40512478Y8493727D01*
X40430400Y8478645D01*
X40398078Y8472578D01*
X40325855Y8457819D01*
X40265666Y8443863D01*
X40223040Y8432048D01*
X40203510Y8423713D01*
X40194660Y8410095D01*
X40178548Y8374062D01*
X40162065Y8327428D01*
X40156263Y8309966D01*
X40134906Y8252642D01*
X40107359Y8184799D01*
X40078107Y8117645D01*
X40062463Y8082570D01*
X40040174Y8030178D01*
X40024857Y7990942D01*
X40019162Y7971437D01*
X40019478Y7969964D01*
X40030281Y7949271D01*
X40054638Y7909335D01*
X40090081Y7854028D01*
X40134136Y7787219D01*
X40184332Y7712780D01*
X40349501Y7470377D01*
X40132503Y7253017D01*
X40111516Y7232101D01*
X40047342Y7169495D01*
X39989990Y7115505D01*
X39942820Y7073174D01*
X39909192Y7045543D01*
X39892467Y7035657D01*
X39874303Y7043179D01*
X39836265Y7064773D01*
X39782726Y7097849D01*
X39717884Y7139809D01*
X39645940Y7188057D01*
X39575275Y7235709D01*
X39511526Y7277672D01*
X39459513Y7310835D01*
X39423279Y7332622D01*
X39406867Y7340457D01*
X39405905Y7340386D01*
X39384103Y7332662D01*
X39345440Y7314677D01*
X39297612Y7289987D01*
X39297110Y7289716D01*
X39233587Y7257901D01*
X39190060Y7242358D01*
X39163052Y7242315D01*
X39149090Y7257000D01*
X39143180Y7271456D01*
X39127229Y7310169D01*
X39102660Y7369684D01*
X39070779Y7446835D01*
X39032893Y7538459D01*
X38990310Y7641393D01*
X38944337Y7752474D01*
X38902667Y7853528D01*
X38860268Y7957220D01*
X38822756Y8049881D01*
X38791388Y8128358D01*
X38767425Y8189500D01*
X38752123Y8230157D01*
X38746743Y8247175D01*
X38757018Y8262781D01*
X38785563Y8288838D01*
X38825971Y8319113D01*
X38922979Y8398316D01*
X39009793Y8499525D01*
X39073322Y8610884D01*
X39113177Y8729107D01*
X39128965Y8850905D01*
X39120296Y8972990D01*
X39086778Y9092075D01*
X39028021Y9204871D01*
X38943632Y9308089D01*
X38899631Y9348287D01*
X38794211Y9419362D01*
X38681410Y9465699D01*
X38564525Y9488401D01*
X38446853Y9488572D01*
X38331690Y9467313D01*
X38222335Y9425730D01*
X38122083Y9364924D01*
X38034233Y9285999D01*
X37962080Y9190059D01*
X37908922Y9078205D01*
X37878057Y8951543D01*
X37872392Y8890493D01*
X37880185Y8758224D01*
X37915284Y8632734D01*
X37976649Y8516241D01*
X38063243Y8410961D01*
X38174029Y8319113D01*
X38212931Y8290070D01*
X38242104Y8263728D01*
X38253257Y8247200D01*
X38248810Y8232791D01*
X38234378Y8194185D01*
X38211173Y8134799D01*
X38180452Y8057785D01*
X38143474Y7966297D01*
X38101496Y7863484D01*
X38055778Y7752498D01*
X38014178Y7651928D01*
X37971222Y7548053D01*
X37932829Y7455181D01*
X37900305Y7376475D01*
X37874958Y7315101D01*
X37858095Y7274221D01*
X37851025Y7257000D01*
X37850943Y7256796D01*
X37836798Y7242255D01*
X37809659Y7242421D01*
X37766023Y7258073D01*
X37702388Y7289987D01*
X37697379Y7292674D01*
X37650125Y7316850D01*
X37612811Y7333963D01*
X37593133Y7340457D01*
X37577005Y7332782D01*
X37540959Y7311129D01*
X37489092Y7278072D01*
X37425445Y7236190D01*
X37354060Y7188057D01*
X37283724Y7140869D01*
X37218670Y7098733D01*
X37164820Y7065422D01*
X37126374Y7043531D01*
X37107534Y7035657D01*
X37104325Y7036657D01*
X37081954Y7052416D01*
X37043733Y7084967D01*
X36993021Y7131267D01*
X36933181Y7188274D01*
X36867571Y7252942D01*
X36650648Y7470228D01*
X36819601Y7718747D01*
X36988553Y7967267D01*
X36937183Y8078405D01*
X36937031Y8078734D01*
X36906183Y8149582D01*
X36874661Y8228477D01*
X36849266Y8298400D01*
X36845423Y8309678D01*
X36826047Y8362033D01*
X36808574Y8402717D01*
X36796388Y8423713D01*
X36791426Y8426678D01*
X36761634Y8436625D01*
X36711047Y8449495D01*
X36645194Y8463947D01*
X36569600Y8478645D01*
X36546957Y8482790D01*
X36465038Y8497884D01*
X36388600Y8512101D01*
X36325337Y8524005D01*
X36282943Y8532161D01*
X36206743Y8547201D01*
X36206743Y8864508D01*
X36206760Y8903524D01*
X36207082Y8998708D01*
X36208033Y9069745D01*
X36209896Y9120266D01*
X36212955Y9153902D01*
X36217494Y9174282D01*
X36223795Y9185038D01*
X36232143Y9189801D01*
X36240224Y9191730D01*
X36273172Y9198555D01*
X36325736Y9208978D01*
X36392569Y9221982D01*
X36468328Y9236551D01*
X36547665Y9251667D01*
X36625237Y9266315D01*
X36695698Y9279477D01*
X36753702Y9290137D01*
X36793904Y9297279D01*
X36810959Y9299886D01*
X36812112Y9301459D01*
X36821385Y9321881D01*
X36837432Y9360955D01*
X36857635Y9412371D01*
X36885672Y9481647D01*
X36920186Y9561710D01*
X36952538Y9632272D01*
X36959952Y9648111D01*
X36980755Y9697707D01*
X36993219Y9735962D01*
X36994863Y9755644D01*
X36994015Y9757038D01*
X36980548Y9777580D01*
X36953850Y9817484D01*
X36916539Y9872860D01*
X36871234Y9939823D01*
X36820552Y10014483D01*
X36763445Y10099308D01*
X36720607Y10165200D01*
X36691460Y10213522D01*
X36674317Y10247267D01*
X36667495Y10269428D01*
X36669306Y10282998D01*
X36669915Y10284016D01*
X36686297Y10303790D01*
X36719695Y10339825D01*
X36766671Y10388549D01*
X36823786Y10446388D01*
X36887603Y10509773D01*
X36953802Y10574095D01*
X37018648Y10634553D01*
X37066299Y10675345D01*
X37097990Y10697516D01*
X37114958Y10702111D01*
X37117175Y10701079D01*
X37140524Y10687163D01*
X37182912Y10659970D01*
X37240369Y10622111D01*
X37308923Y10576197D01*
X37384601Y10524840D01*
X37631298Y10356374D01*
X37742706Y10406938D01*
X37745943Y10408403D01*
X37814343Y10438035D01*
X37886907Y10467507D01*
X37948457Y10490642D01*
X37948729Y10490738D01*
X37997595Y10508633D01*
X38035212Y10523747D01*
X38053457Y10532816D01*
X38053752Y10533145D01*
X38059946Y10551718D01*
X38070139Y10593955D01*
X38083348Y10655304D01*
X38098590Y10731211D01*
X38114881Y10817125D01*
X38115449Y10820204D01*
X38131713Y10907872D01*
X38146608Y10987259D01*
X38159171Y11053299D01*
X38168438Y11100921D01*
X38173444Y11125057D01*
X38173764Y11126395D01*
X38177060Y11136727D01*
X38183738Y11144494D01*
X38197462Y11150060D01*
X38221895Y11153793D01*
X38260702Y11156058D01*
X38317546Y11157222D01*
X38396090Y11157652D01*
X38500000Y11157714D01*
X38513056Y11157714D01*
X38613933Y11157629D01*
G36*
X40657684Y6095922D02*
G01*
X40655078Y6072613D01*
X40635660Y5989648D01*
X40600573Y5926552D01*
X40547212Y5878192D01*
X40544196Y5876196D01*
X40476362Y5847815D01*
X40405535Y5845289D01*
X40337289Y5866903D01*
X40277196Y5910938D01*
X40230829Y5975678D01*
X40230050Y5977239D01*
X40214643Y6017442D01*
X40203357Y6063134D01*
X40197370Y6106028D01*
X40197861Y6137840D01*
X40206007Y6150286D01*
X40213244Y6149529D01*
X40247851Y6135765D01*
X40287078Y6110454D01*
X40320448Y6081155D01*
X40337483Y6055428D01*
X40355192Y6020529D01*
X40391485Y5988788D01*
X40433630Y5976114D01*
X40449077Y5979779D01*
X40479569Y5998226D01*
X40506128Y6023834D01*
X40517486Y6047066D01*
X40517482Y6047152D01*
X40504596Y6057821D01*
X40470241Y6077067D01*
X40419593Y6102187D01*
X40357829Y6130476D01*
X40357489Y6130626D01*
X40290388Y6160502D01*
X40245411Y6182027D01*
X40218145Y6198563D01*
X40204178Y6213469D01*
X40199097Y6230107D01*
X40198490Y6251838D01*
X40202712Y6292987D01*
X40346000Y6292987D01*
X40360791Y6280051D01*
X40397644Y6260667D01*
X40398725Y6260119D01*
X40442205Y6239413D01*
X40481102Y6222895D01*
X40505778Y6215907D01*
X40515676Y6225247D01*
X40517486Y6257252D01*
X40509966Y6297085D01*
X40483897Y6333283D01*
X40446154Y6352050D01*
X40404077Y6350155D01*
X40365005Y6324368D01*
X40349647Y6306549D01*
X40346000Y6292987D01*
X40202712Y6292987D01*
X40203833Y6303914D01*
X40230251Y6374665D01*
X40274473Y6430265D01*
X40331697Y6468761D01*
X40397120Y6488203D01*
X40465937Y6486641D01*
X40533347Y6462122D01*
X40594544Y6412698D01*
X40628450Y6363788D01*
X40652806Y6293973D01*
X40656767Y6257252D01*
X40662299Y6205945D01*
X40657684Y6095922D01*
G37*
X40657684Y6095922D02*
X40655078Y6072613D01*
X40635660Y5989648D01*
X40600573Y5926552D01*
X40547212Y5878192D01*
X40544196Y5876196D01*
X40476362Y5847815D01*
X40405535Y5845289D01*
X40337289Y5866903D01*
X40277196Y5910938D01*
X40230829Y5975678D01*
X40230050Y5977239D01*
X40214643Y6017442D01*
X40203357Y6063134D01*
X40197370Y6106028D01*
X40197861Y6137840D01*
X40206007Y6150286D01*
X40213244Y6149529D01*
X40247851Y6135765D01*
X40287078Y6110454D01*
X40320448Y6081155D01*
X40337483Y6055428D01*
X40355192Y6020529D01*
X40391485Y5988788D01*
X40433630Y5976114D01*
X40449077Y5979779D01*
X40479569Y5998226D01*
X40506128Y6023834D01*
X40517486Y6047066D01*
X40517482Y6047152D01*
X40504596Y6057821D01*
X40470241Y6077067D01*
X40419593Y6102187D01*
X40357829Y6130476D01*
X40357489Y6130626D01*
X40290388Y6160502D01*
X40245411Y6182027D01*
X40218145Y6198563D01*
X40204178Y6213469D01*
X40199097Y6230107D01*
X40198490Y6251838D01*
X40202712Y6292987D01*
X40346000Y6292987D01*
X40360791Y6280051D01*
X40397644Y6260667D01*
X40398725Y6260119D01*
X40442205Y6239413D01*
X40481102Y6222895D01*
X40505778Y6215907D01*
X40515676Y6225247D01*
X40517486Y6257252D01*
X40509966Y6297085D01*
X40483897Y6333283D01*
X40446154Y6352050D01*
X40404077Y6350155D01*
X40365005Y6324368D01*
X40349647Y6306549D01*
X40346000Y6292987D01*
X40202712Y6292987D01*
X40203833Y6303914D01*
X40230251Y6374665D01*
X40274473Y6430265D01*
X40331697Y6468761D01*
X40397120Y6488203D01*
X40465937Y6486641D01*
X40533347Y6462122D01*
X40594544Y6412698D01*
X40628450Y6363788D01*
X40652806Y6293973D01*
X40656767Y6257252D01*
X40662299Y6205945D01*
X40657684Y6095922D01*
G36*
X35640307Y6108695D02*
G01*
X35636762Y6032479D01*
X35627483Y5976706D01*
X35610375Y5935387D01*
X35583344Y5902533D01*
X35544292Y5872154D01*
X35519445Y5858340D01*
X35479615Y5849035D01*
X35423665Y5849770D01*
X35392385Y5852717D01*
X35354653Y5861717D01*
X35324494Y5881280D01*
X35289408Y5917733D01*
X35284720Y5923057D01*
X35253177Y5964031D01*
X35238128Y5999717D01*
X35234286Y6042034D01*
X35234286Y6104221D01*
X35277742Y6087818D01*
X35309424Y6068644D01*
X35336962Y6023653D01*
X35342711Y6009248D01*
X35374855Y5968454D01*
X35418611Y5947919D01*
X35466254Y5949765D01*
X35510057Y5976114D01*
X35525111Y5992545D01*
X35538763Y6017333D01*
X35534493Y6039856D01*
X35509916Y6063036D01*
X35462651Y6089798D01*
X35390314Y6123066D01*
X35241543Y6188184D01*
X35237595Y6252692D01*
X35239079Y6293780D01*
X35336010Y6293780D01*
X35343368Y6268343D01*
X35376848Y6241186D01*
X35437614Y6210286D01*
X35447669Y6205810D01*
X35495751Y6184983D01*
X35531726Y6170335D01*
X35548444Y6164800D01*
X35550977Y6168874D01*
X35551993Y6193753D01*
X35548369Y6233743D01*
X35539242Y6272848D01*
X35510773Y6322116D01*
X35469678Y6349878D01*
X35420590Y6353636D01*
X35368144Y6330891D01*
X35353609Y6319519D01*
X35336010Y6293780D01*
X35239079Y6293780D01*
X35239338Y6300936D01*
X35261281Y6361904D01*
X35288979Y6395503D01*
X35346405Y6433034D01*
X35414527Y6451994D01*
X35484947Y6450493D01*
X35549267Y6426645D01*
X35563426Y6417487D01*
X35595904Y6389151D01*
X35618116Y6353305D01*
X35631804Y6304616D01*
X35638715Y6237751D01*
X35639628Y6193753D01*
X35640590Y6147378D01*
X35640307Y6108695D01*
G37*
X35640307Y6108695D02*
X35636762Y6032479D01*
X35627483Y5976706D01*
X35610375Y5935387D01*
X35583344Y5902533D01*
X35544292Y5872154D01*
X35519445Y5858340D01*
X35479615Y5849035D01*
X35423665Y5849770D01*
X35392385Y5852717D01*
X35354653Y5861717D01*
X35324494Y5881280D01*
X35289408Y5917733D01*
X35284720Y5923057D01*
X35253177Y5964031D01*
X35238128Y5999717D01*
X35234286Y6042034D01*
X35234286Y6104221D01*
X35277742Y6087818D01*
X35309424Y6068644D01*
X35336962Y6023653D01*
X35342711Y6009248D01*
X35374855Y5968454D01*
X35418611Y5947919D01*
X35466254Y5949765D01*
X35510057Y5976114D01*
X35525111Y5992545D01*
X35538763Y6017333D01*
X35534493Y6039856D01*
X35509916Y6063036D01*
X35462651Y6089798D01*
X35390314Y6123066D01*
X35241543Y6188184D01*
X35237595Y6252692D01*
X35239079Y6293780D01*
X35336010Y6293780D01*
X35343368Y6268343D01*
X35376848Y6241186D01*
X35437614Y6210286D01*
X35447669Y6205810D01*
X35495751Y6184983D01*
X35531726Y6170335D01*
X35548444Y6164800D01*
X35550977Y6168874D01*
X35551993Y6193753D01*
X35548369Y6233743D01*
X35539242Y6272848D01*
X35510773Y6322116D01*
X35469678Y6349878D01*
X35420590Y6353636D01*
X35368144Y6330891D01*
X35353609Y6319519D01*
X35336010Y6293780D01*
X35239079Y6293780D01*
X35239338Y6300936D01*
X35261281Y6361904D01*
X35288979Y6395503D01*
X35346405Y6433034D01*
X35414527Y6451994D01*
X35484947Y6450493D01*
X35549267Y6426645D01*
X35563426Y6417487D01*
X35595904Y6389151D01*
X35618116Y6353305D01*
X35631804Y6304616D01*
X35638715Y6237751D01*
X35639628Y6193753D01*
X35640590Y6147378D01*
X35640307Y6108695D01*
G36*
X38589483Y6439431D02*
G01*
X38639376Y6410339D01*
X38661325Y6387673D01*
X38703504Y6319918D01*
X38717714Y6246050D01*
X38717714Y6195230D01*
X38670999Y6214872D01*
X38638692Y6234692D01*
X38613231Y6275840D01*
X38610616Y6284325D01*
X38582478Y6327549D01*
X38540067Y6350897D01*
X38491370Y6351900D01*
X38444373Y6328086D01*
X38437357Y6321944D01*
X38413893Y6295255D01*
X38410019Y6271986D01*
X38427768Y6249138D01*
X38469179Y6223713D01*
X38536286Y6192712D01*
X38540824Y6190748D01*
X38615322Y6156010D01*
X38666203Y6125237D01*
X38697525Y6094512D01*
X38713343Y6059918D01*
X38717714Y6017538D01*
X38711986Y5970554D01*
X38683062Y5910415D01*
X38632178Y5867212D01*
X38595374Y5854241D01*
X38543434Y5847144D01*
X38492999Y5848660D01*
X38456983Y5859368D01*
X38453158Y5862034D01*
X38442998Y5880663D01*
X38450048Y5913495D01*
X38462297Y5939265D01*
X38481939Y5949994D01*
X38519191Y5949461D01*
X38570908Y5952538D01*
X38604701Y5973788D01*
X38616114Y6013123D01*
X38616104Y6014253D01*
X38609187Y6037087D01*
X38585659Y6058037D01*
X38539914Y6082185D01*
X38477704Y6111259D01*
X38436499Y6127075D01*
X38412712Y6126056D01*
X38401597Y6105163D01*
X38398408Y6061359D01*
X38398400Y5991607D01*
X38398044Y5948548D01*
X38396413Y5895374D01*
X38393761Y5858978D01*
X38390422Y5845486D01*
X38389530Y5845577D01*
X38370237Y5852890D01*
X38338284Y5868322D01*
X38294124Y5891158D01*
X38299371Y6096922D01*
X38299736Y6110568D01*
X38303904Y6206349D01*
X38311268Y6278538D01*
X38323330Y6331942D01*
X38341593Y6371367D01*
X38367560Y6401620D01*
X38402733Y6427507D01*
X38403384Y6427913D01*
X38460256Y6449032D01*
X38526033Y6452600D01*
X38589483Y6439431D01*
G37*
X38589483Y6439431D02*
X38639376Y6410339D01*
X38661325Y6387673D01*
X38703504Y6319918D01*
X38717714Y6246050D01*
X38717714Y6195230D01*
X38670999Y6214872D01*
X38638692Y6234692D01*
X38613231Y6275840D01*
X38610616Y6284325D01*
X38582478Y6327549D01*
X38540067Y6350897D01*
X38491370Y6351900D01*
X38444373Y6328086D01*
X38437357Y6321944D01*
X38413893Y6295255D01*
X38410019Y6271986D01*
X38427768Y6249138D01*
X38469179Y6223713D01*
X38536286Y6192712D01*
X38540824Y6190748D01*
X38615322Y6156010D01*
X38666203Y6125237D01*
X38697525Y6094512D01*
X38713343Y6059918D01*
X38717714Y6017538D01*
X38711986Y5970554D01*
X38683062Y5910415D01*
X38632178Y5867212D01*
X38595374Y5854241D01*
X38543434Y5847144D01*
X38492999Y5848660D01*
X38456983Y5859368D01*
X38453158Y5862034D01*
X38442998Y5880663D01*
X38450048Y5913495D01*
X38462297Y5939265D01*
X38481939Y5949994D01*
X38519191Y5949461D01*
X38570908Y5952538D01*
X38604701Y5973788D01*
X38616114Y6013123D01*
X38616104Y6014253D01*
X38609187Y6037087D01*
X38585659Y6058037D01*
X38539914Y6082185D01*
X38477704Y6111259D01*
X38436499Y6127075D01*
X38412712Y6126056D01*
X38401597Y6105163D01*
X38398408Y6061359D01*
X38398400Y5991607D01*
X38398044Y5948548D01*
X38396413Y5895374D01*
X38393761Y5858978D01*
X38390422Y5845486D01*
X38389530Y5845577D01*
X38370237Y5852890D01*
X38338284Y5868322D01*
X38294124Y5891158D01*
X38299371Y6096922D01*
X38299736Y6110568D01*
X38303904Y6206349D01*
X38311268Y6278538D01*
X38323330Y6331942D01*
X38341593Y6371367D01*
X38367560Y6401620D01*
X38402733Y6427507D01*
X38403384Y6427913D01*
X38460256Y6449032D01*
X38526033Y6452600D01*
X38589483Y6439431D01*
G36*
X39178543Y6650556D02*
G01*
X39225714Y6630658D01*
X39225714Y6233491D01*
X39225519Y6130502D01*
X39224998Y6037859D01*
X39224199Y5959300D01*
X39223172Y5898561D01*
X39221963Y5859377D01*
X39220623Y5845486D01*
X39220099Y5845532D01*
X39202287Y5850580D01*
X39169823Y5861420D01*
X39124114Y5877354D01*
X39124114Y6081827D01*
X39123824Y6162168D01*
X39122474Y6220438D01*
X39119369Y6260091D01*
X39113812Y6286382D01*
X39105107Y6304564D01*
X39092556Y6319893D01*
X39083999Y6328045D01*
X39037728Y6350625D01*
X38986728Y6348625D01*
X38939993Y6321927D01*
X38933189Y6315302D01*
X38922293Y6301544D01*
X38914836Y6283358D01*
X38910169Y6255823D01*
X38907642Y6214019D01*
X38906602Y6153027D01*
X38906400Y6067927D01*
X38906303Y6024766D01*
X38905674Y5953776D01*
X38904556Y5896924D01*
X38903063Y5859172D01*
X38901309Y5845486D01*
X38900785Y5845532D01*
X38882973Y5850580D01*
X38850509Y5861420D01*
X38804800Y5877354D01*
X38804823Y6082763D01*
X38804857Y6101049D01*
X38806778Y6196374D01*
X38812678Y6268457D01*
X38824001Y6322187D01*
X38842187Y6362451D01*
X38868679Y6394139D01*
X38904918Y6422139D01*
X38940263Y6439667D01*
X38996773Y6453215D01*
X39052356Y6453985D01*
X39095086Y6440805D01*
X39098298Y6438985D01*
X39108205Y6439180D01*
X39114975Y6454428D01*
X39119861Y6489387D01*
X39124114Y6548711D01*
X39131371Y6670453D01*
X39178543Y6650556D01*
G37*
X39178543Y6650556D02*
X39225714Y6630658D01*
X39225714Y6233491D01*
X39225519Y6130502D01*
X39224998Y6037859D01*
X39224199Y5959300D01*
X39223172Y5898561D01*
X39221963Y5859377D01*
X39220623Y5845486D01*
X39220099Y5845532D01*
X39202287Y5850580D01*
X39169823Y5861420D01*
X39124114Y5877354D01*
X39124114Y6081827D01*
X39123824Y6162168D01*
X39122474Y6220438D01*
X39119369Y6260091D01*
X39113812Y6286382D01*
X39105107Y6304564D01*
X39092556Y6319893D01*
X39083999Y6328045D01*
X39037728Y6350625D01*
X38986728Y6348625D01*
X38939993Y6321927D01*
X38933189Y6315302D01*
X38922293Y6301544D01*
X38914836Y6283358D01*
X38910169Y6255823D01*
X38907642Y6214019D01*
X38906602Y6153027D01*
X38906400Y6067927D01*
X38906303Y6024766D01*
X38905674Y5953776D01*
X38904556Y5896924D01*
X38903063Y5859172D01*
X38901309Y5845486D01*
X38900785Y5845532D01*
X38882973Y5850580D01*
X38850509Y5861420D01*
X38804800Y5877354D01*
X38804823Y6082763D01*
X38804857Y6101049D01*
X38806778Y6196374D01*
X38812678Y6268457D01*
X38824001Y6322187D01*
X38842187Y6362451D01*
X38868679Y6394139D01*
X38904918Y6422139D01*
X38940263Y6439667D01*
X38996773Y6453215D01*
X39052356Y6453985D01*
X39095086Y6440805D01*
X39098298Y6438985D01*
X39108205Y6439180D01*
X39114975Y6454428D01*
X39119861Y6489387D01*
X39124114Y6548711D01*
X39131371Y6670453D01*
X39178543Y6650556D01*
G36*
X35982829Y6448903D02*
G01*
X36042753Y6426645D01*
X36067673Y6409920D01*
X36092910Y6385957D01*
X36110912Y6355474D01*
X36122858Y6313977D01*
X36129930Y6256968D01*
X36133308Y6179953D01*
X36134171Y6078435D01*
X36134002Y6025973D01*
X36133153Y5954285D01*
X36131711Y5897075D01*
X36129814Y5859191D01*
X36127597Y5845486D01*
X36113172Y5850019D01*
X36084054Y5862330D01*
X36083181Y5862728D01*
X36068060Y5870644D01*
X36057891Y5881505D01*
X36051691Y5900529D01*
X36048478Y5932931D01*
X36047270Y5983929D01*
X36047086Y6058739D01*
X36046714Y6106196D01*
X36042750Y6195385D01*
X36033673Y6260713D01*
X36018524Y6305607D01*
X35996345Y6333493D01*
X35966175Y6347797D01*
X35961990Y6348794D01*
X35905480Y6349573D01*
X35861410Y6324256D01*
X35830972Y6273498D01*
X35825544Y6258825D01*
X35813171Y6226351D01*
X35806905Y6211428D01*
X35794036Y6213484D01*
X35765933Y6224643D01*
X35739721Y6243073D01*
X35727771Y6277902D01*
X35731336Y6302849D01*
X35753235Y6353453D01*
X35788644Y6400872D01*
X35830052Y6433666D01*
X35847400Y6441248D01*
X35913089Y6453924D01*
X35982829Y6448903D01*
G37*
X35982829Y6448903D02*
X36042753Y6426645D01*
X36067673Y6409920D01*
X36092910Y6385957D01*
X36110912Y6355474D01*
X36122858Y6313977D01*
X36129930Y6256968D01*
X36133308Y6179953D01*
X36134171Y6078435D01*
X36134002Y6025973D01*
X36133153Y5954285D01*
X36131711Y5897075D01*
X36129814Y5859191D01*
X36127597Y5845486D01*
X36113172Y5850019D01*
X36084054Y5862330D01*
X36083181Y5862728D01*
X36068060Y5870644D01*
X36057891Y5881505D01*
X36051691Y5900529D01*
X36048478Y5932931D01*
X36047270Y5983929D01*
X36047086Y6058739D01*
X36046714Y6106196D01*
X36042750Y6195385D01*
X36033673Y6260713D01*
X36018524Y6305607D01*
X35996345Y6333493D01*
X35966175Y6347797D01*
X35961990Y6348794D01*
X35905480Y6349573D01*
X35861410Y6324256D01*
X35830972Y6273498D01*
X35825544Y6258825D01*
X35813171Y6226351D01*
X35806905Y6211428D01*
X35794036Y6213484D01*
X35765933Y6224643D01*
X35739721Y6243073D01*
X35727771Y6277902D01*
X35731336Y6302849D01*
X35753235Y6353453D01*
X35788644Y6400872D01*
X35830052Y6433666D01*
X35847400Y6441248D01*
X35913089Y6453924D01*
X35982829Y6448903D01*
G36*
X41765701Y6149065D02*
G01*
X41764914Y6078881D01*
X41762210Y6029978D01*
X41756606Y5995822D01*
X41747119Y5969876D01*
X41732768Y5945603D01*
X41729237Y5940567D01*
X41691878Y5900857D01*
X41649311Y5870908D01*
X41627452Y5861190D01*
X41548908Y5844980D01*
X41471231Y5855465D01*
X41399645Y5891293D01*
X41339374Y5951113D01*
X41334286Y5959127D01*
X41317730Y6005658D01*
X41306573Y6070448D01*
X41301160Y6145273D01*
X41301768Y6214487D01*
X41448248Y6214487D01*
X41449402Y6118601D01*
X41449866Y6112431D01*
X41456629Y6059522D01*
X41468671Y6025971D01*
X41489005Y6002984D01*
X41523097Y5981452D01*
X41556814Y5980320D01*
X41591543Y6005143D01*
X41597584Y6011675D01*
X41609417Y6031221D01*
X41616404Y6059614D01*
X41619727Y6103570D01*
X41620571Y6169808D01*
X41619125Y6231850D01*
X41611907Y6290958D01*
X41597006Y6328314D01*
X41572636Y6347848D01*
X41537008Y6353486D01*
X41523440Y6352365D01*
X41485430Y6331806D01*
X41460312Y6285701D01*
X41448248Y6214487D01*
X41301768Y6214487D01*
X41301833Y6221904D01*
X41308937Y6292118D01*
X41322815Y6347688D01*
X41340649Y6384699D01*
X41390855Y6442267D01*
X41458885Y6478038D01*
X41542158Y6490335D01*
X41564398Y6489669D01*
X41629891Y6476053D01*
X41683687Y6441751D01*
X41733057Y6382662D01*
X41735995Y6378278D01*
X41749287Y6354701D01*
X41757932Y6328051D01*
X41762904Y6291841D01*
X41765174Y6239587D01*
X41765678Y6169808D01*
X41765714Y6164800D01*
X41765701Y6149065D01*
G37*
X41765701Y6149065D02*
X41764914Y6078881D01*
X41762210Y6029978D01*
X41756606Y5995822D01*
X41747119Y5969876D01*
X41732768Y5945603D01*
X41729237Y5940567D01*
X41691878Y5900857D01*
X41649311Y5870908D01*
X41627452Y5861190D01*
X41548908Y5844980D01*
X41471231Y5855465D01*
X41399645Y5891293D01*
X41339374Y5951113D01*
X41334286Y5959127D01*
X41317730Y6005658D01*
X41306573Y6070448D01*
X41301160Y6145273D01*
X41301768Y6214487D01*
X41448248Y6214487D01*
X41449402Y6118601D01*
X41449866Y6112431D01*
X41456629Y6059522D01*
X41468671Y6025971D01*
X41489005Y6002984D01*
X41523097Y5981452D01*
X41556814Y5980320D01*
X41591543Y6005143D01*
X41597584Y6011675D01*
X41609417Y6031221D01*
X41616404Y6059614D01*
X41619727Y6103570D01*
X41620571Y6169808D01*
X41619125Y6231850D01*
X41611907Y6290958D01*
X41597006Y6328314D01*
X41572636Y6347848D01*
X41537008Y6353486D01*
X41523440Y6352365D01*
X41485430Y6331806D01*
X41460312Y6285701D01*
X41448248Y6214487D01*
X41301768Y6214487D01*
X41301833Y6221904D01*
X41308937Y6292118D01*
X41322815Y6347688D01*
X41340649Y6384699D01*
X41390855Y6442267D01*
X41458885Y6478038D01*
X41542158Y6490335D01*
X41564398Y6489669D01*
X41629891Y6476053D01*
X41683687Y6441751D01*
X41733057Y6382662D01*
X41735995Y6378278D01*
X41749287Y6354701D01*
X41757932Y6328051D01*
X41762904Y6291841D01*
X41765174Y6239587D01*
X41765678Y6169808D01*
X41765714Y6164800D01*
X41765701Y6149065D01*
G36*
X41211252Y5987000D02*
G01*
X41211651Y5954661D01*
X41212929Y5846545D01*
X41213185Y5763814D01*
X41211634Y5703574D01*
X41207490Y5662927D01*
X41199964Y5638977D01*
X41188271Y5628829D01*
X41171624Y5629586D01*
X41149236Y5638352D01*
X41120321Y5652231D01*
X41114142Y5655192D01*
X41088413Y5669689D01*
X41074976Y5686935D01*
X41069834Y5715692D01*
X41068990Y5764717D01*
X41068952Y5852743D01*
X40978276Y5852743D01*
X40922498Y5855185D01*
X40878640Y5865092D01*
X40842218Y5885114D01*
X40839503Y5887071D01*
X40802546Y5920131D01*
X40776826Y5960069D01*
X40760606Y6012343D01*
X40752148Y6082412D01*
X40750083Y6161570D01*
X40894857Y6161570D01*
X40894882Y6148303D01*
X40896261Y6088416D01*
X40900687Y6049268D01*
X40909461Y6023847D01*
X40923886Y6005143D01*
X40924784Y6004250D01*
X40960237Y5980048D01*
X40994596Y5982433D01*
X41033403Y6011740D01*
X41042895Y6021756D01*
X41056876Y6042292D01*
X41064760Y6069003D01*
X41068245Y6109501D01*
X41069029Y6171397D01*
X41068350Y6208870D01*
X41060983Y6277020D01*
X41044168Y6321670D01*
X41016234Y6346074D01*
X40975509Y6353486D01*
X40958350Y6351906D01*
X40928660Y6336234D01*
X40909031Y6301309D01*
X40898188Y6244099D01*
X40894857Y6161570D01*
X40750083Y6161570D01*
X40749714Y6175733D01*
X40750253Y6243831D01*
X40752707Y6295413D01*
X40758158Y6331184D01*
X40767686Y6357985D01*
X40782371Y6382662D01*
X40795852Y6401520D01*
X40844799Y6452432D01*
X40900256Y6480082D01*
X40969928Y6488835D01*
X41049664Y6480110D01*
X41118595Y6448815D01*
X41173113Y6393619D01*
X41177223Y6387776D01*
X41186808Y6372247D01*
X41194151Y6354502D01*
X41199612Y6330710D01*
X41203550Y6297042D01*
X41206323Y6249667D01*
X41208292Y6184755D01*
X41208528Y6171397D01*
X41209815Y6098476D01*
X41211252Y5987000D01*
G37*
X41211252Y5987000D02*
X41211651Y5954661D01*
X41212929Y5846545D01*
X41213185Y5763814D01*
X41211634Y5703574D01*
X41207490Y5662927D01*
X41199964Y5638977D01*
X41188271Y5628829D01*
X41171624Y5629586D01*
X41149236Y5638352D01*
X41120321Y5652231D01*
X41114142Y5655192D01*
X41088413Y5669689D01*
X41074976Y5686935D01*
X41069834Y5715692D01*
X41068990Y5764717D01*
X41068952Y5852743D01*
X40978276Y5852743D01*
X40922498Y5855185D01*
X40878640Y5865092D01*
X40842218Y5885114D01*
X40839503Y5887071D01*
X40802546Y5920131D01*
X40776826Y5960069D01*
X40760606Y6012343D01*
X40752148Y6082412D01*
X40750083Y6161570D01*
X40894857Y6161570D01*
X40894882Y6148303D01*
X40896261Y6088416D01*
X40900687Y6049268D01*
X40909461Y6023847D01*
X40923886Y6005143D01*
X40924784Y6004250D01*
X40960237Y5980048D01*
X40994596Y5982433D01*
X41033403Y6011740D01*
X41042895Y6021756D01*
X41056876Y6042292D01*
X41064760Y6069003D01*
X41068245Y6109501D01*
X41069029Y6171397D01*
X41068350Y6208870D01*
X41060983Y6277020D01*
X41044168Y6321670D01*
X41016234Y6346074D01*
X40975509Y6353486D01*
X40958350Y6351906D01*
X40928660Y6336234D01*
X40909031Y6301309D01*
X40898188Y6244099D01*
X40894857Y6161570D01*
X40750083Y6161570D01*
X40749714Y6175733D01*
X40750253Y6243831D01*
X40752707Y6295413D01*
X40758158Y6331184D01*
X40767686Y6357985D01*
X40782371Y6382662D01*
X40795852Y6401520D01*
X40844799Y6452432D01*
X40900256Y6480082D01*
X40969928Y6488835D01*
X41049664Y6480110D01*
X41118595Y6448815D01*
X41173113Y6393619D01*
X41177223Y6387776D01*
X41186808Y6372247D01*
X41194151Y6354502D01*
X41199612Y6330710D01*
X41203550Y6297042D01*
X41206323Y6249667D01*
X41208292Y6184755D01*
X41208528Y6171397D01*
X41209815Y6098476D01*
X41211252Y5987000D01*
G36*
X39931020Y6482178D02*
G01*
X39998810Y6450320D01*
X40054366Y6395230D01*
X40065881Y6377984D01*
X40075432Y6358438D01*
X40082206Y6333802D01*
X40086819Y6299289D01*
X40089888Y6250111D01*
X40092029Y6181481D01*
X40093859Y6088611D01*
X40098404Y5830993D01*
X40060225Y5845509D01*
X40025268Y5858844D01*
X39999097Y5871677D01*
X39982013Y5888220D01*
X39972086Y5913535D01*
X39967386Y5952684D01*
X39965982Y6010732D01*
X39965943Y6092739D01*
X39965744Y6158105D01*
X39964559Y6220827D01*
X39961729Y6263666D01*
X39956609Y6291780D01*
X39948553Y6310325D01*
X39936914Y6324457D01*
X39908303Y6344400D01*
X39860239Y6351917D01*
X39812688Y6332921D01*
X39809550Y6330489D01*
X39799769Y6319252D01*
X39792553Y6301230D01*
X39787299Y6271974D01*
X39783402Y6227038D01*
X39780256Y6161972D01*
X39777257Y6072330D01*
X39770000Y5832303D01*
X39708314Y5859956D01*
X39646629Y5887609D01*
X39646629Y6106754D01*
X39646884Y6166289D01*
X39649086Y6249108D01*
X39654661Y6310773D01*
X39664941Y6356252D01*
X39681258Y6390516D01*
X39704943Y6418534D01*
X39737328Y6445277D01*
X39783907Y6472220D01*
X39857287Y6489809D01*
X39931020Y6482178D01*
G37*
X39931020Y6482178D02*
X39998810Y6450320D01*
X40054366Y6395230D01*
X40065881Y6377984D01*
X40075432Y6358438D01*
X40082206Y6333802D01*
X40086819Y6299289D01*
X40089888Y6250111D01*
X40092029Y6181481D01*
X40093859Y6088611D01*
X40098404Y5830993D01*
X40060225Y5845509D01*
X40025268Y5858844D01*
X39999097Y5871677D01*
X39982013Y5888220D01*
X39972086Y5913535D01*
X39967386Y5952684D01*
X39965982Y6010732D01*
X39965943Y6092739D01*
X39965744Y6158105D01*
X39964559Y6220827D01*
X39961729Y6263666D01*
X39956609Y6291780D01*
X39948553Y6310325D01*
X39936914Y6324457D01*
X39908303Y6344400D01*
X39860239Y6351917D01*
X39812688Y6332921D01*
X39809550Y6330489D01*
X39799769Y6319252D01*
X39792553Y6301230D01*
X39787299Y6271974D01*
X39783402Y6227038D01*
X39780256Y6161972D01*
X39777257Y6072330D01*
X39770000Y5832303D01*
X39708314Y5859956D01*
X39646629Y5887609D01*
X39646629Y6106754D01*
X39646884Y6166289D01*
X39649086Y6249108D01*
X39654661Y6310773D01*
X39664941Y6356252D01*
X39681258Y6390516D01*
X39704943Y6418534D01*
X39737328Y6445277D01*
X39783907Y6472220D01*
X39857287Y6489809D01*
X39931020Y6482178D01*
G36*
X37729537Y6093687D02*
G01*
X37721345Y6016538D01*
X37703519Y5958724D01*
X37673975Y5914578D01*
X37630625Y5878432D01*
X37589332Y5857537D01*
X37519987Y5845910D01*
X37450736Y5858623D01*
X37388145Y5894055D01*
X37338779Y5950582D01*
X37332818Y5961005D01*
X37324945Y5979267D01*
X37319106Y6002571D01*
X37314999Y6034915D01*
X37312325Y6080296D01*
X37310781Y6142713D01*
X37310734Y6148252D01*
X37411429Y6148252D01*
X37411772Y6095423D01*
X37413942Y6047638D01*
X37419307Y6016791D01*
X37429217Y5996065D01*
X37445021Y5978644D01*
X37448724Y5975295D01*
X37496299Y5950581D01*
X37546635Y5953110D01*
X37593517Y5982712D01*
X37607477Y5998047D01*
X37619160Y6018378D01*
X37625686Y6046486D01*
X37628524Y6089450D01*
X37629143Y6154353D01*
X37628837Y6203878D01*
X37626722Y6252218D01*
X37621390Y6283413D01*
X37611460Y6304353D01*
X37595550Y6321927D01*
X37586204Y6329841D01*
X37537776Y6351157D01*
X37487040Y6347802D01*
X37442987Y6319893D01*
X37433504Y6308827D01*
X37421939Y6287991D01*
X37415252Y6258894D01*
X37412173Y6214619D01*
X37411429Y6148252D01*
X37310734Y6148252D01*
X37310067Y6226163D01*
X37309883Y6334642D01*
X37309829Y6671399D01*
X37357000Y6651638D01*
X37369472Y6646230D01*
X37389324Y6634015D01*
X37400687Y6615518D01*
X37406933Y6583171D01*
X37411429Y6529407D01*
X37415535Y6481134D01*
X37420963Y6449443D01*
X37428739Y6437617D01*
X37440457Y6440788D01*
X37470318Y6451933D01*
X37523684Y6454696D01*
X37581093Y6444375D01*
X37630625Y6422139D01*
X37657876Y6401557D01*
X37692865Y6361400D01*
X37715274Y6309914D01*
X37727190Y6241432D01*
X37730542Y6154353D01*
X37730698Y6150286D01*
X37729537Y6093687D01*
G37*
X37729537Y6093687D02*
X37721345Y6016538D01*
X37703519Y5958724D01*
X37673975Y5914578D01*
X37630625Y5878432D01*
X37589332Y5857537D01*
X37519987Y5845910D01*
X37450736Y5858623D01*
X37388145Y5894055D01*
X37338779Y5950582D01*
X37332818Y5961005D01*
X37324945Y5979267D01*
X37319106Y6002571D01*
X37314999Y6034915D01*
X37312325Y6080296D01*
X37310781Y6142713D01*
X37310734Y6148252D01*
X37411429Y6148252D01*
X37411772Y6095423D01*
X37413942Y6047638D01*
X37419307Y6016791D01*
X37429217Y5996065D01*
X37445021Y5978644D01*
X37448724Y5975295D01*
X37496299Y5950581D01*
X37546635Y5953110D01*
X37593517Y5982712D01*
X37607477Y5998047D01*
X37619160Y6018378D01*
X37625686Y6046486D01*
X37628524Y6089450D01*
X37629143Y6154353D01*
X37628837Y6203878D01*
X37626722Y6252218D01*
X37621390Y6283413D01*
X37611460Y6304353D01*
X37595550Y6321927D01*
X37586204Y6329841D01*
X37537776Y6351157D01*
X37487040Y6347802D01*
X37442987Y6319893D01*
X37433504Y6308827D01*
X37421939Y6287991D01*
X37415252Y6258894D01*
X37412173Y6214619D01*
X37411429Y6148252D01*
X37310734Y6148252D01*
X37310067Y6226163D01*
X37309883Y6334642D01*
X37309829Y6671399D01*
X37357000Y6651638D01*
X37369472Y6646230D01*
X37389324Y6634015D01*
X37400687Y6615518D01*
X37406933Y6583171D01*
X37411429Y6529407D01*
X37415535Y6481134D01*
X37420963Y6449443D01*
X37428739Y6437617D01*
X37440457Y6440788D01*
X37470318Y6451933D01*
X37523684Y6454696D01*
X37581093Y6444375D01*
X37630625Y6422139D01*
X37657876Y6401557D01*
X37692865Y6361400D01*
X37715274Y6309914D01*
X37727190Y6241432D01*
X37730542Y6154353D01*
X37730698Y6150286D01*
X37729537Y6093687D01*
G36*
X38107691Y6433533D02*
G01*
X38112273Y6430997D01*
X38149704Y6401943D01*
X38183170Y6364590D01*
X38189007Y6356148D01*
X38200165Y6336447D01*
X38208136Y6313065D01*
X38213618Y6280933D01*
X38217307Y6234981D01*
X38219899Y6170141D01*
X38222092Y6081343D01*
X38222402Y6066331D01*
X38223400Y5969001D01*
X38221994Y5900066D01*
X38218164Y5859052D01*
X38211889Y5845486D01*
X38192898Y5849548D01*
X38160638Y5861856D01*
X38153041Y5865455D01*
X38141176Y5873602D01*
X38132994Y5886996D01*
X38127643Y5910392D01*
X38124269Y5948545D01*
X38122019Y6006210D01*
X38120040Y6088143D01*
X38119498Y6112093D01*
X38117403Y6187734D01*
X38114683Y6240672D01*
X38110515Y6275925D01*
X38104079Y6298513D01*
X38094550Y6313456D01*
X38081106Y6325773D01*
X38041305Y6347366D01*
X37992341Y6351524D01*
X37948529Y6335001D01*
X37917008Y6300790D01*
X37904914Y6251886D01*
X37904578Y6238593D01*
X37897972Y6214528D01*
X37878470Y6210856D01*
X37840283Y6225187D01*
X37831438Y6229783D01*
X37807534Y6256814D01*
X37807061Y6297006D01*
X37829836Y6352591D01*
X37850727Y6382883D01*
X37904142Y6425916D01*
X37970074Y6450245D01*
X38040574Y6453557D01*
X38107691Y6433533D01*
G37*
X38107691Y6433533D02*
X38112273Y6430997D01*
X38149704Y6401943D01*
X38183170Y6364590D01*
X38189007Y6356148D01*
X38200165Y6336447D01*
X38208136Y6313065D01*
X38213618Y6280933D01*
X38217307Y6234981D01*
X38219899Y6170141D01*
X38222092Y6081343D01*
X38222402Y6066331D01*
X38223400Y5969001D01*
X38221994Y5900066D01*
X38218164Y5859052D01*
X38211889Y5845486D01*
X38192898Y5849548D01*
X38160638Y5861856D01*
X38153041Y5865455D01*
X38141176Y5873602D01*
X38132994Y5886996D01*
X38127643Y5910392D01*
X38124269Y5948545D01*
X38122019Y6006210D01*
X38120040Y6088143D01*
X38119498Y6112093D01*
X38117403Y6187734D01*
X38114683Y6240672D01*
X38110515Y6275925D01*
X38104079Y6298513D01*
X38094550Y6313456D01*
X38081106Y6325773D01*
X38041305Y6347366D01*
X37992341Y6351524D01*
X37948529Y6335001D01*
X37917008Y6300790D01*
X37904914Y6251886D01*
X37904578Y6238593D01*
X37897972Y6214528D01*
X37878470Y6210856D01*
X37840283Y6225187D01*
X37831438Y6229783D01*
X37807534Y6256814D01*
X37807061Y6297006D01*
X37829836Y6352591D01*
X37850727Y6382883D01*
X37904142Y6425916D01*
X37970074Y6450245D01*
X38040574Y6453557D01*
X38107691Y6433533D01*
G04 #@! TD*
M02*
