M48
; DRILL file {KiCad 6.0.9-8da3e8f707~116~ubuntu20.04.1} date Sun Mar 26 14:48:38 2023
; FORMAT={-:-/ absolute / metric / decimal}
; #@! TF.CreationDate,2023-03-26T14:48:38+00:00
; #@! TF.GenerationSoftware,Kicad,Pcbnew,6.0.9-8da3e8f707~116~ubuntu20.04.1
; #@! TF.FileFunction,MixedPlating,1,2
FMAT,2
METRIC
; #@! TA.AperFunction,Plated,PTH,ViaDrill
T1C0.400
; #@! TA.AperFunction,Plated,PTH,ComponentDrill
T2C0.700
; #@! TA.AperFunction,Plated,PTH,ComponentDrill
T3C1.000
; #@! TA.AperFunction,Plated,PTH,ComponentDrill
T4C1.520
; #@! TA.AperFunction,NonPlated,NPTH,ComponentDrill
T5C3.200
%
G90
G05
T1
X13.0Y29.0
X13.0Y26.5
X13.0Y21.5
X13.0Y19.0
X13.0Y14.0
X15.5Y26.5
X15.5Y19.0
X15.5Y16.5
X18.0Y6.5
X19.0Y4.5
X20.5Y6.5
X21.0Y4.5
X26.0Y12.5
X28.0Y26.5
X28.0Y24.0
X30.5Y24.0
X30.5Y14.0
X30.5Y9.0
X30.5Y6.5
X31.0Y12.5
X32.0Y27.75
X34.5Y21.0
X35.5Y14.0
X35.5Y4.0
X36.5Y21.25
X36.75Y23.75
X38.0Y16.5
X38.0Y14.0
X38.0Y4.0
X40.5Y14.0
X40.5Y4.0
X40.75Y25.0
X41.25Y27.5
X41.25Y17.0
X41.75Y30.0
X43.0Y22.5
X43.0Y4.0
X44.4Y12.9
X45.0Y15.5
X45.5Y4.0
X46.0Y16.5
X46.0Y15.5
X46.25Y20.25
X47.0Y15.5
X47.0Y14.5
X47.0Y13.5
X48.0Y29.0
X48.0Y23.5
X48.0Y4.0
X49.0Y11.5
X50.0Y11.5
X50.0Y7.5
X50.0Y5.5
X50.5Y29.0
X50.75Y19.0
X51.825Y16.575
X52.0Y20.25
X53.0Y20.25
X54.0Y7.5
X54.0Y5.5
X55.5Y24.0
X55.5Y9.0
X55.5Y4.0
X58.0Y24.0
X58.0Y19.5
X60.0Y15.5
T2
X38.75Y25.54
X38.75Y20.46
X41.29Y23.0
T3
X59.4Y20.82
X59.4Y13.2
X67.02Y20.82
X67.02Y13.2
X72.1Y20.82
X72.1Y13.2
X77.18Y20.82
X77.18Y13.2
T4
X9.4Y28.1
X9.4Y23.02
X9.4Y10.5
X9.4Y5.42
X54.32Y27.1
X59.4Y27.1
X66.0Y6.9
X66.04Y27.1
X71.08Y6.9
X71.12Y27.1
X76.16Y6.9
X76.2Y27.1
T5
X9.4Y16.7
X46.0Y27.5
X59.2Y6.9
T0
M30
